<?xml version="1.0" encoding="utf-8"?>
<!-- Generator: Adobe Illustrator 27.5.0, SVG Export Plug-In . SVG Version: 6.00 Build 0)  -->
<svg version="1.1" id="Layer_2_00000039114035858902974290000006583371554426878396_"
	 xmlns="http://www.w3.org/2000/svg" xmlns:xlink="http://www.w3.org/1999/xlink" x="0px" y="0px" viewBox="0 0 136.8 115.2"
	 style="enable-background:new 0 0 136.8 115.2;" xml:space="preserve">
<style type="text/css">
	.st0{fill:#FEFEFE;}
	.st1{fill:#FEF000;}
	.st2{fill:#1B7632;}
</style>
<g>
	<path class="st0" d="M9,114.6c0.4,0.1,0.8,0.1,1.1,0.1c9.8,0,19.6,0,29.5,0c13.5,0,26.9,0,40.4,0c15.9,0,31.8,0,47.7,0
		c0.3,0,0.6,0,0.9-0.1c1-0.2,2.1-0.3,3.1-0.9c1.3-0.7,2.5-1.6,3.3-2.8c0.9-1.4,1.3-2.9,1.3-4.6c0-7.7,0-15.3,0-23
		c0-1.1,0-2.2-0.1-3.3c-0.1-0.6,0.1-1.3,0.1-1.9c0-8.1,0-16.1,0-24.1c0-6.9,0.1-13.8-0.1-20.8c0-1.6,0.1-3.2,0.1-4.8
		c0-6.3,0-12.7,0-19c0-1.2-0.2-2.4-0.6-3.5c-0.3-0.7-0.8-1.4-1.3-2c-0.5-0.5-1-1.1-1.6-1.4c-1.2-0.7-2.4-1.2-3.8-1.4
		c-0.4,0-0.7,0-1.1-0.1c-0.7-0.1-1.5-0.1-2.2-0.1c-6.9,0-13.9,0-20.8,0c-31.7,0-63.5,0-95.2,0H9.6H9.4C8,1,6.6,1.3,5.3,1.9
		c-1,0.5-1.9,1.2-2.6,2C2.5,4.4,2.2,4.7,1.9,5.1C1.4,6,1,6.9,0.9,7.9c0,0.4-0.1,0.8-0.1,1.2c0,0.6,0,1.1,0,1.7c0,19.7,0,39.4,0,59
		c0,10.9,0,21.7,0,32.6c0,1.1,0,2.2,0,3.3c-0.1,0.9,0.1,1.8,0.2,2.6c0.2,1.3,1,2.3,1.8,3.3c0.9,1.1,2.1,1.8,3.4,2.4
		c0.6,0.3,1.2,0.4,1.9,0.4C8.4,114.4,8.7,114.4,9,114.6L9,114.6z"/>
	<path class="st1" d="M0.8,9.1c0-0.4,0.1-0.8,0.1-1.2c0.2,0,0.2-0.1,0.3-0.2c0.2-0.5,0.4-1,0.5-1.5c0.2-0.6,0.7-1.1,1-1.7
		C2.8,4.3,3,4.2,2.8,4c0.7-0.9,1.6-1.6,2.6-2C6.7,1.3,8,1,9.5,0.8h0.1h0.1C9.8,1,9.6,1.2,9.8,1.3c0.1,0.1,0.2,0,0.3-0.1
		c0.2-0.4,0.5-0.3,0.8-0.3c0.5,0,1,0,1.6,0c0.2,0,0.4-0.1,0.6,0.2c0.1,0.1,0.4,0.1,0.5,0c0.2-0.3,0.4-0.2,0.6-0.2
		c31.3,0,62.6,0,93.9,0c5.4,0,10.7,0,16.1,0c0.1,0,0.3-0.1,0.4,0.1c0.3,0.3,0.6,0.4,1,0.4c0.6,0,1.2,0,1.9,0c0.3,0,0.5-0.1,0.4-0.4
		c0.3,0.1,0.7,0.1,1.1,0.1c1.4,0.1,2.6,0.7,3.8,1.4c0.6,0.3,1.1,0.9,1.6,1.4c-0.4,0.2-0.2,0.3,0,0.6c0.7,0.9,1.3,1.9,1.5,3
		c0.1,0.9,0.1,1.8,0.1,2.7c0,9.5,0,19.1,0,28.6c0,22.6,0,45.1,0,67.7c0,0.8,0,1.6-0.3,2.3c-0.4,1.3-1.3,2.3-2.2,3.3
		c-0.2,0.3-0.5,0.5-0.9,0.7c-0.5,0.3-1.1,0.6-1.7,0.9c-0.4,0.2-0.7,0.4-1.1,0.3c-0.1,0-0.2,0-0.3,0.1c-0.2,0.4-0.6,0.3-0.8,0.2
		c-0.6-0.2-1.1-0.2-1.7-0.2c-3.4,0-6.8,0-10.2,0c-34.4,0-68.7,0-103.1,0c-1.5,0-3,0-4.4,0c-0.2,0-0.5,0-0.4,0.3
		c-0.3-0.2-0.6-0.2-0.9-0.1c-0.7,0.1-1.3-0.1-1.9-0.4c0.1-0.2-0.1-0.4-0.3-0.5c-1.2-0.7-2.4-1.4-3.3-2.5c-0.6-0.8-1.1-1.7-1.4-2.6
		c-0.2-0.6-0.1-1.3-0.1-2c0-0.3,0-0.6-0.4-0.7c0-1.1,0-2.2,0-3.3c0.1-0.1,0.2-0.2,0.2-0.3c-0.1-0.6,0.1-1.2,0.1-1.9
		c0-0.4-0.1-0.9-0.1-1.3c0-1.4,0-2.9,0-4.3s0-2.9,0-4.3s0-2.9,0-4.3s0-2.9,0-4.3s0.1-2.8,0-4.2c-0.1-1.3,0-2.6,0-3.9s0-2.6,0-3.9
		s0-2.6,0-3.9s0-2.6,0-3.9c0-1.3,0-2.6,0-3.9c0-1.3,0-2.6,0-3.9v-7.8c0-1.3,0-2.6,0-3.9c0-1.3,0-2.6,0-3.9c0-8.3-0.1-16.6,0.1-24.9
		c0-1,0-2,0-3C0.9,10.3,1,10,1,9.8C1.1,9.6,1.4,9.1,0.8,9.1L0.8,9.1z M22.3,98.8L22.3,98.8c0-0.1,0.1-0.2,0.2-0.3
		c0.4-0.5,0.9-0.9,1.4-1.4c0.4-0.4,0.4-0.8-0.1-1.2c-0.6-0.5-1.2-0.6-1.9-0.4c-0.8,0.2-1.7,0.2-2.5,0.4c-0.8,0.2-1.7,0.4-2.6,0.3
		c-0.1,0-0.2,0-0.3,0.1c0,0.1,0,0.2,0.1,0.3c0.5,0.5,1,0.5,1.6,0.4s1.2-0.3,1.8-0.5c0.9-0.3,1.8-0.6,2.7-0.5c0.1,0,0.3-0.1,0.4,0.1
		c0,0.1,0,0.3-0.1,0.4c0,0.1-0.1,0.1-0.1,0.1c-0.9,0.7-1.7,1.4-2.4,2.3c-0.7,0.8-1.4,1.6-2,2.5c-0.2,0.3-0.2,0.5,0.1,0.8
		c0.3,0.2,0.6,0.2,0.8-0.1c0.6-0.9,1.6-1.4,2.4-2.1c0.9-0.7,1.8-1.3,2.7-1.9c0.1-0.1,0.2-0.2,0.3-0.1s-0.1,0.2-0.1,0.3
		c-0.6,0.7-1.4,1.2-1.9,1.8c-0.3,0.4-0.7,0.8-0.9,1.4c-0.1,0.3,0,0.5,0.2,0.7s0.5,0.3,0.8,0.2c0.2-0.1,0.3-0.3,0.4-0.5
		c1-1.1,2.2-1.9,3.4-2.8c0.2-0.2,0.5-0.3,0.7-0.4c0.3-0.1,0.5-0.2,0.8-0.4c-0.1,0.2-0.2,0.3-0.3,0.3c-0.7,0.6-1.4,1.2-1.9,1.9
		c-0.3,0.4-0.6,0.8-0.8,1.3c-0.1,0.3,0,0.6,0.2,0.8c0.2,0.2,0.5,0.1,0.7-0.1c0.3-0.2,0.6-0.4,0.8-0.6c0.3-0.3,0.7-0.6,1.1-0.9
		c0.1,0.3,0,0.5,0.2,0.7c0.5,0.5,1.1,0.5,1.6,0c0,0,0-0.1,0.1-0.1c0.1-0.1,0.3-0.1,0.3,0.1c0,0.3,0.3,0.4,0.5,0.4
		c0.7,0.2,1.2-0.2,1.6-0.6c0.2-0.1,0.3-0.3,0.5-0.4c0.1,0.1,0,0.2,0,0.2c-0.1,0.3,0,0.6,0.3,0.7c0.3,0.2,0.5,0,0.7-0.2
		c0.4-0.5,0.8-1,1.2-1.4c0.4-0.3,0.7-0.6,1.1-0.9c0.1-0.1,0.3-0.2,0.4-0.1c0.1,0.1,0,0.3-0.1,0.4c-0.3,0.4-0.7,0.8-1.2,0.9
		c-0.5,0.2-0.6,0.4-0.5,0.9c0.1,0.3,0.4,0.6,0.8,0.6c0.5,0,1-0.2,1.4-0.6c0.1-0.1,0.3-0.2,0.4,0c0.6,0.7,1.2,0.6,1.9,0.2
		c0.3-0.1,0.5-0.4,0.8-0.6c0.1-0.1,0.1-0.2,0.2-0.1c0.1,0.1,0,0.2,0,0.2c-0.1,0.2,0,0.4,0.2,0.5s0.4,0.1,0.6,0
		c0.1-0.1,0.2-0.2,0.3-0.3c0.7-0.8,1.5-1.5,2.3-2.1c0.1,0,0.1-0.1,0.2-0.1c0.1,0.1,0,0.2,0,0.2c0,0.1-0.1,0.2-0.2,0.2
		c-0.3,0.4-0.7,0.7-0.9,1.1c-0.1,0.3-0.2,0.6,0,0.9s0.5,0.3,0.8,0.2c0.3,0,0.6-0.1,0.9-0.4c0.2-0.2,0.4-0.2,0.6-0.1
		c0.3,0.1,0.6,0.3,1.1,0.3c-0.2,0.3-0.5,0.4-0.7,0.5c-0.5,0.3-0.9,0.6-1.3,1c-0.4,0.4-0.3,0.8,0.2,1.1c0.5,0.3,1,0,1.4-0.3
		c0.5-0.4,0.8-0.8,1.1-1.3c0.5-0.8,1.2-1.5,2.2-1.9c0.9-0.4,1.8-1,2.5-1.7c0.1-0.1,0.3-0.2,0.1-0.4c-0.1-0.1-0.3,0-0.4,0.1
		c-0.3,0.3-0.7,0.6-1,0.8c-0.5,0.3-0.9,0.6-1.5,0.7c0-0.1,0-0.2,0-0.2c0.4-0.4,0.7-0.9,1.1-1.3c0.2-0.2,0.2-0.4-0.1-0.4
		c-0.3-0.1-0.6-0.2-0.9,0.1c-0.1,0.1-0.3,0.1-0.4,0c-0.9-0.6-1.8,0.1-2.3,0.6c-0.7,0.7-1.1,1.6-2,2.2c-0.1,0.1-0.2,0.2-0.3,0.2
		s-0.1-0.2-0.1-0.4c0-0.1,0.1-0.2,0.2-0.3c0.5-0.5,0.9-1.1,1.5-1.6c0.2-0.2,0.2-0.3,0-0.5c-0.3-0.3-1.1-0.4-1.5-0.2
		c-0.5,0.2-0.9,0.6-1.3,0.9c-0.2,0.1-0.3,0.2-0.5,0.2c0.1-0.2,0.3-0.3,0.5-0.4c0.2-0.2,0.3-0.4,0.1-0.6s-0.5-0.1-0.7,0
		c-0.1,0-0.1,0.1-0.2,0.2c-0.5,0.7-1.2,1.2-1.8,1.8c-0.4,0.3-0.8,0.6-1.2,0.8c-0.1,0-0.2,0.1-0.2,0c-0.1-0.1,0-0.2,0-0.3
		c0.2-0.3,0.3-0.6,0.5-0.8c0.4-0.5,0.8-0.9,1.2-1.3c0.1-0.1,0.2-0.2,0-0.3c-0.2-0.2-1-0.2-1.2,0s-0.4,0.4-0.6,0.7
		c-0.6,0.7-1.1,1.4-2,1.8c-0.3,0.1-0.5,0.2-0.8,0.1c0-0.2,0.2-0.2,0.3-0.3c0.4-0.2,0.8-0.4,1.1-0.7c0.4-0.4,0.4-0.9,0.1-1.3
		c-0.3-0.3-0.8-0.4-1.2-0.1c-0.3,0.2-0.6,0.4-0.8,0.6c-0.1,0.1-0.2,0.2-0.3,0.1c-0.2-0.1,0-0.2,0-0.3c0.3-0.6,0.8-1,1.3-1.4
		c0.2-0.2,0.5-0.4,0.7-0.7c0.1-0.3,0-0.5-0.3-0.6c-0.2-0.1-0.4,0-0.5,0.1c-0.5,0.4-0.8,0.9-1.3,1.3c-0.5,0.5-1,1.1-1.4,1.7
		c-0.5,0.7-1.2,1.1-1.9,1.6c-0.1,0.1-0.3,0.2-0.4,0.1s0-0.3,0.1-0.4c0.2-0.4,0.5-0.7,0.8-1c0.3-0.2,0.1-0.3-0.1-0.4
		c-0.5-0.2-0.9-0.1-1.2,0.2c-0.4,0.3-0.9,0.7-1.2,1.1c-0.1,0.1-0.1,0.2-0.2,0.1s0-0.2,0-0.3c0.2-0.6,0.7-1,1.2-1.4
		c0.4-0.3,0.8-0.5,1.3-0.2c0.1,0.1,0.2,0.1,0.3-0.1c0.1-0.1,0-0.2-0.1-0.3c-0.4-0.4-1-0.4-1.5-0.3c-0.6,0.1-1,0.6-1.4,1
		c-0.6,0.7-1.4,1.1-2.2,1.5c0.3-0.5,0.7-0.9,1.1-1.4c0.6-0.7,1.2-1.2,1.9-1.8c0.3-0.2,0.2-0.4-0.1-0.5c-0.3-0.2-0.7-0.3-1.1-0.1
		c-0.5,0.3-1,0.6-1.6,0.9c-0.7,0.4-1.5,0.9-2.2,1.4c0,0-0.1,0.1-0.2,0c0.3-0.6,0.9-1,1.3-1.5c0.3-0.3,0.5-0.7,0.9-0.9
		c0.2-0.1,0.4-0.3,0.4-0.5s-0.3-0.3-0.6-0.3h-0.1c-0.5-0.1-0.9,0.2-1.3,0.4c-0.7,0.4-1.3,0.9-2,1.3C23,98.5,22.8,98.9,22.3,98.8
		L22.3,98.8z M94.8,12.4c-1.2,0.8-2.4,1.4-3.6,2.1c-1.7,0.9-3.3,1.9-5,2.9c-2.2,1.3-4.5,2.5-6.7,3.8c-1.4,0.8-2.9,1.7-4.3,2.5
		c-1.7,0.9-3.3,1.9-5,2.9c-1.3,0.8-2.6,1.5-3.9,2.3c-1.6,0.9-3.3,1.9-4.9,2.8c-1.9,1.1-3.7,2.2-5.6,3.2c-0.2,0.1-0.4,0.1-0.7,0
		c-1.2-0.8-2.4-1.5-3.6-2.2c-0.9-0.5-1.8-1.1-2.7-1.6c-1.7-1-3.3-2.2-5-3.2c-1.4-0.8-2.8-1.8-4.2-2.6c-0.7-0.5-1.5-0.9-2.2-1.3
		c-0.2-0.1-0.4-0.2-0.4,0.2c0,0.5,0,1.1,0.2,1.6c0.3,1.2,0.4,2.4,0.6,3.5c0.2,1.4,0.5,2.9,0.7,4.3c0.2,1.6,0.5,3.3,0.8,4.9
		c0.2,0.9,0.3,1.8,0.4,2.6c0,0.5,0.3,0.9,0.2,1.4c0,0.3-0.1,0.5-0.4,0.7c-2.5,1.3-5.1,2.7-7.6,4c-1.9,1-3.7,1.9-5.6,2.9
		c-2.6,1.3-5.1,2.7-7.7,4c-1.9,1-3.8,2-5.7,2.9c-0.2,0.1-0.5,0.2-0.5,0.5c0.1,0.2,0.4,0.1,0.6,0.1c0.1,0,0.1,0,0.2,0
		c1.1-0.1,2.2-0.2,3.2-0.2c2.4,0,4.9,0,7.3-0.2c1.6-0.1,3.3-0.2,5-0.2c2.3,0,4.6,0,6.9-0.1c1.9-0.1,3.8-0.1,5.7-0.1
		c0.7,0,0.7,0,0.7,0.7c0.1,0.9,0.2,1.8,0.3,2.7c0.1,0.8,0.2,1.6,0.3,2.3s0.3,1.4,0.3,2.1c0.1,1.1,0.3,2.2,0.5,3.3
		c0.2,1.3,0.3,2.7,0.6,4c0.2,1.1,0.3,2.1,0.4,3.2c0.2,1.3,0.4,2.6,0.6,3.9c0,0.1,0,0.2,0.2,0.2c0.2,0.1,0.2-0.1,0.2-0.2
		c0.5-0.7,1-1.4,1.5-2.1c2.1-2.8,4.2-5.6,6.2-8.4c1.3-1.8,2.6-3.6,4-5.4c1.6-2.1,3.1-4.2,4.7-6.4c0.1-0.1,0.2-0.3,0.4-0.3
		c0.6,0,1.1-0.1,1.7-0.2c1.7,0,3.4-0.1,5.1-0.2c2-0.2,3.9-0.3,5.9-0.3c0.8,0,1.6,0.1,2.4,0c1.4-0.1,2.7-0.3,4.1-0.3
		c0.4,0,0.8,0.1,1.2,0c1.3-0.1,2.7-0.3,4.1-0.3c2.5-0.1,5-0.1,7.4-0.3c1.8-0.1,3.6-0.3,5.4-0.3c0.9,0,1.8,0,2.7,0
		c0.4,0,0.9-0.1,1.3-0.1c0.1,0,0.2,0,0.2-0.2c0-0.1-0.1-0.2-0.2-0.2s-0.1,0-0.2,0c-2.7,0-5.3,0-8-0.2c-2.2-0.1-4.4-0.2-6.6-0.2
		c-2.1,0-4.3-0.1-6.4-0.2c-0.5,0-1,0-1.5-0.1c-1.6-0.1-3.2-0.2-4.8-0.2c-2.9-0.1-5.8,0-8.8-0.2c-2.1-0.1-4.3-0.1-6.4-0.2
		c-1.9-0.1-3.7,0.1-5.6-0.2c-0.4-0.1-0.8-0.2-1.2-0.2c-5,0.1-10.1-0.2-15.1-0.2c-0.2,0-0.4,0-0.5-0.2c0.1-0.1,0.2-0.2,0.3-0.2
		c0.6-0.5,1.3-0.9,1.9-1.3c2.5-1.7,5-3.4,7.5-5.1c3.2-2.2,6.4-4.3,9.6-6.5c2-1.3,3.9-2.6,5.8-4c2.6-1.8,5.2-3.5,7.8-5.3
		c1.4-0.9,2.7-1.9,4.1-2.8c1.2-0.8,2.4-1.6,3.6-2.4c1.8-1.2,3.6-2.4,5.3-3.6c0.4-0.3,0.8-0.6,1.3-0.8c0,0.2-0.1,0.3-0.1,0.4
		c-0.6,1-1.3,2-1.9,3c-1.6,2.7-3.2,5.2-4.9,7.8c-0.7,1.2-1.5,2.3-2.2,3.5c-0.1,0.2-0.2,0.3,0,0.4c0.2,0.1,0.2-0.1,0.3-0.2
		c0.6-0.7,1.1-1.4,1.7-2.1c2.1-2.7,4.2-5.3,6.3-8c0.9-1.2,1.8-2.4,2.7-3.5c1.1-1.3,2.1-2.6,3.2-3.9c1-1.3,2-2.6,3.1-3.8
		C94.2,13.6,94.7,13.2,94.8,12.4L94.8,12.4z M63.8,47.4c-0.2,0-0.2,0.1-0.2,0.2c-0.4,0.7-0.9,1.3-1.3,1.9c-0.3,0.4-0.5,0.8-0.8,1.3
		c-0.1,0.2-0.2,0.5,0.2,0.4c0.9-0.2,1.8-0.2,2.6-0.1c0.6,0.1,1.1,0.1,1.7,0.2c0.7,0,1.3,0.2,1.9,0.2c1.5,0,2.9,0,4.4-0.2
		c1.2-0.2,2.4-0.3,3.6-0.7c1.1-0.3,2.1-0.7,3.1-1.3c1.3-0.8,2.3-1.8,2.9-3.2c0.4-0.9,0.3-1.8-0.6-2.5c-0.5-0.4-1-0.5-1.6-0.6
		c-1.2-0.2-2.3-0.5-3.5-0.8c-0.4-0.1-0.9-0.3-1.2-0.6c-0.2-0.2-0.3-0.5-0.2-0.8c0.4-0.9,1.1-1.4,2-1.6c1.4-0.3,2.7-0.2,4.1,0.3
		c1.1,0.4,2,1,2.5,2c0.1,0.2,0.3,0,0.4-0.1c0.8-1.1,1.5-2.2,2.2-3.3c0.3-0.4,0.2-0.4-0.3-0.5c-2.2,0-4.4,0-6.7,0c-2.4,0-4.7,0-7,0.8
		c-1.7,0.6-3.5,1.1-4.9,2.3c-0.8,0.6-1.4,1.4-1.7,2.4c-0.1,0.5-0.1,1,0.2,1.5c0.4,0.7,1.2,1.1,1.9,1.4c1.1,0.4,2.2,0.7,3.3,1.1
		c0.5,0.2,0.9,0.4,1.3,0.7s0.4,0.6,0.1,1s-0.6,0.7-1.1,0.9c-1.3,0.7-2.7,0.7-4.2,0.4c-0.8-0.2-1.6-0.4-2.3-0.9
		C64.3,48.6,63.9,48.1,63.8,47.4L63.8,47.4z M97.2,50.8c0.2,0,0.2,0.1,0.3,0.1c1.5,0,3,0,4.4,0c0.2,0,0.4-0.1,0.4-0.4
		c0-0.2,0.1-0.5,0.2-0.7c0.5-0.9,1.1-1.6,1.8-2.3c0.1-0.1,0.3-0.2,0.5-0.2c1.8,0,3.7,0,5.6,0c0.3,0,0.5,0.2,0.4,0.5
		c-0.4,1.1-1,2.2-2.1,2.8c-0.1,0.1-0.2,0.1-0.2,0.3c0,0.1,0.2,0.1,0.3,0.1c0.1,0,0.2,0,0.2,0c3.5,0,7.1,0,10.6,0
		c0.1,0,0.3,0.1,0.4-0.1c0.1-0.2-0.1-0.3-0.2-0.4c-0.4-0.5-0.8-1.2-0.9-1.9c-0.2-1.5-0.3-3.1-0.2-4.7c0.1-0.8,0.2-1.7,0.3-2.5
		c0.2-1.1,0.5-2.2,1.1-3.2c0.2-0.4,0.2-0.5-0.3-0.5c-2.4,0-4.7,0.1-7.1,0c-0.2,0-0.3,0.1-0.2,0.3c0.1,0.4,0,0.8-0.2,1.1
		c-0.6,0.6-1.2,1.2-1.8,1.8c-2.6,2.2-5.2,4.3-7.9,6.3c-1.2,0.9-2.4,1.8-3.8,2.6C98.3,50.1,97.8,50.4,97.2,50.8L97.2,50.8z
		 M84.9,50.9c0.4,0,0.7,0,1,0c2.4,0,4.8,0,7.1,0c0.6,0,1.2,0.1,1.8,0c0.3,0,0.3-0.1,0.2-0.3c-0.1-0.1-0.1-0.2-0.2-0.3
		c-0.2-0.4-0.3-0.8,0-1.1c0.4-0.6,0.7-1.2,1.1-1.7c1.1-1.6,2.2-3.3,3.3-4.9c0.7-1,1.4-1.9,2.4-2.6c0.9-0.6,1.8-1,2.9-0.7
		c0.5,0.1,0.8,0.4,0.9,0.9c0.1,0.7,0.1,1.3,0,2c0,0.2-0.1,0.5,0,0.5c0.2,0.1,0.2-0.2,0.3-0.4c0.9-1.3,1.7-2.5,2.6-3.8
		c0.1-0.2,0.2-0.3,0.3-0.5c0.1-0.2,0-0.3-0.2-0.3c-0.3,0-0.5,0-0.8,0c-2.4,0-4.9,0-7.3,0c-2,0-3.9,0-5.9,0c-1.7,0-3.3,0-5,0
		c-0.4,0-0.8,0.1-1,0.5c-0.3,0.5-0.7,1.1-1,1.6c-0.5,0.8-1,1.5-1.5,2.2c-0.1,0.2-0.2,0.3-0.2,0.5c0.9-0.8,1.9-1.5,3-2.2
		c0.9-0.6,1.9-1.2,3.1-1.1c0.5,0,0.9,0.4,0.9,0.9c0,0.6-0.1,1.2-0.5,1.6c-0.6,0.7-0.9,1.6-1.4,2.3c-0.7,1-1.3,2-2,2.9
		c-1.1,1.4-2.2,2.8-3.8,3.7C84.9,50.6,84.9,50.7,84.9,50.9L84.9,50.9z M109.9,101c0.1,0.4-0.4,0.6-0.2,0.9c0.2,0.3,0.7,0.1,1,0.3
		c0.2,0.1,0.4,0.1,0.6,0c0.3-0.2,0.7-0.3,1-0.6c0.7-0.4,1.1-1,1.6-1.6c0.3-0.4,0.6-0.4,0.9-0.3s0.3,0.2,0.1,0.4
		c-0.2,0.2-0.4,0.4-0.5,0.7c-0.2,0.3-0.2,0.6,0.1,0.9c0.4,0.4,1.1,0.7,1.6,0.6s1-0.3,1.3-0.7c0.1-0.1,0.3-0.2,0.4,0
		c0.4,0.8,0.8,1,1.7,0.7c0.2-0.1,0.5-0.1,0.7,0c0.6,0.4,1.2,0.3,1.8,0c0.8-0.3,1.3-0.9,1.3-1.8c0-0.7,0-1.4,0.6-1.8
		c0.1-0.1,0.1-0.2,0.1-0.3c-0.1-0.1-0.2-0.2-0.3-0.1c-0.3,0-0.5,0.2-0.7,0.3c-0.3,0.3-0.6,0.6-0.9,0.9c-0.6,0.5-1.1,1-1.7,1.5
		c-0.4,0.3-0.7,0.7-1.2,1c-0.1,0.1-0.3,0.1-0.4,0s0-0.2,0-0.4c0.2-0.4,0.4-0.7,0.7-1.1c0.8-1,1.7-2,2.6-2.9c0.2-0.2,0.2-0.4-0.1-0.5
		c-0.3-0.2-0.6-0.1-0.9,0.1c-0.8,0.8-1.6,1.6-2.3,2.4c-0.8,0.9-1.7,1.6-2.8,2.1c-0.2,0.1-0.5,0.1-0.8,0.1c-0.2,0-0.3-0.2-0.3-0.3
		s0-0.4,0.2-0.4c0.3,0,0.4-0.2,0.7-0.2c0.7-0.2,1.3-0.6,1.8-1.2c0.2-0.3,0.1-0.6-0.2-0.7c-0.5-0.2-1-0.2-1.5,0.1
		c-0.4,0.3-0.8,0.4-1.3,0.1c-0.6-0.4-1-0.3-1.4,0.2s-0.8,0.9-1.2,1.4c-0.4,0.4-0.8,0.8-1.3,1c-0.1,0-0.2,0.1-0.2,0
		c-0.1-0.1,0-0.2,0-0.2c0.1-0.2,0.2-0.4,0.4-0.6c0.4-0.5,0.9-1,1.3-1.6c0.1-0.1,0.3-0.2,0.1-0.4c-0.2-0.2-0.8-0.2-1,0
		c-1,0.9-2,1.9-3.2,2.6c-0.2,0.1-0.4,0.2-0.6,0.1c-0.2-0.2,0-0.4,0.1-0.6c0.3-0.6,0.8-0.9,1.3-1.3c0.1-0.1,0.3-0.1,0.2-0.3
		c-0.1-0.1-0.2-0.2-0.3-0.2c-0.3,0-0.6-0.1-0.9-0.1c0.1-0.2,0.2-0.3,0.4-0.4c0.1-0.1,0.2-0.2,0.2-0.3c0-0.1-0.2-0.2-0.3-0.2
		c-0.6-0.1-1.1,0.2-1.4,0.6c-0.1,0.2-0.3,0.3-0.1,0.6c0.1,0.1,0,0.3-0.1,0.4c-0.7,0.6-1.4,1.3-2.2,1.8c-0.1,0.1-0.2,0.2-0.3,0
		c-0.1-0.1-0.1-0.2,0-0.3c0.2-0.3,0.4-0.7,0.7-1c0.2-0.2,0.2-0.3,0-0.5s-0.4-0.2-0.6-0.1c-0.4,0.1-0.8,0.3-1.1,0.7
		c-0.2,0.2-0.5,0.5-0.7,0.7c-0.1,0.1-0.1,0.2-0.2,0.1s-0.1-0.2,0-0.3c0-0.1,0.1-0.2,0.1-0.2c0.4-0.5,0.8-0.9,1.2-1.2
		c0.3-0.2,0.7-0.5,1.1-0.1c0.1,0.1,0.1,0.1,0.2,0s0.1-0.1,0-0.2s-0.1-0.3-0.3-0.3c-0.6-0.3-1.5-0.2-2,0.2c-0.6,0.5-1.1,1.2-1.8,1.6
		c-0.3,0.2-0.6,0.4-0.9,0.6c0.2-0.4,0.4-0.8,0.7-1.1c0.7-0.8,1.4-1.5,2.2-2.2c0.3-0.2,0.2-0.4-0.1-0.5c-0.5-0.2-0.9-0.2-1.4,0.1
		c-1.1,0.7-2.1,1.3-3.2,2c-0.2,0.1-0.3,0.3-0.6,0.4c0.3-0.6,1.8-2.1,2.3-2.5c0.2-0.1,0.4-0.2,0.4-0.5c-0.1-0.3-0.4-0.3-0.6-0.4
		s-0.4,0-0.6,0.1c-0.9,0.4-1.7,1-2.6,1.5c-0.3,0.2-0.7,0.4-1,0.6c0-0.3,0.2-0.4,0.3-0.5c0.4-0.3,0.7-0.7,1.1-1.1
		c0.6-0.6,0.5-1.1-0.2-1.4c-0.2-0.1-0.5-0.2-0.8-0.2c-1,0-1.9,0.1-2.9,0.3c-1.1,0.2-2.2,0.8-3.4,0.5c0,0-0.3,0-0.2,0.2
		c0.2,0.4,1,0.8,1.4,0.6c0.5-0.1,1-0.3,1.4-0.4c1.1-0.2,2.2-0.8,3.3-0.8c0.2,0,0.4-0.1,0.5,0.1s-0.1,0.3-0.2,0.5l-0.1,0.1
		c-0.7,0.6-1.3,1.2-2,1.8c-0.8,0.7-1.3,1.6-1.9,2.3c-0.2,0.2-0.4,0.4-0.5,0.8c0,0.2-0.1,0.3,0.1,0.5c0.4,0.3,0.8,0.3,1.1-0.2
		c0.5-0.7,1.2-1.2,1.8-1.7c1-0.8,2.1-1.5,3.2-2.3c0.1-0.1,0.2-0.2,0.5-0.2c-0.1,0.2-0.2,0.3-0.3,0.4c-0.7,0.5-1.2,1.2-1.8,1.8
		c-0.4,0.4-0.8,0.8-1,1.4c-0.1,0.3-0.1,0.6,0.2,0.8c0.4,0.3,0.7,0.2,1-0.1c0.7-0.8,1.5-1.5,2.3-2.1c0.7-0.6,1.4-1.1,2.2-1.4
		c-0.3,0.4-0.6,0.7-1,1c-0.7,0.7-1.2,1.4-1.7,2.3c-0.1,0.2-0.1,0.3,0.1,0.5c0.3,0.4,0.6,0.4,1,0.1c0.5-0.4,1.1-0.7,1.6-1.2
		c0.1-0.1,0.1-0.2,0.2-0.1c0.1,0,0.1,0.2,0.1,0.2c0,0.2,0,0.4,0.2,0.5c0.5,0.3,0.9,0.5,1.4,0.1c0.1-0.1,0.2-0.2,0.4,0
		c0.6,0.6,1.4,0.3,1.9-0.1s1-0.8,1.4-1.3c0.2-0.2,0.5-0.4,0.8-0.7c0.1-0.1,0.2-0.2,0.3-0.1c0.1,0.1-0.1,0.2-0.1,0.2
		c-0.4,0.4-0.8,0.7-1,1.2c-0.1,0.2-0.1,0.3,0,0.4c0.5,0.6,1.5,0.7,2.2,0.3C109,101.7,109.5,101.4,109.9,101L109.9,101z M68.3,101.4
		c0-0.1,0-0.3,0-0.4c0.4-0.7,1-1.3,1.7-1.7c0.2-0.1,0.5-0.2,0.7,0c0.2,0.1,0.4,0.2,0.4,0c0.1-0.1-0.1-0.3-0.2-0.4
		c-0.6-0.3-1.1-0.3-1.7-0.1c-0.6,0.2-1,0.7-1.3,1.2c-0.3,0.4-0.6,0.9-1.2,1.1c-0.5,0.2-1,0.6-1.6,0.6c-0.4,0-0.5-0.2-0.4-0.5
		c0.1-0.2,0.2-0.3,0.4-0.4c0.4-0.1,0.8-0.2,1.1-0.4c0.4-0.2,0.8-0.5,1.1-1c0.2-0.3,0.1-0.5-0.2-0.7c-0.6-0.3-1.1-0.2-1.5,0.2
		c-0.6,0.4-1.1,0.9-1.5,1.5c-0.4,0.5-0.8,0.8-1.4,1c-0.2,0.1-0.4,0.1-0.5-0.1c-0.1-0.1,0-0.3,0.1-0.4c0.3-0.6,0.8-0.9,1.3-1.2
		c0.1-0.1,0.4-0.2,0.4-0.4c-0.1-0.2-0.3-0.2-0.6-0.2c-0.1,0-0.3,0-0.4,0c-0.1,0-0.3,0.2-0.3,0c-0.1-0.2,0.1-0.2,0.2-0.3
		c0.1,0,0.1-0.1,0.2-0.1c0.1-0.1,0.2-0.2,0.2-0.4c0-0.2-0.2-0.2-0.4-0.2c-0.6,0-1.1,0.3-1.5,0.8c-0.2,0.4-0.1,0.6,0.3,0.7
		c0.1,0,0.2,0,0.3,0.1c0,0.1-0.1,0.2-0.2,0.3c-0.3,0.3-0.6,0.5-0.8,0.9c-0.3,0.5-0.2,0.8,0.2,1.1c0.2,0.1,0.4,0.2,0.7,0.2
		c0.7,0.1,1.2-0.3,1.7-0.7c0.1-0.1,0.2-0.2,0.4-0.1c1.1,0.9,1.6,0.9,2.8,0.1c0.2-0.2,0.4-0.1,0.6,0.1c0.6,0.6,1.1,0.6,1.5-0.1
		c0.1-0.1,0.1-0.1,0.2-0.1s0.1,0.1,0.1,0.2c0,0.2,0.1,0.3,0.2,0.4c0.5,0.2,1.4,0.2,1.8-0.3c0.2-0.2,0.4-0.3,0.5-0.5
		c0.1-0.1,0.2-0.2,0.2-0.1c0.1,0.1,0,0.2,0,0.2c-0.1,0.4,0.3,0.9,0.7,0.9c0.5-0.1,1.1-0.1,1.4-0.6c0.2-0.2,0.4-0.2,0.6,0
		s0.3,0.3,0.6,0.4c0.5,0.2,1,0.1,1.5,0c0.2-0.1,0.5-0.2,0.6,0c0.7,0.5,1.4,0.3,2.2,0c0.6-0.2,1-0.7,1-1.3c0.1-0.8,0-1.6,0.8-2.2
		c0.2-0.2,0.1-0.3-0.2-0.3c-0.3,0-0.5,0.1-0.7,0.3c-0.4,0.3-0.6,0.8-1,1.1c-0.6,0.6-1.2,1.1-1.9,1.6c-0.5,0.3-1,0.6-1.6,0.6
		c-0.2,0-0.4,0-0.4-0.3c0-0.2,0-0.4,0.3-0.5c0.8-0.2,1.5-0.6,2.1-1.2c0.2-0.2,0.4-0.4,0.3-0.7s-0.4-0.4-0.7-0.4
		c-0.9-0.1-1.5,0.4-2,1c-0.7,0.8-1.3,1.6-2.2,2.1c-0.1,0.1-0.3,0.2-0.4,0.1s0-0.2,0.1-0.4c0.5-0.9,1.3-1.7,2-2.6
		c0.3-0.4,0.6-0.8,1.2-0.9c0.3-0.1,0.6-0.1,0.9-0.2c0.1,0,0.2-0.1,0.2-0.2s-0.1-0.2-0.2-0.2c-0.2,0-0.4-0.1-0.5-0.2
		c-0.5-0.5-0.8-0.5-1.3,0.1c-0.4,0.5-0.9,0.8-1.5,0.9c-0.1,0-0.2,0.1-0.2,0.2c0.1,0.1,0.2,0.1,0.3,0.1c0.2,0,0.2,0.2,0.1,0.3
		c-0.6,0.6-0.9,1.4-1.7,1.8c-0.5,0.3-0.8,0.7-1.3,1c-0.1,0.1-0.2,0.2-0.3,0.1c-0.1-0.1-0.1-0.2,0-0.3c0.2-0.4,0.4-0.8,0.8-1.1
		c0.1-0.1,0.2-0.2,0.2-0.3c-0.1-0.1-0.2-0.2-0.3-0.3c-0.2,0-0.4,0-0.6,0.1c-0.6,0.2-1,0.6-1.4,1.1C68.8,101.1,68.7,101.4,68.3,101.4
		L68.3,101.4z M57.4,101.5c0,0.2-0.1,0.3-0.2,0.4c-0.9,1.2-2,2.2-3.3,3.1c-0.4,0.3-1,0.5-1.5,0.6c-0.3,0.1-0.6,0-0.8-0.3
		c-0.2-0.2,0-0.5,0.1-0.8c0-0.1,0.1-0.1,0.1-0.2s0.1-0.2,0-0.3c-0.1-0.1-0.2,0-0.3,0c-0.1,0.1-0.3,0.1-0.4,0.2
		c-0.4,0.2-0.6,0.4-0.6,0.9c0,0.4,0.3,0.6,0.6,0.8c0.7,0.3,1.4,0.2,2.1,0.1c1-0.2,1.7-0.7,2.5-1.3c1-0.8,1.9-1.7,2.7-2.7
		c0.7-0.8,1.3-1.6,1.9-2.5c0.1-0.1,0.3-0.2,0.2-0.4c-0.1-0.2-0.3-0.2-0.5-0.3c-0.2,0-0.4,0.1-0.6,0.2c-0.3,0.3-0.6,0.5-0.9,0.8
		c-0.8,0.6-1.6,1.1-2.5,1.7c-0.6,0.4-1.1,0.7-1.8,0.7c-0.3,0-0.4-0.1-0.4-0.4s0.2-0.5,0.3-0.7c1.2-1.6,2.6-3,4.3-4
		c0.2-0.1,0.5-0.3,0.7-0.4c0.1-0.1,0.3-0.1,0.4,0s0,0.3,0,0.4s-0.1,0.2-0.2,0.3c-0.4,0.4-0.8,0.8-1.3,1.1c-0.4,0.2-0.7,0.5-1.1,0.7
		c-0.1,0-0.2,0.1-0.2,0.2s0.1,0.1,0.1,0.1c0.5,0,0.9,0,1.3-0.2c0.6-0.3,1.2-0.8,1.7-1.3c0.4-0.5,0.5-1,0.2-1.4
		c-0.1-0.6-1-0.8-1.5-0.6c-1.2,0.5-2.3,1.3-3.2,2.2c-0.9,0.8-1.8,1.7-2.2,2.8c-0.1,0.4-0.2,0.8,0.1,1.1c0.4,0.4,0.8,0.6,1.4,0.5
		c0.7-0.2,1.4-0.4,2-0.8C56.8,101.7,57.1,101.5,57.4,101.5L57.4,101.5z M100.4,91c0.5,0.5,0.7,1.2,1,1.7c0.3,0.6,0.3,0.6,1,0.6
		c0.3,0,0.5-0.2,0.4-0.5c0-0.2,0-0.4,0-0.6c0.1-1-0.1-2,0.2-3c0.1-0.5,0-0.7-0.6-0.6c-0.2,0-0.4,0-0.6,0c-0.3,0-0.4,0.1-0.4,0.4
		c0,0.2,0.1,0.3,0.1,0.5c0.1,0.3,0.1,0.6,0.1,0.8c0,0.1-0.1,0.2-0.2,0.2c-0.1,0.1-0.2,0-0.2-0.1c-0.3-0.4-0.5-0.8-0.6-1.3
		c-0.1-0.3-0.3-0.5-0.7-0.5c-0.2,0-0.5,0-0.7,0c-0.4,0-0.5,0.1-0.3,0.4c0.2,0.4,0.3,0.9,0.2,1.3c0,0.8,0,1.7-0.3,2.5
		c-0.1,0.3,0,0.4,0.3,0.4s0.5,0,0.8,0c0.6,0,0.8-0.2,0.5-0.8c0-0.1-0.1-0.2-0.1-0.3C100.3,91.9,100.4,91.4,100.4,91L100.4,91z
		 M71.1,90.8c0.4,0.6,0.8,1.2,1.1,1.9c0.2,0.5,0.5,0.6,1,0.6c0.3,0,0.4-0.1,0.4-0.4c0-0.4,0-0.7,0-1.1c0.1-0.9-0.1-1.8,0.2-2.6
		c0.2-0.4,0-0.6-0.5-0.6c-0.2,0-0.5,0-0.7,0c-0.5,0-0.7,0.2-0.4,0.7c0.2,0.5,0.3,1,0.2,1.5c0,0.1,0,0.2-0.2,0.2
		c-0.3-0.7-0.7-1.3-1-1.9c-0.1-0.3-0.4-0.4-0.7-0.4c-0.2,0-0.3,0-0.5,0c-0.5,0-0.6,0.1-0.4,0.6c0.3,1.2,0.4,2.3,0,3.5
		c0,0.1,0,0.3,0,0.4s0,0.2,0.2,0.2c0.4,0,0.9,0,1.3,0c0.2,0,0.3-0.3,0.2-0.5c-0.1-0.1-0.1-0.2-0.2-0.4C71,91.8,71.1,91.3,71.1,90.8
		L71.1,90.8z M47.2,93.1L47.2,93.1c0.2,0,0.4,0,0.6,0c0.3,0,0.4-0.1,0.3-0.4S48,92.1,48,91.8c0-0.7,0-0.7,0.7-0.7
		c0.5,0,0.5,0.1,0.5,0.6c-0.1,0.4-0.2,0.7-0.3,1.1c0,0.2,0,0.3,0.2,0.4c0.5,0,0.9,0.1,1.4,0c0.2,0,0.3-0.1,0.2-0.3
		c-0.3-0.9-0.2-1.9-0.2-2.8c0-0.2,0-0.3,0.1-0.5c0.1-0.3,0.5-0.5,0.2-0.8c-0.2-0.2-0.6-0.1-0.9-0.1c-0.7,0-1,0.3-0.8,1
		s0.1,0.8-0.7,0.8c-0.3,0-0.4-0.1-0.3-0.4c0-0.3,0.1-0.6,0.2-0.9c0-0.2,0.1-0.3-0.2-0.4c-0.4,0-0.8-0.2-1.2-0.1
		c-0.3,0-0.4,0.1-0.3,0.5c0.3,1.2,0.4,2.4,0,3.6c-0.2,0.5-0.1,0.5,0.4,0.5C47,93.1,47.1,93.1,47.2,93.1L47.2,93.1z M37.2,90.9
		c-0.4-0.7-0.7-1.4-1-2c-0.1-0.2-0.2-0.4-0.5-0.4s-0.5,0-0.8,0s-0.4,0.1-0.3,0.4c0.2,1.2,0.4,2.5,0,3.7c-0.1,0.2,0,0.4,0.3,0.4
		s0.7,0,1,0c0.4,0,0.5-0.1,0.3-0.5c0-0.2-0.1-0.3-0.2-0.5c-0.2-0.4-0.1-0.9-0.1-1.3c0.5,0.6,0.9,1.2,1.1,2c0.1,0.3,0.6,0.5,1.1,0.4
		c0.4-0.1,0.3-0.3,0.3-0.6c0.1-1.2-0.2-2.3,0.2-3.5c0-0.1,0-0.2,0-0.4c0-0.1,0-0.2-0.1-0.2c-0.5,0-0.9-0.1-1.4,0.1
		C37,88.7,36.9,88.7,37,89C37.3,89.5,37.3,90.2,37.2,90.9L37.2,90.9z M114.7,88.6c-0.4,0-0.7,0-1.1,0c-0.3,0-0.4,0.2-0.3,0.4
		c0.4,0.8,0.3,1.6,0.3,2.3c0,0.4-0.1,0.8-0.3,1.2c-0.2,0.4,0,0.7,0.4,0.7c0.2,0,0.5,0,0.7,0c0.7,0,0.8-0.1,0.5-0.8
		c-0.1-0.3-0.2-0.5-0.2-0.8c0-0.2,0.1-0.3,0.4-0.3c0.6,0,0.7,0.2,0.7,0.9c0,1.3-0.2,1.1,1.2,1.1h0.1c0.1,0,0.2-0.1,0.2-0.2
		c-0.1-0.6-0.2-1.3-0.5-1.8c-0.1-0.2-0.2-0.4,0-0.4c0.4-0.3,0.3-0.7,0.3-1c0-0.6-0.1-0.7-0.7-1C115.9,88.5,115.3,88.6,114.7,88.6
		L114.7,88.6z M52.8,88.5L52.8,88.5c-0.4,0-0.8,0-1.1,0s-0.4,0.1-0.3,0.4c0.3,0.7,0.2,1.3,0.3,2c0,0.6,0,1.2-0.2,1.8
		c-0.1,0.2,0,0.4,0.3,0.4c0.4,0,0.8,0,1.1,0s0.4-0.2,0.3-0.5C53.1,92.3,53,92,53,91.7c0-0.2-0.1-0.5,0.3-0.5c0.5,0,0.7,0.1,0.7,0.5
		c0,0.3,0,0.7,0,1s0.1,0.3,0.3,0.4c0.3,0,0.7,0,1,0c0.2,0,0.3-0.1,0.2-0.3c-0.2-0.6-0.2-1.2-0.5-1.7c-0.1-0.2,0-0.3,0-0.5
		c0.6-1,0.2-1.9-1-2.1C53.6,88.5,53.2,88.5,52.8,88.5L52.8,88.5z M23.3,88.4c-0.1,0-0.3,0-0.5,0s-0.3,0-0.5,0
		c-0.5,0-0.6,0.1-0.4,0.6c0.2,0.4,0.2,0.9,0.2,1.4c0,0.8,0.1,1.6-0.2,2.3c-0.1,0.2,0,0.3,0.3,0.3c0.4,0,0.7,0,1.1,0.1
		c0.5,0,0.5-0.1,0.4-0.6c-0.1-0.3-0.2-0.7-0.2-1c0-0.1,0-0.2,0.2-0.3c0.4-0.1,0.8,0.2,0.9,0.6c0,0.3,0,0.5,0,0.8
		c0,0.1,0,0.3,0.1,0.3c0.4,0.2,0.8,0.1,1.2,0c0.1,0,0.1-0.1,0.1-0.2c-0.1-0.6-0.2-1.2-0.5-1.8c-0.1-0.2-0.1-0.2,0-0.4
		c0.7-0.8,0.4-1.9-0.7-2.1C24.3,88.4,23.8,88.4,23.3,88.4L23.3,88.4z M119.9,93.3c0.3,0,0.7,0,1,0c0.7,0,1-0.4,1-1
		c0-0.1,0-0.3-0.1-0.4c-0.4-0.3-0.9-0.3-1.1,0.1c-0.2,0.3-0.6,0.4-0.9,0.3c-0.4-0.1-0.3-0.5-0.3-0.8s0.1-0.4,0.4-0.3
		c0.3,0,0.6,0,0.9,0s0.3-0.2,0.3-0.5c0-0.2-0.2-0.3-0.3-0.3c-0.3,0-0.6,0-0.9,0c-0.2,0-0.3-0.1-0.3-0.3c0-0.2-0.2-0.5,0.2-0.6
		c0.3-0.1,0.6-0.1,0.9,0.2c0.2,0.3,0.8,0.4,1.1,0.3c0.3-0.2,0.1-0.5,0.2-0.7c0-0.2,0-0.3,0-0.5s-0.1-0.2-0.3-0.2c-1,0-2.1,0-3.1,0.1
		c-0.2,0-0.4-0.1-0.5,0.2c-0.1,0.2,0,0.4,0.1,0.6c0.1,0.1,0.2,0.3,0.2,0.5c-0.1,1,0.2,2.1-0.3,3.1c-0.2,0.3,0,0.4,0.3,0.4
		C118.8,93.3,119.4,93.3,119.9,93.3L119.9,93.3z M96.3,93.3L96.3,93.3c0.4,0,0.8,0,1.1,0c0.9,0,0.9,0,0.9-0.9c0-0.2,0.1-0.6-0.2-0.7
		c-0.3-0.1-0.7,0-0.9,0.2C97.1,92,97,92.1,97,92.2c-0.2,0.2-0.8,0.2-1,0c-0.2-0.5,0-0.9,0.6-0.9c0.2,0,0.3,0,0.4,0
		c0.3,0,0.5,0,0.5-0.3s-0.2-0.4-0.5-0.4c-0.2,0-0.5,0-0.7,0S96,90.5,96,90.3c0-0.2-0.1-0.5,0.1-0.6c0.2-0.2,0.8,0,1,0.2
		s0.9,0.4,1.1,0.3c0.1-0.1,0.1-0.1,0.1-0.2c0-0.3,0-0.7,0-1c0-0.2-0.1-0.3-0.3-0.3c-1.1,0.1-2.2,0-3.2,0c-0.4,0-0.5,0.2-0.3,0.6
		c0.2,0.3,0.2,0.7,0.2,1.1c0,0.9,0,1.7-0.3,2.6c-0.1,0.4,0.1,0.5,0.4,0.5C95.4,93.3,95.9,93.3,96.3,93.3L96.3,93.3z M89.4,90.9
		L89.4,90.9c0-0.3,0-0.6,0-0.9c0-0.7-0.3-1.2-1.1-1.3c-0.8-0.2-1.7-0.1-2.6-0.1c-0.3,0-0.3,0.2-0.3,0.5c0.1,0.3,0.3,0.5,0.3,0.8
		c0,0.9,0.2,1.9-0.2,2.8c-0.2,0.3,0,0.6,0.3,0.6c0.8,0,1.6,0.1,2.4-0.1c0.7-0.1,1.1-0.6,1.1-1.3C89.4,91.5,89.4,91.2,89.4,90.9
		L89.4,90.9z M84.2,93.2c0.2,0,0.4,0,0.7,0c0.3,0,0.4-0.2,0.4-0.4c0-0.1-0.1-0.3-0.1-0.4c-0.2-0.4-0.3-0.8-0.4-1.3
		c-0.2-0.7-0.3-1.5-0.5-2.2c-0.1-0.2-0.2-0.3-0.4-0.3c-0.4,0-0.9,0-1.3,0c-0.2,0-0.3,0.1-0.3,0.3c-0.1,0.4-0.2,0.9-0.3,1.3
		c-0.2,0.8-0.4,1.6-0.7,2.4c-0.2,0.4-0.1,0.5,0.3,0.6c0.3,0,0.5,0,0.8,0c0.7,0,0.6-0.1,0.5-0.7c0-0.2-0.3-0.3-0.2-0.5
		c0.1-0.2,0.4-0.1,0.6-0.1c0.4-0.1,0.5,0,0.4,0.4C83.3,92.9,83.6,93.2,84.2,93.2L84.2,93.2z M111.3,90.8c0,0.2,0,0.3,0,0.5
		s0,0.3,0,0.5s-0.1,0.4-0.3,0.4c-0.6,0.1-0.8-0.1-0.8-0.7c0-0.8-0.1-1.7,0.2-2.5c0.1-0.1,0-0.2,0-0.4c0-0.2-0.1-0.3-0.2-0.2
		c-0.4,0-0.8,0-1.2,0c-0.4,0-0.5,0.2-0.3,0.5s0.2,0.6,0.2,0.9c0.1,0.7,0.1,1.3,0.1,1.9s0.3,1.1,0.9,1.3c0.3,0.1,0.6,0.1,0.9,0.1
		c0.8-0.1,1.5-0.3,1.6-1.5c0-0.9,0-1.8,0.2-2.7c0.1-0.6,0-0.6-0.6-0.6c-0.1,0-0.2,0-0.4,0c-0.5,0-0.7,0.2-0.4,0.6
		C111.3,89.8,111.2,90.3,111.3,90.8L111.3,90.8z M75.9,90.8L75.9,90.8c0-0.3,0-0.6,0-0.9s0.1-0.5,0.4-0.6s0.5,0,0.6,0.3
		c0.2,0.4,0.5,0.4,0.8,0.3c0.4-0.1,0.3-0.3,0.3-0.6c0-0.1,0-0.2,0-0.3c0-0.3-0.1-0.4-0.4-0.5c-0.8-0.2-1.5-0.2-2.3-0.1
		c-0.4,0.1-0.7,0.3-0.8,0.8c-0.1,1-0.1,2,0,3c0.1,0.3,0.2,0.5,0.5,0.7c0.6,0.4,1.2,0.4,1.9,0.2c1.1-0.2,1.1-0.3,1-1.3
		c0-0.1,0-0.2,0-0.3c0-0.6-0.3-0.9-0.8-0.9c-0.1,0-0.2,0-0.2,0c-0.5,0-0.7,0.2-0.4,0.7c0.1,0.1,0.2,0.2,0.3,0.4
		c0.1,0.2,0.1,0.3-0.1,0.4s-0.4,0.2-0.7,0.1c-0.2-0.1-0.2-0.3-0.2-0.5C75.9,91.5,75.9,91.1,75.9,90.8L75.9,90.8z M124.4,93.4
		c0.3,0,0.5,0,0.8-0.1c0.7-0.2,1.1-0.7,1.1-1.5c0-0.6-0.4-1-1.1-1.2c-0.3-0.1-0.7-0.2-1-0.3c-0.1-0.1-0.3-0.2-0.3-0.4
		c0-0.2,0.1-0.3,0.2-0.3c0.4-0.2,0.8-0.1,0.9,0.3c0,0.2,0.1,0.3,0.3,0.2c0.3-0.1,0.6,0.2,0.9,0c0,0,0.1-0.1,0-0.1
		c0-0.3,0.1-0.6,0-0.8c0-0.1-0.1-0.2-0.2-0.3c-0.7-0.4-1.4-0.4-2.2-0.3c-0.5,0.1-0.9,0.3-1.1,0.9s0,1,0.5,1.4
		c0.2,0.2,0.4,0.2,0.6,0.3c0.3,0.1,0.7,0.2,0.9,0.4c0.2,0.2,0.3,0.4,0.1,0.7c-0.2,0.2-0.5,0.3-0.8,0.1c-0.1-0.1-0.2-0.3-0.3-0.4
		c-0.1-0.2-0.9-0.3-1.1-0.1c-0.2,0.2-0.1,1.1,0.2,1.2C123.3,93.3,123.8,93.4,124.4,93.4L124.4,93.4z M20.5,93.1c0.2,0,0.5-0.1,0.7,0
		c0.4,0,0.4-0.2,0.3-0.5c-0.5-1.1-0.7-2.3-1-3.5c-0.1-0.4-0.2-0.6-0.7-0.6c-0.3,0-0.5,0-0.8,0c-0.5-0.1-0.6,0.1-0.7,0.6
		c-0.2,1.2-0.5,2.5-1,3.6c-0.1,0.3,0,0.4,0.3,0.4s0.6,0,1-0.1c0.5,0,0.6-0.2,0.3-0.6c0-0.1-0.1-0.2-0.2-0.3c-0.1-0.1,0-0.3,0.1-0.3
		c0.3-0.1,0.6-0.1,0.8,0c0.2,0.1,0.1,0.4,0,0.6C19.7,93.1,19.7,93.1,20.5,93.1L20.5,93.1z M10.6,93.1c0.7,0,1.1-0.1,1.5-0.4
		c0.5-0.4,0.6-1.4,0.2-1.8c-0.4-0.4-0.9-0.7-1.5-0.7c-0.4,0-0.7-0.4-0.7-0.6s0.4-0.4,0.7-0.4c0.2,0,0.3,0.2,0.4,0.4
		c0.2,0.3,1,0.5,1.2,0.2c0.3-0.3,0.1-1.1-0.4-1.2c-0.6-0.2-1.1-0.3-1.7-0.2c-0.4,0.1-0.8,0.2-1.1,0.5c-0.5,0.5-0.4,1.4,0.2,1.8
		c0.4,0.3,0.9,0.4,1.4,0.5c0.3,0.1,0.5,0.3,0.5,0.7c0,0.3-0.2,0.3-0.4,0.3c-0.3,0-0.6-0.1-0.7-0.4c0-0.2-0.2-0.3-0.4-0.3
		s-0.4,0-0.5,0c-0.2,0-0.3,0.1-0.4,0.3c-0.1,0.8,0.1,1,0.8,1.2C10,93.1,10.3,93.2,10.6,93.1L10.6,93.1z M92,92.1
		c-0.2-0.2-0.1-0.3-0.1-0.4c-0.1-0.9-0.6-1.8-0.2-2.8c0.1-0.2-0.1-0.3-0.3-0.3c-0.4,0-0.8,0-1.1,0c-0.5,0-0.6,0.1-0.4,0.6
		c0.4,1,0.7,2,0.8,3.1c0.2,1,0.2,1,1.2,1c0.9,0,0.9,0,1.1-0.9c0.2-1,0.3-2.1,0.8-3.1c0.1-0.1,0.1-0.2,0.1-0.4c0-0.2,0-0.4-0.3-0.3
		c-0.3,0-0.6,0-0.9,0c-0.4,0-0.5,0.1-0.4,0.5C92.8,90.1,92.3,91.1,92,92.1L92,92.1z M105.8,88.6L105.8,88.6c-0.6,0-1.1,0-1.7,0
		c-0.3,0-0.4,0.1-0.4,0.4c0,0.4,0,0.8,0.1,1.1c0,0.3,0.2,0.4,0.5,0.4s0.5-0.1,0.5-0.4c0-0.2,0.1-0.3,0.1-0.4s0.1-0.2,0.3-0.2
		c0.1,0,0.1,0.2,0.1,0.3c0,1,0.2,2-0.2,3c0,0.1,0,0.1,0,0.2c0,0.3,0.1,0.4,0.4,0.4s0.7,0,1,0c0.4,0,0.6-0.2,0.4-0.5
		c-0.4-1-0.1-2-0.2-3c0-0.1,0-0.2,0.1-0.2s0.2,0.1,0.3,0.2c0.1,0.2,0.1,0.3,0.1,0.5c0.1,0.4,0.4,0.3,0.7,0.3s0.3-0.2,0.3-0.4
		c0-0.4,0-0.8,0-1.1c0-0.3-0.2-0.4-0.5-0.4C107,88.6,106.4,88.6,105.8,88.6L105.8,88.6z M15.2,88.4L15.2,88.4c-0.6,0-1.2,0-1.8,0
		c-0.3,0-0.4,0.1-0.4,0.4s0.1,0.7,0.1,1c0,0.5,0.1,0.6,0.6,0.4c0.3-0.1,0.4-0.2,0.5-0.5c0-0.1,0-0.4,0.2-0.3c0.2,0,0.2,0.2,0.2,0.4
		c0,1,0,1.9-0.3,2.9c-0.1,0.3,0,0.4,0.3,0.4c0.4,0,0.8,0.1,1.2,0c0.2,0,0.4-0.1,0.3-0.4c-0.3-0.9-0.2-1.9-0.2-2.9
		c0-0.1,0-0.3,0.2-0.3c0.2,0,0.2,0.1,0.3,0.3c0,0.1,0,0.2,0,0.2c0,0.3,0.2,0.4,0.5,0.4s0.5-0.1,0.5-0.4s0-0.7,0-1.1
		c0-0.3-0.1-0.4-0.4-0.4C16.4,88.4,15.8,88.4,15.2,88.4L15.2,88.4z M42.9,88.5c-0.3,0-0.7,0-1,0c-0.2,0-0.4,0.1-0.4,0.3
		c0,0.4,0,0.8,0,1.2c0,0.2,0.1,0.3,0.3,0.3c0.5,0,0.6-0.1,0.7-0.7c0-0.1,0-0.3,0.2-0.3s0.2,0.2,0.2,0.3v0.1c0,0.9,0.2,1.9-0.2,2.8
		c-0.1,0.3,0,0.5,0.4,0.5c0.3,0,0.7,0,1.1,0c0.3,0,0.5-0.1,0.3-0.4c-0.4-0.9-0.2-1.9-0.2-2.8c0-0.2,0-0.4,0.2-0.4s0.2,0.2,0.3,0.4
		v0.1c0,0.3,0.2,0.5,0.6,0.5c0.3,0,0.4-0.2,0.5-0.5c0-0.3,0-0.6,0-0.9c0-0.2,0-0.3-0.2-0.3c-0.4-0.1-0.8-0.2-1.3-0.2
		C43.9,88.5,43.4,88.5,42.9,88.5L42.9,88.5z M64.6,93.1L64.6,93.1c0.5,0,1,0,1.6,0c0.2,0,0.4,0,0.4-0.3c0-0.5,0-1,0-1.5
		s-0.4-0.3-0.7-0.4c-0.3,0-0.4,0.2-0.4,0.4c0,0.2,0,0.3,0,0.4c-0.1,0.4-0.4,0.3-0.7,0.4c-0.2,0-0.3,0-0.3-0.2c0-1-0.2-2,0.2-3
		c0.2-0.3,0-0.6-0.4-0.6s-0.8,0-1.2,0c-0.3,0-0.4,0.1-0.3,0.5c0.1,0.2,0.3,0.4,0.3,0.7c0.1,1.1,0.2,2.1-0.2,3.2
		c-0.1,0.3-0.1,0.4,0.2,0.4C63.6,93.2,64.1,93.2,64.6,93.1L64.6,93.1z M60.7,93.1c0.5,0,0.9,0,1.3,0c0.2,0,0.3-0.1,0.3-0.3
		c0-0.4,0-0.8,0-1.2c0-0.4-0.2-0.6-0.5-0.6c-0.6,0-0.7,0.1-0.6,0.6c0,0.2,0,0.4-0.2,0.6c-0.5,0.2-0.8,0.1-0.8-0.5
		c0.1-0.9-0.1-1.8,0.2-2.7c0.1-0.2,0.1-0.4-0.3-0.4c-0.4-0.1-0.8,0-1.1-0.1s-0.5,0.1-0.3,0.5c0.4,1.2,0.5,2.4,0,3.6
		c-0.2,0.4,0.1,0.7,0.5,0.6C59.7,93.1,60.2,93.2,60.7,93.1L60.7,93.1z M32.2,93c1.1,0,1.1,0,0.7-1.1c-0.1-0.3-0.2-0.6,0-0.8
		c0.3-0.5,0.6-1,0.9-1.5c0.2-0.2,0.3-0.5,0.4-0.8c0.1-0.3,0-0.4-0.3-0.4s-0.5,0-0.8,0s-0.4,0.1-0.4,0.4s-0.1,0.7-0.3,1
		c-0.1,0.2-0.3,0.3-0.4,0c-0.1-0.2-0.2-0.4-0.3-0.6c-0.1-0.2,0.1-0.6-0.2-0.7c-0.2-0.1-0.5,0-0.8,0l0,0c-0.7,0-0.9,0-0.5,0.9
		c0,0.1,0.1,0.1,0.1,0.2c0.3,0.5,0.6,1,0.9,1.5c0.2,0.3,0.2,0.6,0.1,1C31.1,93,31.1,93,32.2,93L32.2,93z M28.9,93.1
		c0.2,0,0.7,0,1.2,0c0.1,0,0.3,0,0.3-0.2c0-0.5,0-0.9,0-1.4c0-0.4-0.3-0.6-0.8-0.5c-0.4,0-0.3,0.3-0.3,0.6c0,0.1,0,0.2,0,0.3
		c-0.1,0.4-0.5,0.3-0.8,0.3s-0.3-0.2-0.3-0.4c0.1-1-0.2-1.9,0.3-2.9c0.1-0.2,0-0.5-0.3-0.4c-0.3,0-0.6,0-1,0c-0.5,0-0.7,0.2-0.4,0.7
		c0.1,0.2,0.2,0.4,0.2,0.6c0,1,0.2,2-0.3,2.9c-0.1,0.2,0,0.3,0.2,0.3C27.5,93.1,28.1,93,28.9,93.1L28.9,93.1z M86.3,98.9
		c-0.5,0.2-0.8,0.5-1.1,0.8c-0.8,0.7-1.6,1.4-2.5,2c-0.1,0.1-0.3,0.2-0.4,0.1s0-0.3,0-0.4s0.1-0.1,0.1-0.1c0.6-0.7,1.1-1.5,1.7-2.2
		c0.5-0.6,1.1-1.1,1.8-1.1c0.2,0,0.4,0,0.5-0.2c-0.2-0.1-0.3-0.1-0.5-0.2s-0.3-0.2-0.5-0.3c-0.4-0.3-0.5-0.3-0.9,0
		c-0.2,0.1-0.3,0.3-0.4,0.4c-0.4,0.4-0.8,0.7-1.4,0.7c-0.1,0-0.2,0-0.2,0.1s0.1,0.2,0.2,0.2s0.3-0.1,0.3,0.1s-0.1,0.2-0.2,0.3
		c-0.1,0.1-0.1,0.1-0.2,0.2c-0.4,0.7-0.9,1.4-1.2,2.1c-0.2,0.4-0.1,0.7,0.3,0.9c0.5,0.2,1,0.2,1.5-0.2c0.8-0.6,1.5-1.3,2.2-2
		C85.7,99.7,86.1,99.4,86.3,98.9L86.3,98.9z M57,88.5c-0.2,0-0.4,0-0.6,0c-0.3,0-0.4,0.2-0.3,0.4c0.2,0.3,0.2,0.6,0.2,1
		c0,0.9,0.1,1.9-0.2,2.8c-0.1,0.3,0,0.5,0.4,0.5c0.3,0,0.6,0,0.9,0c0.4,0,0.5-0.1,0.5-0.5c0-0.1,0-0.2-0.1-0.3c-0.2-1-0.2-2,0-2.9
		C57.9,88.5,57.9,88.5,57,88.5L57,88.5z M67.4,91.1c0,0.5,0,1.2-0.3,1.8c-0.1,0.2,0.1,0.3,0.2,0.3c0.4,0,0.9,0,1.3,0.1
		c0.2,0,0.3-0.1,0.3-0.4s-0.2-0.5-0.2-0.7c0-1-0.2-2,0.2-3c0-0.1,0-0.3,0-0.4s-0.1-0.2-0.2-0.2c-0.4,0.1-0.9,0-1.3,0.1
		c-0.3,0.1-0.5,0.2-0.3,0.6C67.5,89.6,67.4,90.2,67.4,91.1z M40.4,98.5c0.2,0,0.4,0,0.5-0.1c0.3-0.2,0.6-0.6,1-0.7
		c0.1-0.1,0.1-0.2,0-0.3c-0.4-0.4-1-0.3-1.3,0.1c-0.2,0.2-0.3,0.5-0.4,0.7C40,98.4,40,98.5,40.4,98.5L40.4,98.5z"/>
	<path class="st2" d="M9.6,0.9H9.5C9.5,0.9,9.5,0.9,9.6,0.9z"/>
	<path class="st2" d="M94.8,12.4c-0.2,0.8-0.7,1.2-1.1,1.7c-1,1.3-2.1,2.5-3.1,3.8c-1,1.3-2.1,2.6-3.2,3.9c-0.9,1.2-1.8,2.4-2.7,3.5
		c-2.1,2.7-4.2,5.3-6.3,8c-0.6,0.7-1.1,1.4-1.7,2.1c-0.1,0.1-0.2,0.3-0.3,0.2c-0.2-0.1-0.1-0.3,0-0.4c0.7-1.2,1.4-2.3,2.2-3.5
		c1.7-2.6,3.3-5.2,4.9-7.8c0.6-1,1.2-2,1.9-3c0.1-0.1,0.2-0.2,0.1-0.4c-0.5,0.2-0.9,0.5-1.3,0.8c-1.8,1.2-3.6,2.4-5.3,3.6
		c-1.2,0.8-2.4,1.6-3.6,2.4c-1.4,0.9-2.7,1.9-4.1,2.8c-2.6,1.8-5.2,3.5-7.8,5.3c-2,1.3-3.9,2.6-5.8,4c-3.2,2.2-6.4,4.3-9.6,6.5
		c-2.5,1.7-5,3.4-7.5,5.1c-0.7,0.4-1.3,0.8-1.9,1.3c-0.1,0.1-0.2,0.1-0.3,0.2c0.1,0.2,0.3,0.2,0.5,0.2c5,0,10.1,0.2,15.1,0.2
		c0.4,0,0.8,0.1,1.2,0.2c1.8,0.2,3.7,0.1,5.6,0.2c2.2,0.1,4.3,0,6.4,0.2c2.9,0.2,5.8,0.1,8.8,0.2c1.6,0,3.2,0.1,4.8,0.2
		c0.5,0,1,0,1.5,0.1c2.1,0,4.3,0.2,6.4,0.2c2.2,0,4.4,0.1,6.6,0.2c2.7,0.1,5.3,0.1,8,0.2c0.1,0,0.1,0,0.2,0s0.2,0.1,0.2,0.2
		c0,0.1-0.1,0.1-0.2,0.2c-0.4,0.1-0.9,0.1-1.3,0.1c-0.9,0-1.8,0.1-2.7,0c-1.8,0-3.6,0.2-5.4,0.3c-2.5,0.1-5,0.2-7.4,0.3
		c-1.3,0-2.7,0.2-4.1,0.3c-0.4,0-0.8,0-1.2,0c-1.4,0-2.7,0.2-4.1,0.3c-0.8,0.1-1.6,0-2.4,0c-2,0-3.9,0.1-5.9,0.3
		c-1.7,0.1-3.4,0.2-5.1,0.2c-0.6,0-1.1,0.2-1.7,0.2c-0.2,0-0.3,0.2-0.4,0.3c-1.6,2.1-3.1,4.2-4.7,6.4c-1.3,1.8-2.6,3.6-4,5.4
		c-2.1,2.8-4.2,5.6-6.2,8.4c-0.5,0.7-1,1.4-1.5,2.1c-0.1,0.1-0.1,0.2-0.2,0.2c-0.1,0-0.1-0.1-0.2-0.2c-0.2-1.3-0.4-2.6-0.6-3.9
		c-0.2-1.1-0.2-2.2-0.4-3.2c-0.3-1.3-0.4-2.7-0.6-4c-0.1-1.1-0.4-2.2-0.5-3.3c0-0.7-0.2-1.4-0.3-2.1c-0.1-0.8-0.2-1.6-0.3-2.3
		C42,59.9,42,59,41.9,58.1c-0.1-0.7-0.1-0.7-0.7-0.7c-1.9,0-3.8,0-5.7,0.1c-2.3,0.1-4.6,0.2-6.9,0.1c-1.7,0-3.3,0-5,0.2
		C21.2,58,18.7,58,16.3,58c-1.1,0-2.2,0.1-3.2,0.2c-0.1,0-0.1,0-0.2,0c-0.2,0-0.6,0.1-0.6-0.1c-0.1-0.2,0.3-0.4,0.5-0.5
		c1.9-0.9,3.8-1.9,5.7-2.9c2.6-1.3,5.1-2.7,7.7-4c1.9-1,3.7-1.9,5.6-2.9c2.5-1.3,5.1-2.7,7.6-4c0.3-0.2,0.4-0.3,0.4-0.7
		c0-0.5-0.2-1-0.2-1.4c-0.1-0.9-0.2-1.8-0.4-2.6c-0.3-1.6-0.5-3.3-0.8-4.9c-0.2-1.4-0.5-2.9-0.7-4.3c-0.2-1.2-0.3-2.4-0.6-3.5
		c-0.1-0.5-0.1-1.1-0.2-1.6c0-0.4,0.1-0.4,0.4-0.2c0.7,0.4,1.5,0.9,2.2,1.3c1.4,0.9,2.8,1.8,4.2,2.6c1.7,1,3.3,2.1,5,3.2
		c0.9,0.5,1.8,1.1,2.7,1.6c1.2,0.7,2.4,1.5,3.6,2.2c0.2,0.2,0.5,0.2,0.7,0c1.9-1.1,3.7-2.2,5.6-3.2c1.6-0.9,3.3-1.9,4.9-2.8
		c1.3-0.8,2.6-1.5,3.9-2.3c1.7-1,3.3-2,5-2.9c1.5-0.8,2.9-1.6,4.3-2.5c2.2-1.3,4.5-2.5,6.7-3.8c1.7-1,3.3-1.9,5-2.9
		C92.4,13.9,93.6,13.2,94.8,12.4L94.8,12.4z"/>
	<path class="st2" d="M63.8,47.4c0.1,0.7,0.5,1.2,1.1,1.7c0.7,0.5,1.5,0.8,2.3,0.9c1.4,0.3,2.8,0.2,4.2-0.4c0.4-0.2,0.8-0.5,1.1-0.9
		c0.3-0.4,0.3-0.7-0.1-1s-0.8-0.5-1.3-0.7c-1.1-0.3-2.2-0.7-3.3-1.1c-0.7-0.3-1.5-0.7-1.9-1.4c-0.3-0.5-0.2-1-0.2-1.5
		c0.2-1,0.9-1.8,1.7-2.4c1.5-1.2,3.2-1.7,4.9-2.3c2.3-0.8,4.6-0.8,7-0.8c2.2,0,4.4,0,6.7,0c0.5,0,0.5,0,0.3,0.5
		c-0.7,1.1-1.5,2.2-2.2,3.3c-0.1,0.1-0.3,0.3-0.4,0.1c-0.5-1.1-1.5-1.6-2.5-2c-1.3-0.5-2.7-0.6-4.1-0.3c-0.9,0.2-1.7,0.7-2,1.6
		C75,41,75,41.3,75.3,41.5c0.3,0.3,0.8,0.5,1.2,0.6c1.1,0.3,2.3,0.5,3.5,0.8c0.5,0.1,1.1,0.2,1.6,0.6c0.9,0.7,0.9,1.6,0.6,2.5
		c-0.6,1.4-1.6,2.4-2.9,3.2c-1,0.6-2,1-3.1,1.3c-1.2,0.4-2.4,0.5-3.6,0.7c-1.5,0.2-2.9,0.2-4.4,0.2c-0.7,0-1.3-0.2-1.9-0.2
		s-1.1,0-1.7-0.2c-0.9-0.2-1.8-0.2-2.6,0.1c-0.3,0.1-0.3-0.2-0.2-0.4c0.2-0.4,0.5-0.8,0.8-1.3C63,48.7,63.5,48.2,63.8,47.4
		C63.6,47.5,63.6,47.4,63.8,47.4L63.8,47.4z"/>
	<path class="st2" d="M97.2,50.8c0.6-0.4,1.1-0.7,1.6-1c1.3-0.8,2.5-1.7,3.8-2.6c2.7-2,5.3-4.1,7.9-6.3c0.7-0.5,1.3-1.2,1.8-1.8
		c0.2-0.3,0.3-0.7,0.2-1.1c-0.1-0.3,0-0.4,0.2-0.3c2.4,0.1,4.7,0,7.1,0c0.5,0,0.5,0,0.3,0.5c-0.6,1-0.8,2.1-1.1,3.2
		c-0.2,0.8-0.3,1.7-0.3,2.5c-0.1,1.6,0,3.1,0.2,4.7c0.1,0.7,0.4,1.3,0.9,1.9c0.1,0.1,0.2,0.2,0.2,0.4c-0.1,0.2-0.3,0.1-0.4,0.1
		c-3.5,0-7.1,0-10.6,0c-0.1,0-0.2,0-0.2,0c-0.1,0-0.2,0-0.3-0.1c0-0.1,0.1-0.2,0.2-0.3c1.1-0.6,1.7-1.7,2.1-2.8
		c0.1-0.3,0-0.5-0.4-0.5c-1.8,0-3.7,0-5.6,0c-0.2,0-0.3,0.1-0.5,0.2c-0.7,0.7-1.4,1.5-1.8,2.3c-0.1,0.2-0.2,0.4-0.2,0.7
		s-0.1,0.4-0.4,0.4c-1.5,0-3,0-4.4,0C97.5,50.8,97.4,50.8,97.2,50.8L97.2,50.8z M106.2,45.8c1.5,0,2.9,0,4.3,0c1,0,1.1,0,1.2-1.1
		v-0.1c0.2-0.9,0.2-1.9,0.3-2.8c0-0.2,0.2-0.6-0.1-0.7c-0.2-0.1-0.4,0.2-0.7,0.3c-0.1,0-0.1,0.1-0.1,0.1c-1.2,1-2.4,2-3.6,3
		C107.1,44.9,106.6,45.3,106.2,45.8z"/>
	<path class="st2" d="M84.9,50.9c0-0.2,0.1-0.2,0.2-0.3c1.6-0.9,2.7-2.2,3.8-3.7c0.7-0.9,1.3-1.9,2-2.9c0.5-0.8,0.9-1.6,1.4-2.3
		c0.4-0.5,0.5-1,0.5-1.6c0-0.5-0.4-0.9-0.9-0.9c-1.2-0.1-2.2,0.5-3.1,1.1c-1,0.7-2.1,1.4-3,2.2c-0.1-0.2,0.1-0.4,0.2-0.5
		c0.5-0.8,1-1.5,1.5-2.2c0.3-0.5,0.7-1,1-1.6c0.2-0.4,0.6-0.5,1-0.5c1.7,0,3.3,0,5,0c2,0,3.9,0,5.9,0c2.4,0,4.9,0,7.3,0
		c0.3,0,0.5,0,0.8,0c0.2,0,0.3,0.1,0.2,0.3c-0.1,0.2-0.2,0.4-0.3,0.5c-0.8,1.3-1.7,2.5-2.6,3.8c-0.1,0.1-0.1,0.5-0.3,0.4
		c-0.2-0.1-0.1-0.3,0-0.5c0-0.7,0.1-1.3,0-2c-0.1-0.5-0.4-0.8-0.9-0.9c-1.1-0.3-2,0.1-2.9,0.7c-1,0.7-1.7,1.6-2.4,2.6
		c-1.1,1.6-2.2,3.3-3.3,4.9c-0.4,0.6-0.7,1.2-1.1,1.7c-0.3,0.4-0.2,0.8,0,1.1c0.1,0.1,0.1,0.2,0.2,0.3c0.1,0.2,0.1,0.3-0.2,0.3
		c-0.6,0.1-1.2,0-1.8,0c-2.4,0-4.8,0-7.1,0C85.6,50.8,85.3,50.9,84.9,50.9L84.9,50.9z"/>
	<path class="st2" d="M22.3,98.8c0.5,0,0.7-0.4,1-0.5c0.7-0.4,1.4-0.8,2-1.3c0.4-0.2,0.8-0.5,1.3-0.4h0.1c0.2,0,0.5,0.1,0.6,0.3
		c0,0.2-0.2,0.4-0.4,0.5c-0.4,0.2-0.6,0.5-0.9,0.9c-0.4,0.5-1,0.9-1.3,1.5c0.1,0.1,0.1,0,0.2,0c0.7-0.5,1.4-1,2.2-1.4
		c0.5-0.3,1-0.7,1.6-0.9c0.4-0.2,0.7-0.1,1.1,0.1c0.2,0.1,0.3,0.3,0.1,0.5c-0.7,0.6-1.3,1.2-1.9,1.8c-0.4,0.4-0.8,0.9-1.1,1.4
		c0.8-0.4,1.6-0.8,2.2-1.5c0.4-0.4,0.8-0.9,1.4-1c0.5-0.1,1,0,1.5,0.3c0.1,0.1,0.2,0.2,0.1,0.3c-0.1,0.2-0.2,0.1-0.3,0.1
		c-0.5-0.3-0.9-0.1-1.3,0.2c-0.5,0.4-0.9,0.8-1.2,1.4c0,0.1-0.1,0.2,0,0.3c0.1,0.1,0.2,0,0.2-0.1c0.3-0.4,0.8-0.8,1.2-1.1
		c0.4-0.3,0.8-0.4,1.2-0.2c0.2,0.1,0.3,0.2,0.1,0.4c-0.3,0.3-0.6,0.6-0.8,1c-0.1,0.1-0.2,0.3-0.1,0.4s0.3,0,0.4-0.1
		c0.7-0.5,1.4-0.9,1.9-1.6c0.5-0.6,0.9-1.2,1.4-1.7c0.4-0.4,0.8-1,1.3-1.3c0.2-0.1,0.3-0.2,0.5-0.1c0.3,0.1,0.4,0.3,0.3,0.6
		c-0.2,0.3-0.4,0.5-0.7,0.7c-0.5,0.4-1,0.8-1.3,1.4c0,0.1-0.2,0.2,0,0.3c0.1,0.1,0.2,0,0.3-0.1c0.2-0.2,0.5-0.4,0.8-0.6
		c0.5-0.3,1-0.3,1.2,0.1c0.3,0.4,0.3,0.9-0.1,1.3c-0.3,0.3-0.7,0.5-1.1,0.7c-0.1,0.1-0.3,0.1-0.3,0.3c0.3,0.2,0.5,0.1,0.8-0.1
		c0.9-0.4,1.4-1.1,2-1.8c0.2-0.2,0.4-0.5,0.6-0.7c0.2-0.2,1-0.2,1.2,0c0.2,0.1,0.1,0.2,0,0.3c-0.4,0.4-0.8,0.9-1.2,1.3
		c-0.2,0.2-0.4,0.5-0.5,0.8c0,0.1-0.1,0.2,0,0.3c0.1,0.1,0.2,0,0.2,0c0.5-0.2,0.9-0.4,1.2-0.8c0.6-0.6,1.2-1.1,1.8-1.8
		c0-0.1,0.1-0.1,0.2-0.2c0.2-0.1,0.5-0.2,0.7,0s0.1,0.5-0.1,0.6c-0.2,0.1-0.3,0.3-0.5,0.4c0.2,0.1,0.4-0.1,0.5-0.2
		c0.4-0.3,0.8-0.7,1.3-0.9c0.4-0.2,1.2-0.1,1.5,0.2c0.2,0.2,0.2,0.3,0,0.5c-0.5,0.5-1,1.1-1.5,1.6c-0.1,0.1-0.1,0.2-0.2,0.3
		c0,0.1-0.1,0.3,0.1,0.4c0.2,0.1,0.2-0.1,0.3-0.2c0.9-0.5,1.3-1.4,2-2.2c0.5-0.5,1.4-1.2,2.3-0.6c0.1,0.1,0.3,0.1,0.4,0
		c0.3-0.2,0.6-0.1,0.9-0.1c0.3,0.1,0.3,0.2,0.1,0.4c-0.4,0.4-0.7,0.9-1.1,1.3c0,0,0,0.1,0,0.2c0.6-0.1,1.1-0.4,1.5-0.7
		c0.3-0.2,0.7-0.5,1-0.8c0.1-0.1,0.3-0.3,0.4-0.1c0.2,0.1,0,0.3-0.1,0.4c-0.7,0.7-1.5,1.3-2.5,1.7c-1,0.4-1.6,1.1-2.2,1.9
		c-0.3,0.5-0.7,1-1.1,1.3c-0.4,0.3-0.8,0.6-1.4,0.3c-0.5-0.3-0.6-0.7-0.2-1.1c0.4-0.4,0.9-0.7,1.3-1c0.2-0.1,0.5-0.3,0.7-0.5
		c-0.4,0-0.7-0.2-1.1-0.3c-0.2-0.1-0.4-0.1-0.6,0.1c-0.2,0.2-0.5,0.3-0.9,0.4c-0.3,0-0.6,0.1-0.8-0.2c-0.2-0.3-0.2-0.6,0-0.9
		c0.2-0.5,0.6-0.7,0.9-1.1c0.1-0.1,0.1-0.1,0.2-0.2c0-0.1,0.1-0.2,0-0.2c-0.1-0.1-0.2,0-0.2,0.1c-0.9,0.6-1.6,1.3-2.3,2.1
		c-0.1,0.1-0.2,0.2-0.3,0.3c-0.2,0.1-0.4,0.2-0.6,0c-0.2-0.1-0.3-0.3-0.2-0.5c0-0.1,0.1-0.2,0-0.2c-0.1-0.1-0.2,0.1-0.2,0.1
		c-0.3,0.2-0.5,0.4-0.8,0.6c-0.7,0.3-1.3,0.4-1.9-0.2c-0.2-0.2-0.3-0.1-0.4,0c-0.4,0.3-0.9,0.6-1.4,0.6c-0.4,0-0.7-0.3-0.8-0.6
		c-0.1-0.5,0-0.7,0.5-0.9c0.5-0.2,0.8-0.6,1.2-0.9c0.1-0.1,0.2-0.3,0.1-0.4c-0.1-0.1-0.3,0-0.4,0.1c-0.4,0.3-0.8,0.6-1.1,0.9
		c-0.5,0.4-0.8,0.9-1.2,1.4c-0.2,0.2-0.3,0.4-0.7,0.2c-0.3-0.2-0.5-0.4-0.3-0.7c0-0.1,0.1-0.2,0-0.2c-0.2,0.1-0.3,0.3-0.5,0.4
		c-0.5,0.4-0.9,0.8-1.6,0.6c-0.2-0.1-0.4-0.1-0.5-0.4c0-0.2-0.1-0.2-0.3-0.1c0,0,0,0.1-0.1,0.1c-0.5,0.5-1,0.5-1.6,0
		c-0.2-0.2-0.1-0.4-0.2-0.7c-0.4,0.3-0.7,0.6-1.1,0.9c-0.2,0.2-0.6,0.4-0.8,0.6c-0.2,0.2-0.4,0.2-0.7,0.1c-0.3-0.2-0.4-0.5-0.2-0.8
		c0.2-0.5,0.5-0.9,0.8-1.3c0.5-0.7,1.2-1.3,1.9-1.9c0.1-0.1,0.2-0.2,0.3-0.3c-0.3,0.2-0.5,0.3-0.8,0.4s-0.5,0.3-0.7,0.4
		c-1.2,0.9-2.4,1.7-3.4,2.8c-0.1,0.2-0.2,0.4-0.4,0.5c-0.3,0.1-0.6,0-0.8-0.2c-0.2-0.2-0.3-0.4-0.2-0.7c0.2-0.5,0.6-0.9,0.9-1.4
		c0.6-0.7,1.3-1.2,1.9-1.8c0.1-0.1,0.2-0.2,0.1-0.3c-0.1-0.1-0.2,0-0.3,0.1c-0.9,0.7-1.9,1.2-2.7,1.9c-0.8,0.7-1.8,1.2-2.4,2.1
		c-0.2,0.3-0.5,0.3-0.8,0.1c-0.3-0.2-0.3-0.4-0.1-0.8c0.6-0.9,1.3-1.7,2-2.5s1.5-1.6,2.4-2.3l0.1-0.1c0.1-0.1,0.2-0.2,0.1-0.4
		c0-0.2-0.2-0.1-0.4-0.1c-0.9,0-1.8,0.3-2.7,0.5c-0.6,0.2-1.2,0.4-1.8,0.5c-0.6,0.1-1.2,0.1-1.6-0.4c-0.1-0.1-0.2-0.2-0.1-0.3
		c0-0.1,0.2-0.1,0.3-0.1c0.9,0.1,1.8-0.1,2.6-0.3c0.8-0.2,1.7-0.2,2.5-0.4c0.7-0.2,1.4-0.2,1.9,0.4c0.4,0.4,0.5,0.8,0.1,1.2
		c-0.5,0.5-1,0.9-1.4,1.4C22.4,98.6,22.3,98.7,22.3,98.8C22.3,98.8,22.2,98.8,22.3,98.8C22.2,98.8,22.3,98.8,22.3,98.8L22.3,98.8
		L22.3,98.8z M48.3,99.5c0-0.3-0.1-0.3-0.3-0.2c-0.8,0.4-1.3,1.1-1.8,1.8c0,0.1-0.1,0.2,0,0.2c0.1,0.1,0.2,0,0.2,0
		c0.6-0.4,1.2-0.8,1.8-1.4C48.3,99.7,48.3,99.6,48.3,99.5L48.3,99.5z M45.8,103.1C45.8,103.1,45.8,103,45.8,103.1
		c-0.5,0.2-0.9,0.4-1.3,0.7c-0.1,0.1-0.2,0.2-0.2,0.3c0.1,0.2,0.2,0.1,0.4,0.1C45.3,104,45.5,103.5,45.8,103.1z"/>
	<path class="st2" d="M109.9,101c-0.4,0.4-0.9,0.8-1.3,1.1c-0.7,0.5-1.7,0.3-2.2-0.3c-0.1-0.2-0.1-0.3,0-0.4c0.2-0.5,0.6-0.8,1-1.2
		c0.1-0.1,0.2-0.1,0.1-0.2s-0.2,0-0.3,0.1c-0.3,0.2-0.5,0.4-0.8,0.7c-0.4,0.5-1,0.8-1.4,1.3c-0.5,0.4-1.3,0.7-1.9,0.1
		c-0.2-0.1-0.3-0.1-0.4,0c-0.5,0.3-1,0.2-1.4-0.1c-0.2-0.1-0.2-0.3-0.2-0.5c0-0.1,0-0.2-0.1-0.2s-0.2,0.1-0.2,0.1
		c-0.5,0.5-1.1,0.8-1.6,1.2c-0.4,0.3-0.7,0.3-1-0.1c-0.1-0.2-0.2-0.3-0.1-0.5c0.4-0.8,1-1.6,1.7-2.3c0.3-0.3,0.7-0.7,1-1
		c-0.8,0.3-1.5,0.8-2.2,1.4c-0.8,0.7-1.6,1.3-2.3,2.1c-0.3,0.4-0.6,0.4-1,0.1c-0.3-0.2-0.3-0.5-0.2-0.8c0.2-0.6,0.6-1,1-1.4
		c0.6-0.6,1.1-1.3,1.8-1.8c0.1-0.1,0.2-0.2,0.3-0.4c-0.2,0-0.3,0.1-0.5,0.2c-1.1,0.8-2.2,1.5-3.2,2.3c-0.7,0.5-1.3,1-1.8,1.7
		c-0.3,0.4-0.7,0.4-1.1,0.2c-0.2-0.1-0.1-0.3-0.1-0.5c0.1-0.3,0.3-0.5,0.5-0.8c0.7-0.8,1.2-1.7,1.9-2.3c0.7-0.6,1.3-1.2,2-1.8
		l0.1-0.1c0.1-0.1,0.3-0.2,0.2-0.5c-0.1-0.2-0.3-0.1-0.5-0.1c-1.2,0-2.2,0.5-3.3,0.8c-0.5,0.1-1,0.3-1.4,0.4
		c-0.5,0.1-1.2-0.2-1.4-0.6c-0.1-0.2,0.2-0.2,0.2-0.2c1.2,0.3,2.3-0.3,3.4-0.5c1-0.2,1.9-0.3,2.9-0.3c0.3,0,0.5,0.1,0.8,0.2
		c0.7,0.4,0.8,0.9,0.2,1.4c-0.3,0.3-0.7,0.7-1.1,1.1c-0.1,0.1-0.2,0.2-0.3,0.5c0.4-0.2,0.7-0.4,1-0.6c0.8-0.5,1.7-1.1,2.6-1.5
		c0.2-0.1,0.4-0.1,0.6-0.1c0.2,0.1,0.6,0.1,0.6,0.4c0.1,0.2-0.2,0.4-0.4,0.5c-0.6,0.4-2,1.9-2.3,2.5c0.3,0,0.4-0.2,0.6-0.4
		c1-0.7,2.1-1.3,3.2-2c0.4-0.3,0.9-0.3,1.4-0.1c0.3,0.1,0.3,0.3,0.1,0.5c-0.8,0.7-1.5,1.4-2.2,2.2c-0.3,0.3-0.5,0.7-0.7,1.1
		c0.3-0.2,0.6-0.4,0.9-0.6c0.7-0.4,1.2-1.1,1.8-1.6c0.5-0.4,1.5-0.5,2-0.2c0.2,0.1,0.2,0.2,0.3,0.3c0,0.1,0,0.2,0,0.2
		c-0.1,0.1-0.2,0-0.2,0c-0.4-0.4-0.8-0.1-1.1,0.1c-0.5,0.3-0.8,0.8-1.2,1.2c-0.1,0.1-0.1,0.1-0.1,0.2s-0.1,0.2,0,0.3
		c0.1,0.1,0.2,0,0.2-0.1c0.2-0.3,0.4-0.5,0.7-0.7c0.3-0.3,0.7-0.5,1.1-0.7c0.2-0.1,0.4-0.1,0.6,0.1s0.2,0.3,0,0.5
		c-0.3,0.3-0.5,0.7-0.7,1c-0.1,0.1-0.1,0.2,0,0.3c0.1,0.1,0.2,0,0.3,0c0.8-0.5,1.5-1.2,2.2-1.8c0.1-0.1,0.2-0.3,0.1-0.4
		c-0.2-0.2,0-0.4,0.1-0.6c0.4-0.4,0.8-0.7,1.4-0.6c0.2,0,0.3,0.1,0.3,0.2c0.1,0.2-0.1,0.3-0.2,0.3c-0.1,0.1-0.3,0.2-0.4,0.4
		c0.3,0,0.6,0,0.9,0.1c0.1,0,0.3,0,0.3,0.2c0.1,0.2-0.1,0.2-0.2,0.3c-0.5,0.4-1,0.8-1.3,1.3c-0.1,0.2-0.2,0.4-0.1,0.6
		c0.2,0.2,0.4,0,0.6-0.1c1.2-0.7,2.2-1.6,3.2-2.6c0.2-0.2,0.9-0.2,1,0c0.2,0.2,0,0.3-0.1,0.4c-0.4,0.5-0.9,1-1.3,1.6
		c-0.1,0.2-0.2,0.4-0.4,0.6c-0.1,0.1-0.1,0.2,0,0.2c0.1,0.1,0.2,0,0.2,0c0.5-0.2,1-0.6,1.3-1c0.4-0.5,0.8-0.9,1.2-1.4
		c0.4-0.5,0.8-0.6,1.4-0.2c0.5,0.4,0.9,0.2,1.3-0.1c0.5-0.3,1-0.3,1.5-0.1c0.3,0.1,0.4,0.5,0.2,0.7c-0.4,0.6-1,1-1.8,1.2
		c-0.2,0.1-0.4,0.2-0.7,0.2c-0.2,0-0.2,0.2-0.2,0.4c0,0.2,0.1,0.3,0.3,0.3c0.3,0,0.5,0,0.8-0.1c1.1-0.5,2-1.2,2.8-2.1
		c0.7-0.8,1.4-1.7,2.3-2.4c0.3-0.2,0.6-0.3,0.9-0.1c0.2,0.2,0.3,0.3,0.1,0.5c-0.9,0.9-1.8,1.8-2.6,2.9c-0.2,0.3-0.5,0.7-0.7,1.1
		c-0.1,0.1-0.2,0.3,0,0.4c0.1,0.1,0.3,0,0.4,0c0.4-0.3,0.8-0.7,1.2-1c0.6-0.5,1.2-1,1.7-1.5c0.3-0.3,0.6-0.6,0.9-0.9
		c0.2-0.2,0.4-0.3,0.7-0.3c0.1,0,0.2,0,0.3,0.1c0.1,0.1,0.1,0.2-0.1,0.3c-0.6,0.5-0.7,1.1-0.6,1.8c0,0.9-0.5,1.5-1.3,1.8
		c-0.6,0.2-1.2,0.4-1.8,0c-0.2-0.2-0.5-0.1-0.7,0c-0.9,0.3-1.3,0.2-1.7-0.7c-0.1-0.3-0.3-0.1-0.4,0c-0.4,0.4-0.8,0.6-1.3,0.7
		c-0.6,0.1-1.3-0.1-1.6-0.6c-0.2-0.3-0.3-0.6-0.1-0.9c0.2-0.2,0.3-0.5,0.5-0.7s0.2-0.3-0.1-0.4c-0.4-0.1-0.7-0.1-0.9,0.3
		c-0.5,0.6-0.9,1.2-1.6,1.6c-0.3,0.2-0.7,0.4-1,0.6c-0.2,0.1-0.4,0.1-0.6,0c-0.3-0.2-0.8,0-1-0.3C109.6,101.7,110,101.5,109.9,101
		L109.9,101z M122.2,100.2c-0.3,0.2-1.2,1.3-1.2,1.6c0,0.2,0,0.3,0.3,0.3C122,101.8,122.5,100.9,122.2,100.2z M116,100.7
		c0.4-0.3,0.9-0.5,1.3-0.9c0-0.1,0.1-0.1,0-0.1c-0.1-0.1-0.1,0-0.2,0c-0.3,0.2-0.6,0.4-0.9,0.7C116.1,100.3,115.9,100.4,116,100.7z"
		/>
	<path class="st2" d="M68.3,101.4c0.3,0,0.5-0.3,0.7-0.5c0.4-0.4,0.8-0.9,1.4-1.1c0.2-0.1,0.4-0.1,0.6-0.1s0.3,0.1,0.3,0.3
		c0.1,0.2-0.1,0.2-0.2,0.3c-0.3,0.3-0.6,0.7-0.8,1.1c-0.1,0.1-0.1,0.2,0,0.3c0.1,0.1,0.2,0,0.3-0.1c0.4-0.3,0.8-0.7,1.3-1
		c0.8-0.4,1.1-1.3,1.7-1.8c0.1-0.1,0.1-0.3-0.1-0.3c-0.1,0-0.2,0-0.3-0.1c0-0.1,0.1-0.2,0.2-0.2c0.7-0.1,1.1-0.5,1.5-0.9
		c0.5-0.6,0.8-0.6,1.3-0.1c0.2,0.2,0.3,0.2,0.5,0.2c0.1,0,0.2,0.1,0.2,0.2s-0.1,0.1-0.2,0.2c-0.3,0.1-0.6,0.2-0.9,0.2
		c-0.5,0.1-0.8,0.5-1.2,0.9c-0.7,0.8-1.4,1.6-2,2.6c-0.1,0.1-0.2,0.2-0.1,0.4c0.1,0.2,0.3,0,0.4-0.1c0.9-0.5,1.6-1.3,2.2-2.1
		c0.5-0.6,1.1-1.1,2-1c0.3,0,0.6,0.1,0.7,0.4s-0.1,0.5-0.3,0.7c-0.6,0.6-1.3,1-2.1,1.2c-0.3,0.1-0.3,0.2-0.3,0.5s0.2,0.3,0.4,0.3
		c0.6,0,1.1-0.3,1.6-0.6c0.7-0.4,1.3-1,1.9-1.6c0.3-0.3,0.6-0.8,1-1.1c0.2-0.2,0.4-0.3,0.7-0.3c0.3,0,0.4,0.2,0.2,0.3
		c-0.7,0.6-0.7,1.4-0.8,2.2c0,0.6-0.4,1.1-1,1.3c-0.7,0.3-1.4,0.5-2.2,0c-0.2-0.1-0.4-0.1-0.6,0c-0.5,0.2-0.9,0.2-1.5,0
		c-0.2-0.1-0.4-0.3-0.6-0.4c-0.2-0.2-0.4-0.2-0.6,0c-0.4,0.5-0.9,0.6-1.4,0.6c-0.4,0-0.8-0.5-0.7-0.9c0-0.1,0.1-0.2,0-0.2
		c-0.1-0.1-0.2,0-0.2,0.1c-0.2,0.2-0.4,0.3-0.5,0.5c-0.4,0.5-1.3,0.6-1.8,0.3c-0.2-0.1-0.2-0.2-0.2-0.4c0-0.1,0-0.2-0.1-0.2
		s-0.2,0-0.2,0.1c-0.5,0.7-0.9,0.7-1.5,0.1c-0.2-0.2-0.4-0.2-0.6-0.1c-1.2,0.8-1.7,0.7-2.8-0.1c-0.2-0.2-0.3,0-0.4,0.1
		c-0.5,0.4-1,0.7-1.7,0.7c-0.2,0-0.5-0.1-0.7-0.2c-0.4-0.3-0.5-0.6-0.2-1.1c0.2-0.3,0.5-0.6,0.8-0.9c0.1-0.1,0.2-0.2,0.2-0.3
		c0-0.1-0.2-0.1-0.3-0.1c-0.4-0.1-0.5-0.3-0.3-0.7c0.3-0.5,0.8-0.8,1.5-0.8c0.2,0,0.3,0.1,0.4,0.2c0,0.2-0.1,0.3-0.2,0.4
		c0,0-0.1,0.1-0.2,0.1c-0.1,0.1-0.3,0.2-0.2,0.3c0.1,0.2,0.2,0,0.3,0s0.3,0,0.4,0c0.2,0,0.5,0,0.6,0.2s-0.2,0.2-0.4,0.4
		c-0.5,0.4-1,0.7-1.3,1.2c-0.1,0.1-0.2,0.3-0.1,0.4c0.1,0.2,0.3,0.1,0.5,0.1c0.6-0.2,1.1-0.5,1.4-1c0.4-0.6,0.9-1.1,1.5-1.5
		c0.5-0.3,1-0.4,1.5-0.2c0.3,0.2,0.4,0.4,0.2,0.7c-0.2,0.4-0.6,0.7-1.1,1c-0.3,0.2-0.7,0.3-1.1,0.4c-0.2,0.1-0.3,0.2-0.4,0.4
		c-0.1,0.3,0,0.5,0.4,0.5c0.6,0,1.1-0.3,1.6-0.6c0.5-0.2,0.8-0.7,1.2-1.1c0.4-0.5,0.8-0.9,1.3-1.2c0.6-0.3,1.2-0.2,1.7,0.1
		c0.2,0.1,0.3,0.2,0.2,0.4c-0.1,0.2-0.3,0.1-0.4,0c-0.2-0.2-0.4-0.1-0.7,0c-0.7,0.4-1.2,1-1.7,1.7C68.4,101.2,68.4,101.3,68.3,101.4
		L68.3,101.4z M79.4,100.1L79.4,100.1c-0.6,0.3-0.8,0.9-1.2,1.4c-0.1,0.1-0.1,0.2,0,0.3c0.1,0.1,0.2,0.1,0.3,0
		C79.1,101.7,79.5,100.9,79.4,100.1L79.4,100.1z M76.1,100.5c0.4-0.2,0.8-0.4,1-0.7c0.1-0.1,0.2-0.1,0.1-0.2s-0.2,0-0.2,0
		c-0.3,0.2-0.6,0.4-0.8,0.6C76.1,100.3,76.1,100.3,76.1,100.5L76.1,100.5z M65.4,100.5c0.5-0.2,1-0.5,1.3-1.1
		C66.1,99.6,65.8,100,65.4,100.5z"/>
	<path class="st2" d="M57.4,101.5c-0.4,0-0.6,0.2-0.9,0.4c-0.6,0.4-1.3,0.7-2,0.8c-0.5,0.1-1-0.1-1.4-0.5c-0.3-0.3-0.3-0.7-0.1-1.1
		c0.4-1.2,1.3-2,2.2-2.8c1-0.9,2-1.7,3.2-2.2c0.5-0.2,1.4,0,1.7,0.5c0.2,0.4,0.2,0.9-0.2,1.4c-0.5,0.6-1,1-1.7,1.3
		c-0.4,0.2-0.9,0.2-1.3,0.2c-0.1,0-0.1,0-0.1-0.1s0.1-0.2,0.2-0.2c0.4-0.2,0.7-0.5,1.1-0.7c0.5-0.3,1-0.7,1.3-1.1
		c0.1-0.1,0.1-0.2,0.2-0.3c0.1-0.1,0.1-0.3,0-0.4s-0.3-0.1-0.4,0c-0.2,0.1-0.5,0.2-0.7,0.4c-1.7,1.1-3.2,2.4-4.3,4
		c-0.2,0.2-0.3,0.5-0.3,0.7c0,0.3,0.1,0.4,0.4,0.4c0.7-0.1,1.3-0.4,1.8-0.7c0.8-0.5,1.7-1.1,2.5-1.7c0.3-0.2,0.6-0.5,0.9-0.8
		c0.2-0.1,0.3-0.3,0.6-0.2c0.2,0,0.4,0.1,0.5,0.3c0.1,0.2-0.1,0.3-0.2,0.4c-0.6,0.9-1.3,1.7-1.9,2.5c-0.8,1-1.7,1.9-2.7,2.7
		c-0.8,0.6-1.5,1.1-2.5,1.3c-0.7,0.1-1.4,0.2-2.1-0.1c-0.3-0.2-0.6-0.4-0.6-0.8s0.2-0.7,0.6-0.9c0.1-0.1,0.3-0.1,0.4-0.2
		c0.1,0,0.2-0.1,0.3,0s0,0.2,0,0.3c0,0.1-0.1,0.1-0.1,0.2c-0.1,0.2-0.2,0.5-0.1,0.8c0.2,0.3,0.5,0.3,0.8,0.3c0.5-0.1,1-0.3,1.5-0.6
		c1.3-0.8,2.4-1.9,3.3-3.1C57.2,101.8,57.3,101.7,57.4,101.5L57.4,101.5z"/>
	<path class="st2" d="M100.5,91c0,0.4-0.1,0.9,0.1,1.3c0,0.1,0.1,0.2,0.1,0.3c0.2,0.6,0.1,0.8-0.5,0.8c-0.3,0-0.5,0-0.8,0
		S99,93.2,99.1,93c0.3-0.8,0.2-1.7,0.3-2.5c0-0.5-0.1-0.9-0.2-1.3c-0.2-0.4-0.1-0.5,0.3-0.4c0.2,0,0.5,0,0.7,0
		c0.4,0,0.6,0.2,0.7,0.5c0.2,0.5,0.3,0.9,0.6,1.3c0.1,0.1,0.1,0.2,0.2,0.1c0.1,0,0.2-0.1,0.2-0.2c0-0.3,0-0.6-0.1-0.8
		c-0.1-0.2-0.1-0.3-0.1-0.5c-0.1-0.3,0-0.4,0.4-0.4c0.2,0,0.4,0,0.6,0c0.6,0,0.8,0.1,0.6,0.6c-0.3,1-0.1,2-0.2,3c0,0.2,0,0.4,0,0.6
		c0,0.3-0.1,0.5-0.4,0.5c-0.7,0-0.7,0-1-0.6C101.2,92.1,100.9,91.5,100.5,91L100.5,91z"/>
	<path class="st2" d="M71.2,90.8c0,0.5-0.2,1,0.1,1.5c0.1,0.1,0.1,0.2,0.2,0.4c0.1,0.2,0,0.5-0.2,0.5c-0.4,0.1-0.9,0-1.3,0
		c-0.1,0-0.2-0.1-0.2-0.2s0-0.3,0-0.4c0.4-1.2,0.3-2.3,0-3.5c-0.1-0.4,0-0.6,0.4-0.6c0.2,0,0.3,0,0.5,0c0.3,0,0.5,0.1,0.7,0.4
		c0.3,0.7,0.7,1.3,1,1.9c0.2,0,0.2-0.2,0.2-0.2c0-0.5,0-1-0.2-1.5s-0.2-0.6,0.4-0.7c0.2,0,0.5,0,0.7,0c0.5,0,0.7,0.1,0.5,0.6
		c-0.4,0.9-0.2,1.7-0.2,2.6c0,0.4,0,0.7,0,1.1c0,0.3-0.2,0.4-0.4,0.4c-0.5,0.1-0.8-0.1-1-0.6C71.9,92,71.6,91.4,71.2,90.8L71.2,90.8
		z"/>
	<path class="st2" d="M47.2,93.1c-0.1,0-0.3,0-0.4,0c-0.5,0-0.5-0.1-0.4-0.5c0.4-1.2,0.3-2.4,0-3.6c-0.1-0.4,0-0.4,0.3-0.5
		c0.4-0.1,0.8,0.1,1.2,0.1c0.2,0,0.2,0.2,0.2,0.4c-0.1,0.3-0.1,0.6-0.2,0.9c0,0.2,0.1,0.4,0.3,0.4c0.7,0,0.8-0.1,0.7-0.8
		c-0.2-0.7,0.1-1,0.8-1c0.3,0,0.7-0.1,0.9,0.1c0.2,0.3-0.2,0.5-0.2,0.8c0,0.2-0.1,0.3-0.1,0.5c0,0.9-0.1,1.9,0.2,2.8
		c0.1,0.2,0,0.3-0.2,0.3c-0.5,0.1-0.9,0-1.4,0c-0.2,0-0.2-0.2-0.2-0.4c0.1-0.4,0.2-0.7,0.3-1.1s0-0.5-0.5-0.6c-0.7,0-0.7,0-0.7,0.7
		c0,0.3,0.1,0.6,0.2,0.9c0.1,0.3,0,0.4-0.3,0.4C47.6,93.1,47.4,93.1,47.2,93.1L47.2,93.1L47.2,93.1z"/>
	<path class="st2" d="M37.3,90.9c0-0.7,0.1-1.3-0.2-1.9c-0.1-0.2-0.1-0.3,0.2-0.4c0.5-0.2,0.9,0,1.4-0.1c0.1,0,0.1,0.1,0.1,0.2
		s0,0.3,0,0.4c-0.4,1.1-0.2,2.3-0.2,3.5c0,0.2,0,0.5-0.3,0.6c-0.5,0.1-1-0.1-1.1-0.4c-0.3-0.7-0.6-1.4-1.1-2c0,0.4-0.2,0.9,0.1,1.3
		c0.1,0.1,0.1,0.3,0.2,0.5c0.1,0.4,0.1,0.5-0.3,0.5c-0.3,0-0.7,0-1,0s-0.4-0.2-0.3-0.4c0.5-1.2,0.2-2.5,0-3.7c0-0.3,0-0.4,0.3-0.4
		s0.5,0,0.8,0c0.2,0,0.4,0.2,0.5,0.4C36.6,89.5,36.9,90.2,37.3,90.9L37.3,90.9z"/>
	<path class="st2" d="M114.7,88.6c0.6,0,1.2-0.1,1.8,0.2c0.5,0.2,0.7,0.4,0.7,1c0,0.4,0.1,0.8-0.3,1c-0.1,0.1-0.1,0.3,0,0.4
		c0.4,0.6,0.4,1.2,0.5,1.8c0,0.1-0.1,0.2-0.2,0.2h-0.1c-1.4,0-1.2,0.2-1.2-1.1c0-0.7-0.2-0.8-0.7-0.9c-0.2,0-0.3,0.1-0.4,0.3
		c0,0.3,0.1,0.6,0.2,0.8c0.3,0.7,0.2,0.8-0.5,0.8c-0.2,0-0.5,0-0.7,0c-0.5,0-0.7-0.3-0.4-0.7c0.2-0.4,0.3-0.8,0.3-1.2
		c0-0.8,0.1-1.6-0.3-2.3c-0.1-0.2,0-0.4,0.3-0.4C114,88.6,114.3,88.6,114.7,88.6L114.7,88.6z M114.8,90c0,0.2-0.1,0.6,0.3,0.6
		c0.5,0.1,0.8-0.2,0.8-0.6s-0.2-0.6-0.7-0.6C114.9,89.5,114.8,89.7,114.8,90L114.8,90z"/>
	<path class="st2" d="M52.8,88.5c0.4,0,0.8,0,1.2,0c1.2,0.1,1.6,1.1,1,2.1c-0.1,0.2-0.1,0.3,0,0.5c0.2,0.6,0.2,1.2,0.5,1.7
		c0.1,0.2-0.1,0.3-0.2,0.3c-0.3,0-0.7,0-1,0c-0.2,0-0.3-0.1-0.3-0.4s0-0.7,0-1c0-0.4-0.2-0.5-0.7-0.5c-0.4,0-0.3,0.3-0.3,0.5
		c0,0.3,0.1,0.6,0.2,0.9c0.1,0.3,0,0.5-0.3,0.5c-0.4,0-0.8,0-1.1,0s-0.4-0.2-0.3-0.4c0.2-0.6,0.2-1.2,0.2-1.8c0-0.7,0.1-1.4-0.3-2
		c-0.1-0.3,0-0.4,0.3-0.4C52,88.5,52.4,88.5,52.8,88.5L52.8,88.5L52.8,88.5z M52.9,89.9c0,0.5,0.1,0.6,0.6,0.6
		c0.4,0,0.5-0.2,0.5-0.6s-0.2-0.6-0.7-0.6S52.9,89.7,52.9,89.9z"/>
	<path class="st2" d="M23.3,88.4c0.5,0,1,0,1.5,0.1c1.1,0.2,1.4,1.3,0.7,2.1c-0.1,0.1-0.1,0.2,0,0.4c0.3,0.5,0.4,1.2,0.5,1.8
		c0,0.1,0,0.2-0.1,0.2c-0.4,0.1-0.8,0.2-1.2,0c-0.2-0.1-0.1-0.2-0.1-0.3c0-0.3,0-0.5,0-0.8c0-0.4-0.5-0.7-0.9-0.6
		c-0.2,0-0.1,0.2-0.2,0.3c0,0.4,0.1,0.7,0.2,1c0.1,0.5,0.1,0.6-0.4,0.6c-0.4,0-0.7-0.1-1.1-0.1c-0.3,0-0.4-0.1-0.3-0.3
		c0.3-0.7,0.2-1.5,0.2-2.3c0-0.5-0.1-0.9-0.2-1.4c-0.2-0.5-0.1-0.6,0.4-0.6c0.2,0,0.3,0,0.5,0C23,88.5,23.1,88.5,23.3,88.4
		L23.3,88.4z M23.5,89.8c0,0.6,0,0.6,0.4,0.6c0.5,0,0.8-0.2,0.8-0.5c0-0.4-0.3-0.7-0.8-0.7C23.4,89.2,23.6,89.6,23.5,89.8z"/>
	<path class="st2" d="M119.9,93.3c-0.5,0-1.1,0-1.6,0c-0.3,0-0.5-0.1-0.3-0.4c0.5-1,0.3-2,0.3-3.1c0-0.2-0.1-0.3-0.2-0.5
		s-0.2-0.4-0.1-0.6s0.3-0.2,0.5-0.2c1,0,2.1,0,3.1-0.1c0.2,0,0.3,0.1,0.3,0.2c0,0.2,0.1,0.3,0,0.5c0,0.2,0.2,0.6-0.2,0.7
		c-0.3,0.2-0.9,0-1.1-0.3s-0.6-0.3-0.9-0.2c-0.3,0.1-0.1,0.4-0.2,0.6c0,0.2,0.1,0.3,0.3,0.3c0.3,0,0.6,0,0.9,0
		c0.2,0,0.3,0.1,0.3,0.3c0,0.2,0,0.4-0.3,0.5c-0.3,0-0.6,0-0.9,0c-0.2,0-0.4,0.1-0.4,0.3c0,0.3-0.1,0.7,0.3,0.8
		c0.3,0.1,0.7,0,0.9-0.3c0.3-0.4,0.8-0.5,1.1-0.1c0.1,0.1,0.1,0.2,0.1,0.4c0,0.7-0.3,1-1,1C120.6,93.3,120.3,93.3,119.9,93.3
		L119.9,93.3z"/>
	<path class="st2" d="M96.3,93.3c-0.5,0-0.9,0-1.4,0c-0.3,0-0.5-0.1-0.4-0.5c0.3-0.8,0.2-1.7,0.3-2.6c0-0.4-0.1-0.8-0.2-1.1
		c-0.2-0.4-0.1-0.6,0.3-0.6c1.1,0,2.2,0.1,3.2,0c0.2,0,0.3,0.1,0.3,0.3c0,0.3,0,0.7,0,1c0,0.1,0,0.2-0.1,0.2c-0.2,0.2-0.9,0-1.1-0.3
		s-0.8-0.4-1-0.2C95.9,89.7,96,90,96,90.2s0.1,0.3,0.3,0.3c0.2,0,0.5,0,0.7,0c0.3,0,0.5,0.1,0.5,0.4s-0.2,0.4-0.5,0.3
		c-0.2,0-0.3,0-0.4,0c-0.6,0-0.8,0.4-0.6,0.9c0.1,0.2,0.8,0.3,1,0c0.1-0.1,0.1-0.2,0.2-0.3c0.3-0.2,0.6-0.3,0.9-0.2
		c0.3,0.1,0.2,0.4,0.2,0.7c0,0.9,0,0.9-0.9,0.9C97.1,93.3,96.7,93.3,96.3,93.3L96.3,93.3L96.3,93.3z"/>
	<path class="st2" d="M89.5,90.9c0,0.3,0,0.6,0,0.9c0,0.7-0.3,1.2-1.1,1.3c-0.8,0.1-1.6,0.1-2.4,0.1c-0.3,0-0.5-0.2-0.3-0.6
		c0.4-0.9,0.2-1.9,0.2-2.8c0-0.3-0.2-0.5-0.3-0.8c-0.1-0.2,0-0.5,0.3-0.5c0.8,0,1.7-0.1,2.6,0.1c0.7,0.2,1.1,0.6,1.1,1.3
		C89.5,90.3,89.5,90.6,89.5,90.9L89.5,90.9L89.5,90.9z M87.1,90.9L87.1,90.9c0,0.3,0,0.7,0,1c0,0.1,0,0.3,0.1,0.3
		c0.2,0.1,0.5,0.1,0.8,0c0.2-0.1,0.3-0.3,0.3-0.5c0-0.5,0-1,0-1.5c0-0.6-0.2-0.8-0.8-0.7c-0.2,0-0.3,0.1-0.3,0.3
		C87.1,90.2,87.1,90.5,87.1,90.9L87.1,90.9z"/>
	<path class="st2" d="M84.2,93.2c-0.6,0-0.8-0.3-0.7-0.9c0.1-0.4,0-0.4-0.4-0.4c-0.2,0-0.5-0.1-0.6,0.1s0.2,0.3,0.2,0.5
		c0.1,0.6,0.1,0.7-0.5,0.7c-0.3,0-0.5,0-0.8,0c-0.4-0.1-0.5-0.2-0.3-0.6c0.3-0.8,0.6-1.6,0.7-2.4c0.1-0.4,0.2-0.9,0.3-1.3
		c0-0.2,0.2-0.3,0.3-0.3c0.4,0,0.9,0,1.3,0c0.2,0,0.3,0.1,0.4,0.3c0.2,0.7,0.4,1.5,0.5,2.2c0.1,0.4,0.2,0.9,0.4,1.3
		c0.1,0.1,0.1,0.2,0.1,0.4c0,0.3,0,0.4-0.4,0.4C84.6,93.2,84.4,93.2,84.2,93.2L84.2,93.2z M82.7,90.7c0,0.1,0,0.1,0,0.2
		c0,0.2,0.1,0.3,0.3,0.3c0.3,0,0.2-0.2,0.2-0.4c0-0.2-0.1-0.4-0.2-0.7c0-0.1,0-0.3-0.2-0.3c-0.1,0-0.1,0.2-0.1,0.3
		C82.8,90.4,82.7,90.5,82.7,90.7L82.7,90.7z"/>
	<path class="st2" d="M111.3,90.9c0-0.6,0.1-1.1-0.2-1.7c-0.2-0.4,0-0.6,0.4-0.6c0.1,0,0.2,0,0.4,0c0.6,0,0.7,0,0.6,0.6
		c-0.2,0.9-0.1,1.8-0.2,2.7c-0.1,1.2-0.8,1.4-1.6,1.5c-0.3,0-0.6,0-0.9-0.1c-0.6-0.2-0.9-0.7-0.9-1.3c0-0.7,0-1.3-0.1-1.9
		c0-0.3-0.1-0.6-0.2-0.9c-0.2-0.3-0.1-0.5,0.3-0.5s0.8,0,1.2,0c0.2,0,0.2,0.1,0.2,0.2s0,0.3,0,0.4c-0.3,0.8-0.2,1.7-0.2,2.5
		c0,0.6,0.2,0.8,0.8,0.7c0.2-0.1,0.3-0.2,0.3-0.4c0-0.2,0-0.3,0-0.5S111.3,91,111.3,90.9L111.3,90.9z"/>
	<path class="st2" d="M75.9,90.9c0,0.3,0,0.6,0,0.9c0,0.2,0.1,0.4,0.2,0.5c0.2,0.1,0.5,0.1,0.7-0.1c0.1-0.1,0.2-0.2,0.1-0.4
		c-0.1-0.1-0.2-0.2-0.3-0.4c-0.2-0.4-0.1-0.7,0.4-0.7c0.1,0,0.2,0,0.2,0c0.6,0,0.9,0.3,0.8,0.9c0,0.1-0.1,0.2,0,0.3
		c0.1,0.9,0.1,1-1,1.3c-0.6,0.1-1.3,0.2-1.9-0.2c-0.2-0.2-0.4-0.4-0.5-0.7c-0.2-1-0.2-2,0-3c0.1-0.4,0.3-0.7,0.8-0.8
		c0.8-0.2,1.5-0.1,2.3,0.1c0.2,0.1,0.4,0.2,0.4,0.5c0,0.1,0,0.2,0,0.3c0,0.2,0.1,0.5-0.3,0.6c-0.3,0.1-0.7,0.1-0.8-0.3
		c-0.1-0.3-0.4-0.4-0.6-0.3C76.1,89.5,76,89.7,76,90C75.9,90.3,75.9,90.6,75.9,90.9L75.9,90.9L75.9,90.9z"/>
	<path class="st2" d="M124.4,93.4c-0.6,0-1.1-0.1-1.5-0.4c-0.2-0.2-0.4-1.1-0.2-1.2c0.2-0.2,1-0.1,1.1,0.1s0.2,0.3,0.3,0.4
		c0.2,0.2,0.6,0.2,0.8-0.1c0.2-0.3,0.1-0.5-0.1-0.7c-0.3-0.2-0.6-0.3-0.9-0.4c-0.2-0.1-0.4-0.1-0.6-0.3c-0.5-0.4-0.7-0.8-0.5-1.4
		c0.2-0.5,0.6-0.8,1.1-0.9c0.8-0.1,1.5-0.1,2.2,0.3c0.1,0.1,0.2,0.1,0.2,0.3c0.1,0.3-0.1,0.6,0,0.8V90c-0.3,0.2-0.6,0-0.9,0
		c-0.2,0-0.2-0.1-0.3-0.2c-0.1-0.4-0.6-0.6-0.9-0.3c-0.1,0.1-0.2,0.2-0.2,0.3c0,0.2,0.2,0.3,0.3,0.4c0.3,0.1,0.7,0.2,1,0.3
		c0.7,0.2,1.1,0.6,1.1,1.2c0,0.8-0.3,1.3-1.1,1.5C124.9,93.4,124.6,93.4,124.4,93.4L124.4,93.4z"/>
	<path class="st2" d="M20.5,93.1c-0.8,0-0.8,0-0.7-0.8c0-0.2,0.2-0.4,0-0.6c-0.3-0.1-0.6-0.1-0.8,0c-0.1,0.1-0.2,0.2-0.1,0.3
		c0,0.1,0.1,0.2,0.2,0.3c0.2,0.4,0.1,0.6-0.3,0.6c-0.3,0-0.6,0.1-1,0.1s-0.5-0.1-0.3-0.4c0.5-1.2,0.8-2.4,1-3.6
		c0.1-0.4,0.2-0.6,0.7-0.6c0.3,0,0.5,0,0.8,0c0.4,0,0.6,0.2,0.7,0.6c0.3,1.2,0.5,2.4,1,3.5c0.1,0.3,0.1,0.5-0.3,0.5
		C20.9,93,20.7,93.1,20.5,93.1L20.5,93.1z M19.3,89.5C19.2,90,19,90.4,19,90.8c0,0.2,0,0.3,0.2,0.3s0.4,0,0.4-0.3
		C19.6,90.4,19.5,90,19.3,89.5L19.3,89.5z"/>
	<path class="st2" d="M10.6,93.2c-0.3,0.1-0.6-0.1-0.9-0.2c-0.7-0.2-0.9-0.4-0.8-1.2c0-0.2,0.1-0.3,0.4-0.3c0.2,0,0.4,0,0.5,0
		c0.2,0,0.4,0.1,0.4,0.3c0.1,0.4,0.3,0.5,0.7,0.4c0.2,0,0.4-0.1,0.4-0.3c0-0.3-0.1-0.6-0.5-0.7c-0.5-0.2-0.9-0.3-1.4-0.5
		c-0.6-0.4-0.7-1.2-0.2-1.8c0.3-0.3,0.7-0.5,1.1-0.5c0.6-0.1,1.2,0.1,1.7,0.2c0.4,0.2,0.6,0.9,0.4,1.2c-0.2,0.3-1,0.1-1.2-0.2
		c-0.1-0.2-0.1-0.4-0.4-0.4c-0.3-0.1-0.7,0.1-0.7,0.4s0.3,0.6,0.7,0.6c0.6,0,1.1,0.3,1.5,0.7c0.4,0.5,0.3,1.5-0.2,1.8
		S11.2,93.2,10.6,93.2L10.6,93.2z"/>
	<path class="st2" d="M92.1,92.1c0.3-1,0.8-2,0.4-3.1c-0.1-0.4-0.1-0.5,0.4-0.5c0.3,0,0.6,0,0.9,0s0.3,0.1,0.3,0.3
		c0,0.1,0,0.2-0.1,0.4c-0.5,1-0.6,2-0.8,3.1c-0.2,0.9-0.2,0.9-1.1,0.9c-1.1,0-1.1,0-1.2-1c-0.2-1.1-0.4-2.1-0.8-3.1
		c-0.2-0.5-0.1-0.6,0.4-0.6c0.4,0,0.8,0,1.1,0c0.2,0,0.4,0.1,0.3,0.3c-0.4,1,0.1,1.9,0.2,2.8C91.9,91.8,91.9,92,92.1,92.1L92.1,92.1
		z"/>
	<path class="st2" d="M105.8,88.6c0.6,0,1.1,0,1.7,0c0.3,0,0.5,0.1,0.5,0.4c0,0.4,0,0.8,0,1.1c0,0.2,0,0.4-0.3,0.4s-0.6,0.1-0.7-0.3
		c0-0.2,0-0.4-0.1-0.5s-0.1-0.2-0.3-0.2c-0.1,0-0.1,0.1-0.1,0.2c0.1,1-0.2,2,0.2,3c0.2,0.4,0,0.5-0.4,0.5c-0.3,0-0.7,0-1,0
		s-0.4-0.1-0.4-0.4c0-0.1,0-0.1,0-0.2c0.4-1,0.2-2,0.2-3c0-0.1,0-0.2-0.1-0.3s-0.2,0.1-0.3,0.2c-0.1,0.1-0.1,0.3-0.1,0.4
		c0,0.3-0.2,0.4-0.5,0.4s-0.4-0.1-0.5-0.4c0-0.4,0-0.8-0.1-1.1c0-0.3,0.2-0.4,0.4-0.4C104.7,88.6,105.2,88.6,105.8,88.6L105.8,88.6
		L105.8,88.6z"/>
	<path class="st2" d="M15.2,88.4c0.6,0,1.2,0,1.8,0c0.3,0,0.4,0.1,0.4,0.4s0,0.7,0,1.1c0,0.3-0.2,0.4-0.5,0.4s-0.5,0-0.5-0.4
		c0-0.1,0-0.2,0-0.2c0-0.2-0.1-0.3-0.3-0.3c-0.2,0-0.2,0.2-0.2,0.3c0,1-0.1,2,0.2,2.9c0.1,0.3,0,0.4-0.3,0.4c-0.4,0.1-0.8,0-1.2,0
		c-0.3,0-0.3-0.2-0.3-0.4c0.3-0.9,0.3-1.9,0.3-2.9c0-0.2,0.1-0.4-0.2-0.4c-0.2,0-0.2,0.2-0.2,0.3c-0.1,0.3-0.2,0.5-0.5,0.5
		c-0.5,0.1-0.6,0-0.6-0.4c0-0.3,0-0.7-0.1-1c0-0.3,0.1-0.4,0.4-0.4C14.1,88.5,14.7,88.4,15.2,88.4L15.2,88.4L15.2,88.4z"/>
	<path class="st2" d="M42.9,88.5c0.5,0,1,0,1.5-0.1c0.4-0.1,0.9,0,1.3,0.2c0.2,0.1,0.2,0.2,0.2,0.3c0,0.3,0,0.6,0,0.9
		s-0.1,0.5-0.5,0.5c-0.3,0-0.5-0.1-0.6-0.5v-0.1c-0.1-0.2,0-0.4-0.3-0.4c-0.2,0-0.2,0.3-0.2,0.4c0,0.9-0.2,1.9,0.2,2.8
		c0.1,0.3,0,0.5-0.3,0.4c-0.3,0-0.7,0-1.1,0c-0.4,0-0.5-0.2-0.4-0.5c0.4-0.9,0.2-1.9,0.2-2.8v-0.1c0-0.1,0-0.3-0.2-0.3
		s-0.2,0.2-0.2,0.3c-0.1,0.6-0.3,0.7-0.7,0.7c-0.2,0-0.3-0.1-0.3-0.3c0-0.4,0-0.8,0-1.2c0-0.2,0.2-0.3,0.4-0.3
		C42.3,88.5,42.6,88.5,42.9,88.5L42.9,88.5z"/>
	<path class="st2" d="M64.6,93.2c-0.5,0-1,0-1.5,0c-0.3,0-0.3-0.1-0.2-0.4c0.5-1,0.3-2.1,0.2-3.2c0-0.2-0.2-0.4-0.3-0.7
		c-0.1-0.3,0.1-0.4,0.3-0.5c0.4,0,0.8,0,1.2,0c0.4,0,0.5,0.2,0.4,0.6c-0.4,1-0.2,2-0.2,3c0,0.2,0.1,0.2,0.3,0.2
		c0.3-0.1,0.6,0,0.7-0.4c0-0.2,0-0.3,0-0.4c0-0.2,0.1-0.4,0.4-0.4s0.7-0.1,0.7,0.4s0,1,0,1.5c0,0.3-0.2,0.3-0.4,0.3
		C65.6,93.2,65.1,93.2,64.6,93.2L64.6,93.2L64.6,93.2z"/>
	<path class="st2" d="M60.7,93.2c-0.5,0.1-1-0.1-1.5,0.1c-0.4,0.1-0.7-0.2-0.5-0.6c0.5-1.2,0.4-2.4,0-3.6c-0.1-0.4,0-0.5,0.3-0.5
		s0.8,0,1.1,0.1s0.4,0.2,0.3,0.4c-0.4,0.9-0.2,1.8-0.2,2.7c0,0.5,0.2,0.7,0.8,0.5c0.2-0.1,0.2-0.3,0.2-0.6c0-0.5,0.1-0.6,0.6-0.6
		c0.3,0,0.5,0.2,0.5,0.6s0,0.8,0,1.2c0,0.3-0.1,0.3-0.3,0.3C61.6,93.2,61.2,93.2,60.7,93.2L60.7,93.2z"/>
	<path class="st2" d="M32.2,93.1c-1.1,0-1.1,0-0.7-1.1c0.1-0.3,0.1-0.7-0.1-1c-0.3-0.5-0.6-1-0.9-1.5c0-0.1-0.1-0.1-0.1-0.2
		c-0.4-0.9-0.2-0.9,0.5-0.9l0,0c0.3,0,0.5-0.1,0.8,0s0.1,0.4,0.2,0.7c0.1,0.2,0.2,0.4,0.3,0.6c0.1,0.3,0.3,0.2,0.4,0
		c0.2-0.3,0.3-0.6,0.3-1c0-0.3,0.1-0.4,0.4-0.4c0.3,0,0.5,0,0.8,0s0.4,0.1,0.3,0.4c-0.1,0.3-0.3,0.5-0.4,0.8c-0.3,0.5-0.6,1-0.9,1.5
		c-0.1,0.2-0.1,0.5,0,0.8C33.3,93.1,33.3,93.1,32.2,93.1L32.2,93.1z"/>
	<path class="st2" d="M28.9,93.1c-0.8,0-1.4,0-2-0.1c-0.2,0-0.3-0.1-0.2-0.3c0.5-0.9,0.2-1.9,0.3-2.9c0-0.2-0.1-0.4-0.2-0.6
		c-0.3-0.5-0.1-0.7,0.4-0.7c0.3,0,0.6,0,1,0s0.4,0.2,0.3,0.4c-0.5,0.9-0.2,1.9-0.3,2.9c0,0.2,0,0.4,0.3,0.4s0.7,0.1,0.8-0.3
		c0-0.1,0-0.2,0-0.3c0-0.3,0-0.6,0.3-0.6c0.5,0,0.7,0.1,0.8,0.5c0,0.5,0,0.9,0,1.4c0,0.2-0.2,0.2-0.3,0.2
		C29.6,93.1,29.1,93.1,28.9,93.1L28.9,93.1z"/>
	<path class="st2" d="M86.3,99c-0.2,0.5-0.6,0.8-0.9,1.1c-0.7,0.7-1.4,1.4-2.2,2c-0.5,0.4-1,0.3-1.5,0.2c-0.4-0.2-0.5-0.5-0.3-0.9
		c0.4-0.7,0.8-1.4,1.2-2.1c0.1-0.1,0.1-0.2,0.2-0.2c0.1-0.1,0.2-0.2,0.2-0.3c-0.1-0.2-0.2-0.1-0.3-0.1c-0.1,0-0.2-0.1-0.2-0.2
		s0.1-0.1,0.2-0.1c0.6,0,1-0.3,1.4-0.7c0.1-0.2,0.3-0.3,0.4-0.4c0.4-0.3,0.6-0.3,0.9,0c0.1,0.1,0.3,0.2,0.5,0.3
		c0.2,0.1,0.3,0.1,0.5,0.2c0,0.2-0.2,0.1-0.4,0.2c-0.8,0.1-1.3,0.6-1.8,1.1c-0.6,0.7-1.2,1.5-1.7,2.2l-0.1,0.1
		c-0.1,0.1-0.2,0.3,0,0.4c0.1,0.1,0.3,0,0.4-0.1c0.9-0.6,1.7-1.3,2.5-2C85.5,99.5,85.8,99.2,86.3,99L86.3,99z"/>
	<path class="st2" d="M57,88.5c0.9,0,0.9,0,0.7,0.9c-0.2,1-0.2,2,0,2.9c0,0.1,0,0.2,0.1,0.3c0.1,0.3-0.1,0.5-0.5,0.5
		c-0.3,0-0.6,0-0.9,0c-0.4,0-0.5-0.2-0.4-0.5c0.4-0.9,0.2-1.8,0.2-2.8c0-0.3-0.1-0.7-0.2-1c-0.1-0.3-0.1-0.4,0.3-0.4
		C56.6,88.5,56.8,88.5,57,88.5L57,88.5z"/>
	<path class="st2" d="M67.4,91.1c0-0.8,0.1-1.4-0.3-2c-0.2-0.3-0.1-0.5,0.3-0.6s0.9,0,1.3-0.1c0.1,0,0.2,0.1,0.2,0.2
		c0,0.2,0,0.3,0,0.4c-0.3,1-0.2,2-0.2,3c0,0.2,0.2,0.5,0.2,0.7s-0.1,0.4-0.3,0.4c-0.4,0-0.9,0-1.3-0.1c-0.2,0-0.3,0-0.2-0.3
		C67.4,92.2,67.4,91.5,67.4,91.1z"/>
	<path class="st2" d="M40.4,98.6c-0.3,0-0.4-0.1-0.3-0.4c0.1-0.2,0.2-0.5,0.4-0.7c0.3-0.4,1-0.5,1.3-0.1c0.1,0.1,0.1,0.3,0,0.3
		c-0.4,0.2-0.6,0.5-1,0.7C40.7,98.5,40.6,98.6,40.4,98.6L40.4,98.6z"/>
	<path class="st1" d="M106.2,45.8c0.4-0.6,0.9-0.9,1.3-1.3c1.2-1,2.4-2,3.6-3l0.1-0.1c0.2-0.1,0.4-0.4,0.7-0.3
		c0.2,0.1,0.1,0.5,0.1,0.7c-0.1,0.9-0.1,1.9-0.3,2.8c0,0,0,0,0,0.1c-0.1,1-0.2,1.1-1.2,1.1C109.1,45.8,107.7,45.8,106.2,45.8z"/>
	<path class="st1" d="M48.3,99.5c0,0.1,0,0.2-0.2,0.4c-0.5,0.6-1.2,1-1.8,1.4c-0.1,0.1-0.2,0.1-0.2,0c-0.1-0.1,0-0.2,0-0.2
		c0.5-0.7,1-1.4,1.8-1.8C48.2,99.1,48.3,99.2,48.3,99.5L48.3,99.5z"/>
	<path class="st1" d="M45.8,103.1c-0.3,0.4-0.5,0.9-1.1,1.1c-0.1,0-0.3,0.1-0.4-0.1c0-0.1,0.1-0.2,0.2-0.3
		C44.9,103.5,45.3,103.3,45.8,103.1C45.8,103,45.8,103,45.8,103.1z"/>
	<path class="st1" d="M22.3,98.8L22.3,98.8C22.3,98.9,22.2,98.8,22.3,98.8L22.3,98.8L22.3,98.8L22.3,98.8z"/>
	<path class="st1" d="M122.2,100.2c0.2,0.7-0.3,1.6-0.9,1.8c-0.2,0.1-0.3-0.1-0.3-0.3C121.1,101.5,121.9,100.3,122.2,100.2z"/>
	<path class="st1" d="M116,100.7c-0.1-0.2,0.1-0.3,0.2-0.4c0.3-0.2,0.6-0.4,0.9-0.7c0.1,0,0.1-0.1,0.2,0c0,0.1,0,0.1,0,0.1
		C116.9,100.1,116.4,100.3,116,100.7z"/>
	<path class="st1" d="M79.4,100.2c0.1,0.8-0.3,1.6-0.8,1.8c-0.1,0-0.2,0.1-0.3,0c-0.1-0.1-0.1-0.3,0-0.3
		C78.7,101.3,78.9,100.7,79.4,100.2C79.3,100.2,79.3,100.2,79.4,100.2L79.4,100.2z"/>
	<path class="st1" d="M76.1,100.5c-0.1-0.1-0.1-0.2,0.1-0.3c0.3-0.2,0.6-0.4,0.8-0.6c0.1-0.1,0.1-0.1,0.2,0s0,0.2-0.1,0.2
		C76.9,100.1,76.5,100.3,76.1,100.5L76.1,100.5z"/>
	<path class="st1" d="M65.4,100.5c0.3-0.4,0.7-0.8,1.3-1.1C66.4,100,65.9,100.2,65.4,100.5z"/>
	<path class="st1" d="M114.8,90c0-0.3,0-0.5,0.4-0.5c0.5,0,0.7,0.2,0.7,0.6c0,0.3-0.3,0.6-0.8,0.6C114.8,90.6,114.9,90.2,114.8,90
		L114.8,90z"/>
	<path class="st1" d="M52.9,89.9c0.1-0.2-0.1-0.6,0.4-0.6s0.7,0.2,0.7,0.6s-0.1,0.6-0.5,0.6C53,90.5,52.9,90.4,52.9,89.9z"/>
	<path class="st1" d="M23.5,89.8c0-0.2-0.1-0.6,0.4-0.6c0.4,0,0.8,0.3,0.8,0.7c0,0.3-0.3,0.5-0.8,0.5C23.5,90.4,23.5,90.4,23.5,89.8
		z"/>
	<path class="st1" d="M87.1,90.9c0-0.3,0-0.7,0-1.1c0-0.2,0.1-0.3,0.3-0.3c0.6,0,0.8,0.1,0.8,0.7c0,0.5,0,1,0,1.5
		c0,0.2,0,0.4-0.3,0.5c-0.2,0.1-0.5,0.1-0.8,0C87,92.1,87,92,87,91.9C87.1,91.5,87.1,91.2,87.1,90.9C87.1,90.8,87.1,90.8,87.1,90.9
		L87.1,90.9z"/>
	<path class="st1" d="M82.7,90.7c0-0.2,0-0.3,0.1-0.5c0-0.1-0.1-0.3,0.1-0.3s0.1,0.2,0.2,0.3c0.1,0.2,0.1,0.4,0.2,0.7
		c0,0.2,0.1,0.4-0.2,0.4c-0.2,0-0.4-0.1-0.3-0.3C82.7,90.8,82.7,90.8,82.7,90.7L82.7,90.7z"/>
	<path class="st1" d="M19.3,89.5c0.2,0.5,0.3,0.9,0.3,1.3c0,0.3-0.2,0.3-0.4,0.3c-0.2,0-0.2-0.2-0.2-0.3
		C19.1,90.4,19.2,90,19.3,89.5L19.3,89.5z"/>
</g>
</svg>
