<?xml version="1.0" encoding="UTF-8"?>
<svg id="Layer_2" data-name="Layer 2" xmlns="http://www.w3.org/2000/svg" viewBox="0 0 136.8 115.2">
  <defs>
    <style>
      .cls-1 {
        fill: #1b7632;
      }

      .cls-2 {
        fill: #fef000;
      }

      .cls-3 {
        fill: #fefefe;
      }
    </style>
  </defs>
  <g id="Layer_1-2" data-name="Layer 1">
    <g>
      <path class="cls-3" d="m68.41,115.19c-22.67,0-45.35,0-68.02,0-.34,0-.39-.08-.39-.4C0,76.67,0,38.54,0,.4,0,.09.05,0,.39,0c45.33.01,90.66.01,136,0,.35,0,.41.08.41.42,0,38.13,0,76.26,0,114.4,0,.29-.05.38-.37.38-22.67,0-45.35,0-68.02,0Zm-59.38-.63c.37.12.75.1,1.13.1,9.82,0,19.63,0,29.45,0,13.46,0,26.92,0,40.38,0,15.91,0,31.82,0,47.73.02.3,0,.59,0,.89-.07,1.04-.23,2.1-.35,3.07-.9,1.29-.73,2.49-1.57,3.31-2.83.9-1.4,1.32-2.94,1.32-4.61,0-7.65,0-15.31,0-22.96,0-1.1.04-2.19-.06-3.29-.05-.63.05-1.28.05-1.92.02-8.05.03-16.09,0-24.14-.02-6.93.07-13.85-.05-20.78-.03-1.58.05-3.16.05-4.75,0-6.33,0-12.67,0-19,0-1.23-.19-2.42-.64-3.54-.29-.73-.76-1.41-1.28-2.03-.51-.5-.99-1.07-1.61-1.42-1.17-.66-2.38-1.24-3.76-1.37-.36-.04-.74,0-1.1-.12-.73-.13-1.46-.09-2.2-.09-6.95,0-13.9,0-20.85,0-31.73,0-63.46,0-95.2,0-.04,0-.08,0-.12,0h-.12c-1.43.13-2.81.48-4.1,1.08-1.01.47-1.86,1.19-2.59,2.05-.27.37-.57.72-.81,1.11-.53.85-.93,1.76-1.03,2.77-.04.41-.14.82-.1,1.24,0,.57,0,1.14,0,1.71,0,19.68,0,39.36,0,59.04,0,10.86,0,21.72,0,32.58,0,1.11,0,2.23,0,3.34-.06.88.07,1.76.24,2.62.25,1.29.97,2.32,1.84,3.3.94,1.06,2.1,1.78,3.36,2.37.61.28,1.24.44,1.92.37.28-.03.58-.02.85.13Z"/>
      <path class="cls-2" d="m.83,9.1c-.04-.42.06-.83.1-1.24.16,0,.21-.1.26-.25.16-.49.35-.98.54-1.47.23-.61.68-1.09,1-1.65.1-.17.28-.33.05-.53.73-.85,1.58-1.57,2.59-2.05,1.29-.61,2.67-.96,4.1-1.08.04.04.08.04.12,0,.04,0,.08,0,.12,0,.08.14-.06.34.13.44.11.06.23.01.29-.09.19-.35.51-.29.82-.29.52,0,1.03,0,1.55,0,.2,0,.41-.05.58.18.1.13.42.13.52,0,.18-.26.41-.18.62-.18,31.32,0,62.63,0,93.95,0,5.37,0,10.74,0,16.11,0,.14,0,.3-.06.42.07.27.29.62.39,1.01.38.63,0,1.25-.02,1.88,0,.33,0,.46-.11.37-.43.35.13.73.09,1.1.12,1.38.13,2.59.71,3.76,1.37.62.35,1.1.91,1.61,1.42-.4.16-.21.35-.04.57.69.91,1.32,1.86,1.48,3.03.12.9.12,1.81.12,2.72,0,9.54,0,19.08,0,28.62,0,22.56,0,45.13,0,67.69,0,.78-.04,1.56-.29,2.33-.43,1.29-1.29,2.28-2.17,3.26-.25.28-.54.52-.87.72-.54.34-1.11.6-1.67.9-.37.2-.71.36-1.14.34-.11,0-.25,0-.3.1-.2.38-.55.29-.82.22-.55-.15-1.1-.15-1.66-.15-3.39,0-6.77,0-10.16,0-34.36,0-68.71,0-103.07,0-1.48,0-2.97,0-4.45.01-.23,0-.46,0-.35.34-.26-.16-.57-.16-.85-.13-.68.07-1.31-.09-1.92-.37.06-.24-.06-.36-.26-.48-1.2-.69-2.42-1.36-3.29-2.51-.62-.8-1.1-1.67-1.4-2.63-.2-.64-.11-1.32-.12-1.98,0-.3-.04-.57-.36-.7,0-1.11,0-2.23,0-3.34.13-.06.17-.17.16-.3-.06-.63.07-1.24.09-1.87.01-.45-.09-.89-.09-1.34,0-1.43,0-2.86,0-4.28s0-2.86,0-4.28c0-1.43,0-2.86,0-4.28,0-1.43.02-2.86,0-4.28-.03-1.41.07-2.81.02-4.22-.05-1.3-.01-2.61-.01-3.92,0-1.31,0-2.61,0-3.92s0-2.61,0-3.92,0-2.61,0-3.92c0-1.29,0-2.58,0-3.87,0-1.31,0-2.61,0-3.92v-7.83c0-1.31.03-2.61,0-3.92-.04-1.29.03-2.57.03-3.86,0-8.28-.12-16.56.06-24.85.02-.99,0-1.98,0-2.97,0-.24.14-.5.09-.72-.07-.3.23-.77-.34-.88Zm21.47,89.7h0c.02-.14.14-.2.21-.29.43-.51.94-.94,1.41-1.41.42-.41.36-.77-.08-1.17-.58-.54-1.25-.55-1.94-.39-.84.2-1.69.22-2.54.44-.84.22-1.72.43-2.61.3-.1-.01-.24-.02-.28.11-.04.12.05.2.13.28.46.48,1.04.5,1.63.38.62-.13,1.23-.32,1.84-.5.88-.27,1.76-.55,2.7-.54.13,0,.31-.06.36.1.04.12-.04.26-.14.36-.05.05-.1.1-.15.14-.86.68-1.67,1.42-2.37,2.26-.69.83-1.42,1.62-2.02,2.52-.21.32-.17.54.13.75.29.2.64.2.82-.07.6-.91,1.56-1.43,2.35-2.13.85-.74,1.84-1.27,2.73-1.95.1-.08.24-.15.33-.05.09.1-.06.18-.12.26-.59.67-1.37,1.15-1.93,1.85-.34.43-.74.82-.93,1.36-.1.29-.02.52.19.74.24.24.52.29.82.21.23-.06.29-.31.43-.46,1-1.08,2.18-1.95,3.35-2.83.23-.17.45-.34.73-.44.26-.09.5-.25.79-.41-.06.2-.16.27-.26.35-.7.56-1.35,1.17-1.89,1.89-.3.4-.59.81-.8,1.27-.15.33-.05.63.23.83.22.17.46.08.67-.08.28-.21.58-.38.84-.63.32-.31.69-.57,1.06-.86.06.28-.01.52.21.73.55.51,1.06.52,1.59,0,.03-.03.05-.06.08-.09.14-.14.27-.11.29.07.03.3.26.36.47.44.7.25,1.17-.2,1.64-.59.17-.14.3-.34.51-.44.07.09.04.17.01.24-.13.35.03.58.32.74.3.17.48-.03.65-.24.37-.48.76-.96,1.21-1.37.36-.33.73-.64,1.11-.95.11-.09.3-.18.4-.1.13.11.01.3-.08.4-.34.36-.65.76-1.15.95-.46.17-.56.4-.46.89.07.35.42.62.78.63.55.02.99-.25,1.41-.55.14-.1.28-.19.43-.01.57.65,1.22.55,1.92.25.31-.13.52-.39.77-.58.07-.05.13-.17.24-.11.13.06.05.17.01.25-.1.23,0,.39.18.52.19.14.39.11.57-.03.13-.1.23-.23.34-.35.7-.8,1.46-1.53,2.34-2.13.07-.04.13-.12.21-.06.08.06.04.16,0,.23-.04.08-.11.15-.16.23-.3.38-.72.66-.93,1.13-.14.32-.18.63.03.95.21.32.49.29.81.25.33-.04.62-.14.87-.36.19-.16.38-.16.6-.07.33.13.64.33,1.06.33-.22.26-.48.39-.72.53-.48.28-.94.59-1.33.99-.4.4-.31.82.19,1.08.55.29.99.04,1.41-.29.47-.36.82-.83,1.14-1.32.54-.85,1.22-1.53,2.17-1.93.93-.39,1.75-.98,2.47-1.7.11-.11.29-.25.14-.4-.13-.13-.3.02-.42.13-.34.27-.66.57-1.02.82-.46.32-.93.64-1.54.74.02-.09.02-.15.05-.19.38-.43.7-.93,1.13-1.32.24-.22.21-.37-.1-.44-.29-.07-.6-.19-.89.05-.11.09-.3.09-.43,0-.92-.57-1.84.09-2.35.62-.68.71-1.11,1.64-2,2.15-.1.06-.15.24-.29.15-.14-.09-.09-.25-.07-.37.02-.1.09-.2.17-.27.51-.52.93-1.12,1.48-1.6.17-.15.15-.31,0-.46-.3-.29-1.14-.36-1.52-.16-.48.25-.89.6-1.33.91-.15.11-.28.24-.53.19.12-.18.29-.3.45-.44.19-.18.33-.4.14-.64-.2-.25-.45-.1-.67,0-.07.03-.14.09-.19.16-.51.66-1.16,1.18-1.76,1.75-.37.34-.78.58-1.23.77-.07.03-.15.1-.22.03-.08-.08-.04-.19,0-.27.17-.28.32-.57.53-.82.4-.46.83-.9,1.25-1.34.1-.11.19-.21.04-.34-.24-.2-1.02-.19-1.23.04-.2.21-.38.44-.56.67-.56.72-1.14,1.43-2,1.81-.26.11-.52.24-.81.05.05-.18.19-.23.32-.29.39-.18.76-.39,1.07-.71.39-.41.44-.93.12-1.32-.28-.35-.78-.37-1.25-.05-.28.19-.57.37-.81.62-.09.09-.21.17-.33.09-.16-.11,0-.22.05-.31.31-.57.79-.98,1.26-1.42.24-.22.53-.39.68-.69.14-.27.03-.5-.26-.58-.21-.05-.37.03-.53.14-.52.36-.83.92-1.28,1.34-.54.51-.97,1.09-1.43,1.65-.53.65-1.21,1.11-1.88,1.59-.1.07-.26.18-.36.06-.1-.11,0-.26.06-.38.19-.4.5-.7.82-.98.26-.22.14-.32-.09-.43-.46-.21-.87-.09-1.24.19-.44.33-.86.69-1.2,1.14-.06.07-.14.17-.24.11-.09-.06-.03-.17,0-.26.25-.6.69-1.03,1.19-1.42.38-.29.78-.48,1.26-.18.09.06.25.1.32-.06.06-.14-.05-.23-.14-.31-.44-.36-.95-.45-1.5-.32-.61.14-1.04.55-1.43,1-.6.7-1.4,1.07-2.19,1.48.34-.48.71-.94,1.1-1.37.58-.66,1.23-1.25,1.89-1.82.26-.22.18-.4-.06-.54-.34-.21-.7-.26-1.08-.07-.54.28-1.05.62-1.57.93-.74.44-1.48.89-2.18,1.41-.05.04-.11.08-.18.01.32-.6.9-.96,1.31-1.48.26-.33.52-.67.9-.86.22-.11.43-.29.38-.5-.05-.2-.32-.3-.56-.34-.04,0-.08,0-.12,0-.48-.05-.89.18-1.27.41-.69.4-1.34.87-2.04,1.26-.33.18-.56.58-1,.54ZM94.84,12.41c-1.17.83-2.4,1.45-3.59,2.13-1.66.95-3.3,1.93-4.96,2.87-2.24,1.28-4.49,2.54-6.73,3.81-1.45.82-2.88,1.67-4.35,2.46-1.7.91-3.34,1.94-5.01,2.91-1.31.77-2.63,1.53-3.95,2.29-1.64.93-3.29,1.85-4.93,2.78-1.87,1.07-3.74,2.16-5.61,3.24-.22.13-.43.13-.67-.02-1.19-.76-2.4-1.5-3.61-2.25-.89-.55-1.79-1.07-2.68-1.63-1.68-1.05-3.32-2.16-5.03-3.16-1.44-.84-2.85-1.75-4.25-2.65-.72-.46-1.47-.87-2.2-1.31-.25-.15-.41-.16-.37.2.05.53.04,1.09.18,1.6.33,1.16.42,2.36.6,3.54.22,1.44.45,2.87.67,4.31.25,1.64.48,3.28.76,4.91.15.87.3,1.75.39,2.63.05.48.26.93.25,1.43,0,.34-.12.51-.4.66-2.54,1.32-5.08,2.66-7.62,3.99-1.86.97-3.74,1.94-5.6,2.91-2.56,1.34-5.11,2.71-7.69,4.03-1.9.97-3.77,2-5.7,2.9-.2.09-.54.24-.49.46.06.24.4.09.62.13.05,0,.11,0,.16,0,1.08-.12,2.16-.19,3.24-.2,2.44-.03,4.89-.04,7.33-.19,1.65-.1,3.31-.16,4.97-.15,2.31.01,4.62-.02,6.93-.14,1.9-.1,3.8-.1,5.71-.13.65-.01.66.02.73.68.09.9.17,1.8.33,2.69.14.78.23,1.57.33,2.35.09.72.26,1.43.31,2.14.08,1.12.34,2.22.47,3.33.15,1.33.31,2.66.59,3.98.22,1.06.29,2.14.44,3.22.18,1.32.37,2.63.56,3.95.02.11.04.21.16.25.16.05.17-.1.23-.17.51-.69,1.01-1.37,1.52-2.06,2.07-2.8,4.15-5.61,6.22-8.41,1.32-1.79,2.64-3.58,3.95-5.37,1.56-2.12,3.12-4.24,4.69-6.36.09-.13.16-.29.36-.29.56,0,1.1-.14,1.66-.15,1.7-.04,3.39-.08,5.09-.22,1.96-.16,3.93-.26,5.9-.26.79,0,1.6.06,2.38-.02,1.36-.13,2.72-.31,4.09-.33.39,0,.79.07,1.16.03,1.35-.14,2.7-.28,4.05-.33,2.48-.08,4.96-.14,7.44-.26,1.8-.09,3.6-.31,5.41-.26.9.02,1.8-.02,2.69-.05.45-.02.89-.09,1.33-.14.09-.01.21-.03.21-.15,0-.1-.1-.16-.19-.18-.07-.01-.14,0-.2-.01-2.66-.05-5.33-.05-7.99-.18-2.19-.11-4.39-.15-6.59-.17-2.13-.02-4.26-.12-6.39-.17-.48-.01-.97-.03-1.46-.06-1.6-.12-3.2-.2-4.8-.24-2.92-.07-5.84,0-8.76-.16-2.14-.12-4.29-.09-6.44-.16-1.86-.06-3.72.06-5.58-.19-.42-.06-.82-.16-1.25-.16-5.05.06-10.09-.21-15.13-.19-.19,0-.37,0-.51-.16.07-.12.17-.18.27-.25.62-.47,1.29-.86,1.94-1.29,2.53-1.67,5.02-3.38,7.53-5.08,3.21-2.17,6.41-4.33,9.62-6.5,1.95-1.32,3.89-2.63,5.84-3.95,2.6-1.76,5.2-3.51,7.8-5.27,1.38-.94,2.73-1.91,4.11-2.84,1.19-.8,2.4-1.56,3.59-2.37,1.78-1.21,3.56-2.43,5.34-3.64.41-.28.78-.61,1.28-.77.01.18-.07.28-.14.4-.62.98-1.27,1.95-1.87,2.95-1.57,2.66-3.24,5.24-4.91,7.83-.74,1.15-1.46,2.32-2.19,3.48-.1.15-.17.33,0,.43.17.12.24-.11.32-.21.56-.69,1.11-1.4,1.67-2.09,2.12-2.66,4.24-5.31,6.35-7.97.92-1.16,1.81-2.36,2.74-3.52,1.05-1.32,2.14-2.6,3.19-3.92,1.01-1.28,2.03-2.55,3.06-3.81.42-.52.94-.98,1.11-1.74Zm-31.07,34.97c-.15,0-.2.08-.23.15-.37.68-.86,1.28-1.28,1.93-.27.42-.55.84-.8,1.27-.1.17-.17.5.16.4.89-.25,1.75-.25,2.64-.07.55.11,1.12.12,1.68.15.65.03,1.28.2,1.94.19,1.47-.02,2.92-.01,4.39-.22,1.21-.17,2.41-.29,3.58-.67,1.07-.35,2.14-.72,3.1-1.31,1.27-.78,2.29-1.82,2.89-3.2.38-.87.33-1.83-.57-2.48-.5-.36-1.04-.47-1.58-.58-1.16-.23-2.33-.46-3.47-.77-.44-.12-.87-.3-1.21-.64-.23-.24-.28-.48-.15-.8.36-.94,1.11-1.42,2.01-1.62,1.37-.29,2.73-.18,4.05.32,1.07.41,2,.97,2.54,2.04.12.24.33.04.4-.08.76-1.09,1.51-2.19,2.24-3.3.26-.4.21-.44-.26-.45-2.22-.01-4.43-.01-6.65-.03-2.36-.02-4.71-.05-6.98.75-1.73.6-3.48,1.14-4.95,2.3-.79.63-1.44,1.36-1.65,2.38-.1.48-.14.98.15,1.45.45.74,1.18,1.1,1.92,1.38,1.08.42,2.21.71,3.31,1.07.48.15.94.38,1.33.69.42.33.45.63.12,1.04-.29.36-.64.66-1.06.87-1.34.66-2.74.7-4.17.42-.83-.16-1.64-.37-2.34-.91-.58-.44-.99-.95-1.09-1.66Zm33.46,3.39c.18.04.24.06.31.06,1.48,0,2.96,0,4.45,0,.23,0,.38-.09.37-.37,0-.23.11-.45.22-.65.49-.88,1.14-1.64,1.85-2.35.13-.13.28-.21.47-.21,1.85,0,3.7-.01,5.55,0,.35,0,.48.18.36.49-.42,1.14-.97,2.19-2.09,2.82-.1.06-.24.14-.19.28.04.12.19.06.29.07.08.01.16,0,.24,0,3.54-.01,7.07-.02,10.61-.04.14,0,.33.08.4-.09.07-.16-.09-.27-.18-.38-.44-.55-.77-1.18-.87-1.86-.23-1.55-.31-3.11-.2-4.67.06-.85.16-1.71.31-2.54.21-1.11.52-2.22,1.06-3.24.21-.39.15-.46-.31-.45-2.37.05-4.74.07-7.11,0-.25,0-.34.07-.25.35.13.39.03.82-.22,1.1-.57.63-1.19,1.23-1.84,1.79-2.56,2.19-5.18,4.31-7.9,6.3-1.23.9-2.42,1.84-3.75,2.59-.52.29-1.01.63-1.6,1Zm-12.35.12c.36-.02.7-.05,1.04-.05,2.38,0,4.76.02,7.14,0,.61,0,1.23.06,1.84,0,.27-.03.3-.13.21-.34-.05-.11-.12-.21-.18-.32-.24-.38-.28-.75-.02-1.14.38-.57.74-1.15,1.11-1.72,1.09-1.64,2.19-3.26,3.26-4.9.65-1,1.38-1.92,2.38-2.59.87-.59,1.8-1.03,2.9-.74.49.13.8.42.89.94.12.66.05,1.33.03,1.99,0,.18-.14.46.04.52.25.09.22-.25.31-.39.86-1.26,1.7-2.52,2.55-3.78.11-.17.22-.34.3-.53.09-.19.04-.31-.21-.29-.27.02-.54.05-.81.05-2.45,0-4.89-.02-7.34-.03-1.96,0-3.91,0-5.87-.01-1.66,0-3.32-.01-4.98-.01-.42,0-.8.09-1.04.5-.32.55-.67,1.07-1.02,1.6-.51.75-1.02,1.5-1.54,2.25-.1.15-.22.3-.15.55.94-.85,1.95-1.54,2.99-2.2.95-.61,1.93-1.17,3.14-1.08.5.04.9.43.93.93.04.61-.12,1.16-.48,1.64-.56.73-.94,1.56-1.45,2.32-.65.97-1.26,1.96-1.98,2.88-1.1,1.4-2.22,2.78-3.83,3.66-.1.05-.17.12-.18.3Zm25.05,50.12c.09.38-.4.62-.19.95.21.34.66.14.97.31.18.09.42.08.63-.02.35-.18.7-.35,1.03-.55.68-.39,1.11-1.03,1.58-1.61.31-.38.58-.36.95-.26.28.07.32.18.11.37-.22.19-.37.43-.53.67-.21.33-.16.61.07.89.36.45,1.08.69,1.63.56.51-.12.97-.33,1.34-.71.13-.14.29-.25.42,0,.43.85.83.99,1.71.65.22-.09.47-.13.7.02.61.4,1.24.26,1.85.03.77-.29,1.32-.91,1.28-1.77-.03-.69-.01-1.37.63-1.84.11-.08.13-.2.05-.33-.07-.12-.17-.16-.31-.14-.26.04-.48.17-.67.35-.3.31-.59.63-.9.92-.56.51-1.12,1.01-1.7,1.49-.4.33-.74.72-1.19.98-.12.07-.27.12-.38.04-.14-.11-.03-.25.02-.37.18-.38.43-.72.68-1.06.78-1.04,1.67-1.99,2.6-2.9.22-.22.17-.37-.05-.52-.33-.22-.61-.14-.88.11-.8.75-1.56,1.55-2.26,2.4-.78.94-1.71,1.63-2.82,2.12-.24.11-.5.1-.76.08-.19-.02-.28-.15-.29-.33-.01-.18.04-.37.23-.38.26,0,.45-.16.68-.23.71-.21,1.31-.62,1.76-1.22.21-.28.12-.62-.19-.74-.51-.19-1.04-.23-1.52.11-.44.31-.82.43-1.34.06-.58-.41-.99-.27-1.37.18-.38.47-.77.93-1.15,1.39-.36.44-.81.75-1.32,1-.07.04-.15.09-.22.01-.07-.07-.02-.15.03-.22.12-.19.22-.41.36-.58.44-.53.9-1.04,1.34-1.56.08-.1.27-.2.11-.37-.18-.2-.84-.19-1.04,0-.99.94-2,1.87-3.2,2.55-.18.1-.38.25-.55.07-.15-.17-.03-.38.07-.57.31-.58.83-.95,1.33-1.34.1-.07.3-.1.24-.27-.05-.13-.21-.16-.35-.18-.31-.03-.61-.05-.94-.07.08-.21.25-.27.39-.36.12-.08.21-.19.17-.34-.04-.13-.16-.21-.31-.22-.6-.06-1.05.21-1.44.63-.14.16-.26.35-.12.59.09.14.03.3-.1.4-.73.63-1.4,1.33-2.23,1.83-.1.06-.22.17-.32.04-.09-.1-.05-.24.02-.34.23-.33.45-.69.72-.98.19-.21.17-.31-.02-.49-.18-.17-.36-.15-.56-.09-.42.12-.79.34-1.1.65-.24.24-.5.46-.69.74-.05.08-.14.16-.24.1-.1-.06-.06-.17-.04-.26.02-.08.06-.15.11-.22.36-.46.75-.9,1.21-1.25.32-.24.68-.51,1.08-.09.06.06.14.1.22.03.07-.06.06-.13.03-.22-.06-.14-.12-.26-.26-.34-.55-.29-1.51-.18-2.02.21-.63.49-1.07,1.18-1.81,1.56-.33.17-.63.41-.94.61.19-.4.4-.76.68-1.05.72-.75,1.41-1.53,2.21-2.2.26-.22.19-.38-.08-.52-.48-.25-.93-.21-1.38.07-1.06.65-2.14,1.27-3.16,1.99-.17.12-.29.35-.58.36.33-.55,1.76-2.08,2.31-2.48.18-.13.44-.25.4-.51-.05-.29-.36-.34-.61-.4-.2-.05-.39,0-.59.09-.9.42-1.71.99-2.55,1.51-.32.2-.66.37-1.04.58.04-.28.16-.4.29-.52.36-.35.73-.69,1.08-1.05.55-.55.46-1.05-.23-1.4-.23-.12-.48-.17-.75-.18-.97-.02-1.92.11-2.88.27-1.12.19-2.2.76-3.39.48-.03,0-.29-.01-.19.2.21.41.97.75,1.45.64.48-.12.96-.27,1.45-.38,1.11-.25,2.15-.79,3.32-.76.17,0,.4-.09.48.1.1.21-.14.32-.25.46-.03.04-.08.07-.12.11-.67.6-1.34,1.19-2,1.8-.75.7-1.29,1.57-1.94,2.35-.2.24-.44.43-.53.75-.04.17-.1.33.09.47.42.3.83.26,1.14-.16.5-.69,1.19-1.18,1.85-1.69,1.03-.81,2.13-1.53,3.2-2.3.12-.09.24-.19.46-.17-.13.17-.21.32-.34.41-.7.5-1.22,1.19-1.83,1.78-.41.4-.82.82-.99,1.4-.09.31-.1.61.22.83.41.28.71.24,1.04-.14.69-.8,1.51-1.46,2.33-2.12.69-.55,1.38-1.07,2.23-1.36-.3.36-.62.7-.96,1.01-.69.65-1.21,1.42-1.66,2.26-.09.17-.08.33.06.49.32.38.6.43,1.01.11.53-.41,1.13-.74,1.58-1.25.06-.07.12-.17.23-.13.12.04.08.16.08.25,0,.2,0,.4.19.51.46.28.93.46,1.43.11.13-.09.25-.15.4-.01.61.55,1.41.34,1.9-.11.48-.44,1-.81,1.45-1.29.23-.24.51-.45.78-.66.08-.06.2-.16.29-.05.09.11-.05.17-.12.24-.39.36-.76.73-1,1.21-.08.16-.12.29,0,.44.51.63,1.47.74,2.15.28.48-.32.93-.67,1.35-1.09Zm-41.59.44c-.03-.14-.04-.26.03-.37.44-.68.96-1.27,1.69-1.67.24-.13.47-.18.68,0,.17.14.36.16.45,0,.06-.11-.1-.28-.25-.36-.56-.3-1.13-.35-1.72-.09-.58.25-.96.71-1.35,1.18-.34.41-.64.87-1.16,1.11-.5.24-.97.55-1.55.57-.36.01-.48-.18-.37-.53.06-.2.19-.31.39-.36.38-.09.76-.19,1.1-.39.42-.25.82-.51,1.06-.96.19-.34.09-.54-.24-.7-.55-.26-1.05-.17-1.54.16-.59.4-1.08.9-1.5,1.48-.36.5-.85.83-1.43,1.03-.16.06-.36.09-.49-.08-.11-.14,0-.28.08-.41.29-.55.8-.88,1.26-1.25.14-.11.44-.15.37-.37-.06-.2-.33-.25-.56-.24-.14,0-.27.02-.41.03-.12.01-.27.19-.34,0-.06-.16.11-.24.23-.31.06-.03.12-.05.18-.08.12-.09.25-.19.19-.37-.05-.18-.19-.24-.38-.24-.63,0-1.12.28-1.45.81-.24.37-.13.6.3.68.11.02.24,0,.29.11.05.14-.08.22-.16.3-.26.29-.57.54-.76.9-.26.46-.22.79.2,1.07.2.13.43.22.68.24.66.05,1.17-.26,1.66-.65.12-.1.21-.24.41-.07,1.06.87,1.61.9,2.75.13.25-.17.44-.14.64.07.61.62,1.06.58,1.54-.1.06-.09.13-.14.23-.13.11.01.1.11.11.19.02.15.07.3.22.37.51.25,1.38.2,1.8-.32.16-.19.36-.32.52-.51.06-.07.15-.15.24-.08.07.05.03.15.01.23-.08.38.31.95.67.91.52-.05,1.05-.14,1.4-.6.2-.25.39-.22.62-.04.18.15.33.33.57.43.51.21.98.13,1.46-.04.21-.07.46-.15.63-.02.73.54,1.44.28,2.16,0,.61-.23.96-.7.99-1.3.05-.83.02-1.64.76-2.24.18-.15.08-.34-.2-.35-.29-.02-.52.08-.74.27-.37.32-.61.75-.96,1.08-.61.58-1.23,1.14-1.94,1.6-.49.31-.98.63-1.59.64-.21,0-.43-.01-.45-.29-.01-.23.03-.38.33-.46.78-.2,1.47-.59,2.06-1.16.2-.19.4-.42.28-.71-.12-.29-.41-.36-.7-.39-.87-.09-1.46.37-1.98.97-.67.78-1.31,1.59-2.23,2.1-.12.07-.28.2-.4.05-.1-.12.02-.25.09-.36.54-.94,1.29-1.73,1.97-2.56.32-.38.62-.79,1.16-.89.29-.05.58-.14.87-.21.1-.02.21-.08.21-.16,0-.1-.13-.15-.23-.15-.22,0-.39-.07-.54-.22-.53-.5-.82-.49-1.32.06-.42.46-.88.85-1.53.91-.09,0-.19.05-.18.18.08.08.18.05.27.06.23.04.24.18.09.31-.63.55-.95,1.37-1.7,1.83-.46.28-.84.67-1.27,1-.08.07-.2.15-.3.06-.11-.1-.05-.21.02-.33.24-.38.45-.77.79-1.07.1-.09.24-.17.17-.33-.06-.14-.18-.24-.34-.26-.2-.02-.41,0-.6.07-.59.19-1,.62-1.39,1.06-.18.21-.31.49-.67.53Zm-10.94.06c-.04.18-.14.29-.23.41-.91,1.22-2.01,2.24-3.28,3.08-.44.3-.95.46-1.46.58-.31.07-.63,0-.8-.28-.16-.25-.04-.54.1-.8.03-.06.09-.1.11-.17.04-.1.09-.22.02-.31-.08-.11-.2-.04-.3,0-.14.05-.27.11-.41.17-.39.16-.64.42-.64.86,0,.41.28.62.62.78.68.32,1.38.22,2.08.11.96-.15,1.71-.71,2.47-1.27,1.04-.78,1.93-1.69,2.73-2.7.66-.82,1.35-1.61,1.91-2.51.09-.14.28-.25.18-.45-.09-.18-.29-.24-.48-.28-.24-.04-.42.08-.59.23-.31.26-.61.53-.93.78-.78.62-1.62,1.14-2.46,1.67-.56.36-1.14.68-1.82.74-.3.03-.39-.08-.37-.36.02-.28.15-.52.31-.74,1.16-1.64,2.62-2.98,4.33-4.04.23-.14.47-.27.72-.38.13-.06.3-.09.42.04.12.13.05.28,0,.42-.05.1-.11.19-.18.27-.39.44-.84.81-1.34,1.12-.36.23-.7.51-1.09.69-.08.04-.17.1-.17.21,0,.06.06.09.12.08.45,0,.91.02,1.32-.21.63-.35,1.19-.77,1.65-1.34.39-.49.5-1.04.25-1.42-.31-.47-1.17-.73-1.7-.49-1.21.54-2.27,1.31-3.25,2.19-.9.81-1.75,1.66-2.16,2.84-.14.4-.17.78.14,1.14.37.42.84.64,1.37.52.7-.15,1.36-.44,1.99-.8.26-.15.49-.4.86-.36Zm43.05-10.55c.5.5.71,1.15,1.02,1.74.32.6.34.63,1.03.62.35,0,.46-.15.42-.48-.02-.2-.03-.41-.01-.61.07-1-.11-2,.15-3,.14-.54-.03-.65-.61-.64-.19,0-.38.02-.57,0-.33-.04-.42.11-.37.39.03.16.08.32.14.46.11.27.13.55.12.84,0,.12-.06.19-.18.24-.14.05-.18-.02-.25-.12-.29-.4-.47-.85-.63-1.31-.12-.33-.3-.53-.69-.5-.24.02-.49.02-.73,0-.38-.03-.47.06-.32.43.18.43.27.87.25,1.35-.04.85.01,1.7-.28,2.52-.1.27-.01.45.33.43.27-.02.54,0,.82,0,.64-.01.75-.17.53-.77-.03-.09-.07-.18-.11-.26-.19-.43-.1-.87-.05-1.32Zm-29.31-.18c.41.61.76,1.22,1.05,1.88.21.48.49.64,1.02.58.26-.03.42-.14.4-.44-.02-.37-.04-.74-.01-1.1.08-.87-.13-1.75.23-2.61.18-.43.02-.56-.47-.56-.23,0-.46,0-.69,0-.54.02-.65.17-.4.65.25.47.27.96.23,1.46,0,.09.02.22-.17.24-.34-.65-.68-1.29-1.01-1.95-.14-.3-.36-.42-.67-.42-.16,0-.33,0-.49,0-.47,0-.56.11-.44.56.31,1.17.38,2.34-.02,3.51-.04.12-.03.27-.03.4,0,.1.04.21.15.21.45,0,.9.03,1.34-.02.19-.02.3-.26.22-.49-.05-.13-.1-.25-.16-.37-.25-.5-.08-1.02-.09-1.54Zm-23.91,2.32s0,0,0,0c.19,0,.38-.01.57,0,.33.03.4-.13.34-.42-.06-.29-.17-.57-.17-.88-.01-.7-.02-.7.68-.67.46.02.53.09.45.55-.07.37-.19.73-.29,1.1-.05.18-.04.35.19.36.46,0,.92.05,1.38-.04.22-.04.31-.12.22-.35-.35-.91-.22-1.87-.23-2.81,0-.18.03-.35.07-.52.06-.27.46-.52.21-.79-.19-.21-.57-.12-.86-.13q-1.05-.04-.79.96c.19.72.08.85-.65.82-.27-.01-.37-.12-.35-.37.02-.31.08-.61.16-.91.04-.16.07-.35-.16-.38-.4-.04-.79-.15-1.21-.1-.32.04-.44.11-.33.48.33,1.18.37,2.38,0,3.57-.15.5-.13.53.39.54.14,0,.27,0,.41,0Zm-9.98-2.2c-.38-.72-.71-1.36-1.04-2-.1-.2-.23-.38-.47-.39-.27-.02-.54-.02-.81-.03-.3,0-.36.12-.31.41.23,1.24.44,2.48-.01,3.71-.09.25-.02.42.28.43.33,0,.65.04.98.03.4-.01.47-.13.34-.52-.05-.15-.09-.32-.17-.46-.23-.44-.09-.88-.06-1.33.51.59.88,1.24,1.14,1.96.11.32.58.47,1.08.39.38-.06.3-.34.32-.6.08-1.16-.18-2.33.23-3.47.04-.11,0-.24,0-.36,0-.1-.04-.16-.14-.15-.47.04-.94-.11-1.41.06-.23.08-.28.17-.17.38.32.59.25,1.22.23,1.94Zm77.43-2.28c-.37,0-.73,0-1.1,0-.29,0-.39.15-.27.38.41.75.27,1.56.3,2.35.02.44-.05.85-.28,1.24-.23.4-.02.71.45.72.24,0,.49,0,.73,0,.71,0,.79-.12.49-.79-.12-.26-.2-.53-.19-.82,0-.24.11-.34.36-.32.55.04.68.21.7.87.03,1.26-.18,1.05,1.18,1.06.04,0,.08,0,.12-.01.12-.02.21-.1.19-.22-.11-.63-.15-1.29-.51-1.85-.1-.16-.15-.36-.02-.43.44-.26.34-.66.35-1.04,0-.61-.11-.74-.66-.97-.6-.26-1.23-.17-1.85-.17Zm-61.93-.11s0,0,0,0c-.38,0-.76,0-1.14,0-.3,0-.42.13-.28.4.33.65.24,1.34.26,2.03.02.6,0,1.19-.22,1.76-.1.24-.02.4.26.41.38.01.76.01,1.14.03.35,0,.42-.18.34-.47-.08-.29-.18-.57-.22-.87-.03-.21-.14-.51.29-.51.48,0,.67.11.67.48,0,.34.02.68,0,1.02-.02.26.11.35.32.36.33.02.65.01.98,0,.19,0,.33-.11.25-.32-.23-.56-.25-1.16-.45-1.72-.07-.21-.05-.35.05-.53.58-1,.19-1.94-1.03-2.06-.4-.04-.81,0-1.22,0Zm-29.47-.08c-.15,0-.3,0-.45,0-.16,0-.33,0-.49,0-.5,0-.59.11-.39.57.19.45.25.91.24,1.38,0,.77.09,1.55-.24,2.29-.1.23-.02.34.26.33.35,0,.7.04,1.06.05.5.02.54-.05.42-.55-.08-.34-.25-.66-.21-1.03.01-.12-.01-.25.16-.29.37-.09.83.23.85.61.01.27,0,.54,0,.82,0,.13-.02.29.14.35.41.17.82.11,1.23,0,.1-.03.1-.13.08-.21-.14-.59-.19-1.22-.53-1.75-.1-.16-.09-.25.03-.39.74-.82.41-1.86-.66-2.11-.5-.12-1-.05-1.5-.08Zm96.65,4.88c.33,0,.65,0,.98,0q1.01-.02,1.01-1.02c0-.13.04-.26-.09-.38-.39-.35-.87-.3-1.14.14-.21.35-.55.42-.88.34-.43-.1-.28-.49-.3-.78-.01-.26.13-.36.38-.35.3,0,.6,0,.9-.01.29-.02.31-.24.32-.47,0-.25-.15-.3-.34-.3-.3,0-.6,0-.9.01-.24,0-.32-.14-.3-.34.02-.22-.17-.54.16-.63.31-.08.64-.08.89.23.25.31.79.45,1.13.27.31-.16.12-.49.15-.74.02-.16-.02-.32-.03-.49-.02-.18-.12-.24-.3-.24-1.03.02-2.06.03-3.09.06-.17,0-.37-.05-.46.16-.09.2-.04.4.09.58.11.14.23.27.22.46-.05,1.03.2,2.08-.34,3.06-.18.32,0,.44.31.44.54,0,1.09,0,1.63,0Zm-23.61,0h0c.38,0,.76,0,1.14,0,.88,0,.88,0,.87-.89,0-.25.06-.58-.2-.7-.31-.14-.65-.02-.93.16-.1.06-.15.19-.22.28-.19.24-.85.22-.97-.04-.24-.49.04-.94.59-.94.15,0,.3,0,.45.01.26.01.47-.03.48-.35,0-.33-.21-.4-.49-.4-.23,0-.46,0-.69,0-.19,0-.33-.09-.33-.28,0-.22-.13-.47.1-.64.24-.18.85-.03,1.03.23.18.25.87.41,1.12.26.08-.05.09-.13.09-.21,0-.33,0-.65-.02-.98,0-.15-.05-.3-.27-.28-1.07.09-2.15,0-3.22.04-.43.02-.54.2-.34.59.18.35.25.7.25,1.09,0,.87.02,1.74-.26,2.58-.12.38.06.48.41.47.48-.01.95,0,1.43,0Zm-6.88-2.4h0c0-.31,0-.62,0-.94,0-.74-.34-1.17-1.06-1.32-.85-.18-1.7-.08-2.56-.08-.31,0-.34.22-.28.46.07.27.3.5.29.79-.03.95.24,1.92-.2,2.85-.16.34-.02.56.33.57.8.02,1.6.06,2.4-.08.73-.13,1.07-.57,1.08-1.31,0-.31,0-.62,0-.94Zm-5.28,2.32c.22,0,.44,0,.65,0,.32.02.41-.17.37-.43-.02-.13-.07-.26-.14-.38-.23-.41-.33-.85-.43-1.31-.16-.74-.35-1.48-.52-2.22-.05-.21-.16-.33-.39-.33-.45,0-.9,0-1.34,0-.2,0-.31.07-.35.31-.06.45-.18.89-.27,1.34-.15.83-.4,1.63-.71,2.42-.15.39-.07.52.34.57.26.03.52.03.77.04.66.02.64-.07.52-.69-.04-.19-.33-.35-.19-.54.12-.16.38-.05.58-.07.42-.05.46,0,.38.4q-.17.89.73.9Zm27.1-2.38c0,.18,0,.35,0,.53,0,.18,0,.35-.02.53-.02.2-.09.37-.32.42-.58.13-.84-.06-.83-.65.02-.83-.14-1.69.21-2.5.05-.1.02-.24.02-.36,0-.16-.08-.26-.25-.25-.41,0-.82,0-1.22.04-.4.03-.47.15-.29.49.16.3.19.6.23.93.09.65.05,1.3.07,1.95.03.64.33,1.06.92,1.31.3.12.61.14.91.11.78-.08,1.53-.27,1.58-1.47.04-.91-.01-1.81.16-2.72.11-.59.03-.6-.61-.6-.12,0-.24,0-.37,0-.48,0-.66.19-.44.6.29.55.22,1.1.24,1.67Zm-35.36-.01h0c0-.29,0-.57,0-.86,0-.3.12-.5.42-.57.28-.06.51,0,.64.29.17.37.48.36.83.3.39-.07.31-.34.32-.59,0-.11,0-.22,0-.33.02-.27-.12-.4-.36-.46-.75-.17-1.5-.22-2.26-.06-.43.09-.71.33-.77.78-.14,1-.13,2,.03,3,.05.29.21.5.46.67.59.41,1.25.37,1.89.24,1.12-.23,1.12-.35,1.01-1.27-.01-.1.03-.21.03-.32q.04-.9-.84-.92c-.08,0-.16,0-.24,0-.52,0-.65.24-.4.69.07.13.2.21.26.36.08.17.05.32-.09.39-.2.11-.43.16-.67.06-.2-.09-.24-.28-.25-.47,0-.31,0-.63,0-.94Zm48.48,2.56c.26.01.53-.02.79-.09.73-.19,1.09-.71,1.08-1.52,0-.62-.4-1.02-1.11-1.19-.35-.08-.69-.2-1.02-.34-.14-.06-.28-.17-.3-.36-.02-.15.05-.26.17-.34.37-.24.83-.09.95.33.04.15.11.27.27.24.3-.05.61.17.91-.02.03-.02.05-.07.04-.11-.03-.28.09-.55.01-.83-.04-.13-.08-.2-.2-.26-.7-.36-1.45-.4-2.2-.31-.51.06-.92.34-1.08.87-.18.59-.01,1,.47,1.37.2.15.39.24.64.29.33.07.66.16.94.38.24.19.34.42.12.7-.19.23-.53.27-.76.08-.14-.11-.23-.26-.33-.41-.13-.21-.93-.3-1.09-.14-.2.21-.08,1.1.17,1.25.47.29.97.41,1.53.39Zm-103.93-.33c.23-.02.46-.05.69-.04.41,0,.44-.17.3-.5-.5-1.12-.67-2.33-.95-3.51-.09-.36-.25-.59-.66-.58-.27.01-.55.02-.81-.02-.45-.07-.62.14-.69.56-.22,1.24-.48,2.47-.99,3.63-.14.31-.01.45.34.44.33,0,.65-.04.98-.06.48-.02.57-.17.34-.6-.05-.1-.12-.18-.17-.28-.08-.14-.05-.28.09-.35.27-.12.58-.13.83-.02.25.1.09.37.05.55-.14.78-.15.78.66.77Zm-9.86.08c.67,0,1.07-.11,1.46-.38.52-.36.65-1.39.22-1.85-.39-.43-.87-.67-1.46-.71-.37-.02-.7-.37-.66-.64.04-.24.42-.42.73-.36.24.04.28.23.36.4.16.34.96.47,1.16.2.26-.35.06-1.06-.35-1.21-.55-.19-1.12-.32-1.71-.24-.42.06-.82.19-1.11.51-.5.54-.4,1.38.22,1.76.42.26.9.37,1.37.52.33.11.48.34.46.68-.02.26-.22.31-.43.34-.34.04-.61-.05-.67-.42-.04-.25-.18-.3-.39-.3-.18,0-.35,0-.53-.01-.24,0-.33.11-.35.35-.05.76.09.99.83,1.22.3.09.59.2.88.15Zm81.45-1.03c-.15-.17-.13-.3-.14-.41-.09-.94-.58-1.85-.17-2.83.09-.22-.1-.28-.28-.28-.38-.01-.76-.01-1.14-.01-.52,0-.6.08-.39.56.44.99.65,2.03.84,3.09.18,1.02.19,1.01,1.24,1.02.9,0,.9-.01,1.11-.91.25-1.02.35-2.09.83-3.05.05-.1.05-.24.07-.36.03-.23-.04-.36-.31-.35-.31.01-.62,0-.94,0-.44.02-.5.08-.36.49.38,1.07-.05,2.02-.37,3.05Zm13.78-3.54h0c-.57,0-1.14.01-1.71,0-.26,0-.43.09-.42.37.01.38.04.76.05,1.14.01.3.17.43.47.44.29,0,.47-.09.51-.4.02-.15.06-.29.11-.43.04-.11.13-.24.26-.22.13.03.1.18.1.28-.02,1,.17,2.02-.2,2.99-.02.05-.02.11-.03.16-.04.28.06.4.36.39.34-.02.68,0,1.02,0,.4-.01.55-.18.4-.54-.41-.98-.13-1.99-.2-2.98,0-.1,0-.2.11-.24.13-.04.2.06.26.15.12.15.07.34.1.51.07.43.42.3.68.33.26.03.31-.15.31-.37,0-.38-.02-.76,0-1.14,0-.35-.19-.44-.48-.44-.56,0-1.11,0-1.67,0Zm-90.59-.15h0c-.58,0-1.17.01-1.75-.01-.33-.01-.44.12-.42.43.03.32.05.65.07.97.03.48.15.56.61.44.29-.08.43-.25.47-.54.02-.14.01-.36.2-.35.23,0,.18.24.18.39.02.97.03,1.94-.26,2.89-.08.26-.02.4.26.4.41.01.81.05,1.22-.02.24-.04.37-.14.28-.42-.32-.95-.18-1.94-.2-2.91,0-.12-.03-.3.17-.31.2-.02.24.13.26.29,0,.08.05.16.05.24-.01.35.2.39.48.37.29-.01.51-.09.51-.43,0-.35,0-.71,0-1.06,0-.26-.1-.39-.39-.38-.58.02-1.17,0-1.75,0Zm27.69.08c-.34,0-.68,0-1.02,0-.23,0-.36.09-.38.33-.03.41-.02.81.02,1.22.02.21.14.31.35.32.47.03.62-.11.73-.69.02-.12,0-.32.18-.32.17,0,.17.19.18.32,0,.04,0,.08,0,.12-.04.94.18,1.9-.21,2.82-.13.3.01.48.37.47.35-.02.71-.01,1.06,0,.34,0,.46-.14.34-.45-.36-.92-.21-1.88-.21-2.82,0-.15-.03-.39.16-.41.23-.02.2.25.27.39.02.04.02.08.02.12.04.35.25.47.59.46.33-.01.44-.23.46-.5.03-.31.02-.62.02-.94,0-.15-.02-.3-.2-.35-.42-.11-.84-.21-1.28-.15-.49.07-.97.07-1.46.06Zm21.7,4.64s0,0,0,.01c.52,0,1.03,0,1.55,0,.18,0,.36-.02.37-.27,0-.49.04-.98.01-1.46-.03-.48-.45-.34-.73-.38-.29-.04-.37.16-.37.41,0,.15.02.3,0,.45-.07.41-.42.33-.7.39-.18.04-.27-.04-.27-.2,0-1.01-.22-2.03.22-3.01.15-.33,0-.56-.36-.58-.39-.02-.79-.02-1.18,0-.26.02-.41.13-.33.46.06.25.27.4.29.65.07,1.07.21,2.14-.25,3.16-.13.29-.06.37.21.37.52,0,1.03,0,1.55,0Zm-3.9,0c.46,0,.88,0,1.3,0,.22,0,.35-.08.35-.34,0-.39.02-.79.02-1.18,0-.44-.17-.62-.53-.62-.56,0-.65.09-.64.62,0,.23,0,.43-.25.55-.5.23-.78.09-.75-.46.06-.91-.12-1.85.25-2.74.08-.19.07-.38-.28-.43-.38-.05-.75-.04-1.13-.05-.38-.01-.46.1-.34.46.41,1.22.47,2.43-.02,3.64-.16.41.06.7.48.6.53-.12,1.05-.02,1.54-.07Zm-28.53-.1c1.1,0,1.11-.01.69-1.06-.11-.27-.15-.56,0-.82.29-.51.61-.99.92-1.49.16-.25.35-.48.43-.78.08-.29.02-.43-.31-.41-.26.02-.52-.01-.77-.03-.28-.02-.4.11-.37.39.03.35-.07.67-.26.96-.14.2-.27.28-.39-.01-.09-.21-.16-.43-.26-.64-.1-.22.12-.55-.16-.66-.22-.09-.51-.02-.77-.03-.01,0-.03,0-.04,0-.68-.04-.88,0-.47.87.03.07.08.14.13.21.29.49.59.98.87,1.47.17.3.24.62.09.97-.42,1.02-.4,1.05.68,1.05Zm-3.32.01c.24,0,.7,0,1.17,0,.15,0,.32.02.32-.21,0-.46,0-.93-.04-1.38-.05-.42-.3-.57-.75-.52-.4.04-.33.35-.34.61,0,.09.02.19,0,.28-.11.45-.49.29-.77.33-.28.04-.3-.18-.28-.38.07-.96-.17-1.95.28-2.89.11-.22.03-.46-.32-.45-.32,0-.65-.03-.98-.03-.53,0-.69.25-.42.71.12.19.2.39.19.6-.03.98.19,1.99-.26,2.93-.09.2-.01.29.21.32.6.09,1.19.05,2.01.07Zm57.43,5.88c-.51.18-.78.54-1.09.83-.79.73-1.63,1.39-2.5,2.01-.12.09-.29.19-.41.08-.13-.12-.04-.3.04-.45.02-.05.06-.09.09-.13.56-.74,1.1-1.5,1.71-2.21.5-.58,1.05-1.05,1.85-1.14.16-.02.4.02.5-.24-.17-.06-.32-.12-.48-.18-.18-.06-.33-.17-.48-.31-.36-.34-.54-.34-.9-.01-.15.14-.29.28-.43.43-.37.41-.81.67-1.38.67-.08,0-.18-.01-.19.1-.01.11.07.17.18.18.11.02.27-.06.32.1.04.16-.1.24-.21.32-.08.06-.13.12-.18.2-.45.68-.86,1.37-1.25,2.09-.22.42-.14.74.29.9.51.18,1.01.2,1.47-.16.78-.62,1.52-1.28,2.18-2.02.29-.32.66-.56.87-1.07Zm-29.31-10.44c-.2,0-.41,0-.61,0-.33,0-.41.16-.27.44.15.31.21.64.21.98,0,.93.13,1.86-.25,2.76-.13.3,0,.48.36.46.3-.02.6-.02.89,0,.36.03.51-.12.45-.47-.02-.11-.04-.21-.06-.32-.15-.98-.18-1.98,0-2.95.17-.91.21-.91-.73-.91Zm10.41,2.56c.03.46.01,1.16-.35,1.8-.13.23.05.26.2.27.43.03.87.04,1.3.05.23,0,.33-.12.32-.36-.01-.26-.19-.47-.2-.72-.02-1.01-.15-2.03.17-3.02.04-.14.02-.29.02-.44,0-.12-.08-.18-.18-.17-.44.07-.9-.03-1.34.07-.31.07-.48.25-.26.55.39.53.3,1.13.32,1.97Zm-27.05,7.47c.19,0,.37-.04.51-.14.33-.23.58-.55.96-.71.14-.06.14-.21.01-.34-.4-.38-1.02-.35-1.35.09-.16.21-.27.46-.39.7-.13.27-.06.42.26.39Z"/>
      <path class="cls-1" d="m9.58.85s-.08.04-.12,0c.04,0,.08,0,.12,0Z"/>
      <path class="cls-1" d="m94.84,12.41c-.17.76-.68,1.23-1.11,1.74-1.03,1.26-2.05,2.53-3.06,3.81-1.04,1.32-2.14,2.6-3.19,3.92-.93,1.16-1.82,2.35-2.74,3.52-2.11,2.66-4.23,5.32-6.35,7.97-.56.7-1.11,1.4-1.67,2.09-.08.1-.15.32-.32.21-.16-.11-.09-.28,0-.43.73-1.16,1.45-2.33,2.19-3.48,1.67-2.59,3.35-5.18,4.91-7.83.59-1,1.24-1.96,1.87-2.95.07-.11.15-.22.14-.4-.5.16-.87.49-1.28.77-1.78,1.21-3.56,2.43-5.34,3.64-1.18.8-2.4,1.56-3.59,2.37-1.38.93-2.73,1.91-4.11,2.84-2.6,1.76-5.2,3.52-7.8,5.27-1.95,1.32-3.89,2.63-5.84,3.95-3.21,2.17-6.42,4.33-9.62,6.5-2.51,1.7-5,3.41-7.53,5.08-.65.43-1.32.82-1.94,1.29-.1.07-.2.14-.27.25.13.17.32.16.51.16,5.05-.02,10.09.25,15.13.19.43,0,.83.1,1.25.16,1.85.25,3.72.13,5.58.19,2.15.07,4.3.04,6.44.16,2.92.16,5.84.08,8.76.16,1.6.04,3.2.12,4.8.24.49.04.97.05,1.46.06,2.13.05,4.26.15,6.39.17,2.2.02,4.39.06,6.59.17,2.66.13,5.33.14,7.99.18.07,0,.14,0,.2.01.1.02.19.08.19.18,0,.12-.13.14-.21.15-.44.06-.89.13-1.33.14-.9.04-1.8.08-2.69.05-1.81-.04-3.61.17-5.41.26-2.48.12-4.96.18-7.44.26-1.35.05-2.7.18-4.05.33-.37.04-.77-.04-1.16-.03-1.37.02-2.73.2-4.09.33-.77.07-1.58.02-2.38.02-1.97,0-3.94.1-5.9.26-1.7.14-3.39.18-5.09.22-.56.01-1.1.16-1.66.15-.2,0-.27.16-.36.29-1.56,2.12-3.13,4.24-4.69,6.36-1.32,1.79-2.63,3.58-3.95,5.37-2.07,2.8-4.15,5.61-6.22,8.41-.51.69-1.01,1.37-1.52,2.06-.06.08-.07.23-.23.17-.12-.04-.14-.14-.16-.25-.18-1.32-.38-2.63-.56-3.95-.15-1.07-.22-2.16-.44-3.22-.27-1.32-.44-2.65-.59-3.98-.13-1.12-.39-2.21-.47-3.33-.05-.71-.22-1.42-.31-2.14-.1-.79-.19-1.57-.33-2.35-.16-.89-.25-1.79-.33-2.69-.07-.66-.07-.69-.73-.68-1.9.03-3.81.03-5.71.13-2.31.12-4.62.15-6.93.14-1.66-.01-3.32.05-4.97.15-2.44.15-4.89.15-7.33.19-1.08.02-2.16.08-3.24.2-.05,0-.11.01-.16,0-.22-.04-.56.11-.62-.13-.05-.22.29-.37.49-.46,1.93-.91,3.8-1.93,5.7-2.9,2.57-1.32,5.12-2.69,7.69-4.03,1.86-.98,3.74-1.94,5.6-2.91,2.54-1.33,5.08-2.67,7.62-3.99.29-.15.4-.32.4-.66.01-.5-.2-.95-.25-1.43-.09-.88-.24-1.75-.39-2.63-.28-1.63-.5-3.28-.76-4.91-.22-1.44-.45-2.87-.67-4.31-.18-1.18-.27-2.38-.6-3.54-.14-.51-.13-1.06-.18-1.6-.04-.36.12-.35.37-.2.73.44,1.48.85,2.2,1.31,1.41.9,2.81,1.81,4.25,2.65,1.71,1,3.35,2.11,5.03,3.16.89.55,1.79,1.08,2.68,1.63,1.21.74,2.41,1.48,3.61,2.25.25.16.45.15.67.02,1.87-1.08,3.73-2.17,5.61-3.24,1.64-.94,3.29-1.85,4.93-2.78,1.32-.75,2.63-1.52,3.95-2.29,1.67-.97,3.31-2,5.01-2.91,1.47-.79,2.9-1.64,4.35-2.46,2.24-1.27,4.49-2.53,6.73-3.81,1.66-.95,3.31-1.92,4.96-2.87,1.19-.68,2.42-1.3,3.59-2.13Z"/>
      <path class="cls-1" d="m63.77,47.38c.1.71.51,1.22,1.09,1.66.71.54,1.51.75,2.34.91,1.43.28,2.83.24,4.17-.42.42-.21.77-.51,1.06-.87.33-.41.3-.72-.12-1.04-.4-.31-.85-.53-1.33-.69-1.11-.35-2.23-.65-3.31-1.07-.74-.29-1.47-.65-1.92-1.38-.29-.48-.25-.97-.15-1.45.21-1.01.86-1.75,1.65-2.38,1.47-1.16,3.22-1.7,4.95-2.3,2.27-.79,4.62-.77,6.98-.75,2.22.02,4.43.02,6.65.03.47,0,.51.05.26.45-.73,1.11-1.48,2.21-2.24,3.3-.08.12-.28.32-.4.08-.54-1.07-1.47-1.63-2.54-2.04-1.32-.5-2.68-.62-4.05-.32-.9.19-1.65.68-2.01,1.62-.12.32-.08.56.15.8.34.35.76.52,1.21.64,1.14.31,2.31.54,3.47.77.54.11,1.09.22,1.58.58.9.65.94,1.61.57,2.48-.6,1.39-1.62,2.42-2.89,3.2-.96.59-2.03.96-3.1,1.31-1.17.38-2.37.5-3.58.67-1.47.21-2.92.2-4.39.22-.66,0-1.29-.15-1.94-.19-.56-.03-1.13-.05-1.68-.15-.89-.17-1.76-.18-2.64.07-.33.09-.26-.23-.16-.4.25-.43.53-.85.8-1.27.42-.65.91-1.25,1.28-1.93.04-.07.08-.15.23-.15Z"/>
      <path class="cls-1" d="m97.23,50.77c.59-.37,1.08-.71,1.6-1,1.33-.75,2.52-1.69,3.75-2.59,2.72-1.99,5.33-4.12,7.9-6.3.65-.55,1.26-1.15,1.84-1.79.25-.28.35-.71.22-1.1-.09-.27,0-.36.25-.35,2.37.07,4.74.05,7.11,0,.46-.01.52.05.31.45-.55,1.02-.85,2.13-1.06,3.24-.16.83-.26,1.68-.31,2.54-.11,1.57-.03,3.13.2,4.67.1.68.43,1.31.87,1.86.09.11.25.22.18.38-.08.18-.26.09-.4.09-3.54.01-7.07.02-10.61.04-.08,0-.16.01-.24,0-.1-.01-.25.05-.29-.07-.04-.14.09-.22.19-.28,1.11-.63,1.66-1.68,2.09-2.82.12-.32,0-.49-.36-.49-1.85,0-3.7,0-5.55,0-.19,0-.34.08-.47.21-.71.71-1.36,1.47-1.85,2.35-.11.2-.23.41-.22.65.01.28-.14.37-.37.37-1.48,0-2.96,0-4.45,0-.06,0-.13-.03-.31-.06Zm9.01-4.93c1.48,0,2.88,0,4.28,0,1.03,0,1.08-.04,1.2-1.09,0-.03,0-.06,0-.08.23-.91.24-1.86.34-2.79.03-.24.16-.59-.07-.72-.24-.14-.44.18-.66.29-.05.02-.09.06-.13.1-1.21.99-2.42,1.97-3.62,2.97-.46.38-.96.74-1.34,1.32Z"/>
      <path class="cls-1" d="m84.88,50.89c0-.17.08-.24.18-.3,1.61-.87,2.73-2.25,3.83-3.66.72-.92,1.33-1.91,1.98-2.88.51-.76.89-1.6,1.45-2.32.37-.48.52-1.03.48-1.64-.03-.5-.43-.89-.93-.93-1.21-.1-2.19.47-3.14,1.08-1.03.66-2.05,1.36-2.99,2.2-.06-.24.05-.39.15-.55.51-.75,1.03-1.5,1.54-2.25.35-.53.71-1.05,1.02-1.6.24-.42.62-.5,1.04-.5,1.66,0,3.32,0,4.98.01,1.96,0,3.91,0,5.87.01,2.45,0,4.89.02,7.34.03.27,0,.54-.02.81-.05.25-.02.29.1.21.29-.09.18-.19.36-.3.53-.85,1.26-1.69,2.53-2.55,3.78-.1.14-.06.47-.31.39-.18-.06-.05-.33-.04-.52.02-.66.08-1.33-.03-1.99-.09-.52-.41-.81-.89-.94-1.1-.29-2.03.14-2.9.74-1,.68-1.73,1.59-2.38,2.59-1.07,1.64-2.18,3.27-3.26,4.9-.38.57-.74,1.15-1.11,1.72-.26.39-.22.76.02,1.14.07.1.13.2.18.32.09.2.05.31-.21.34-.62.07-1.23,0-1.84,0-2.38.02-4.76,0-7.14,0-.34,0-.68.03-1.04.05Z"/>
      <path class="cls-1" d="m22.3,98.8c.45.03.67-.36,1-.54.7-.39,1.35-.85,2.04-1.26.39-.23.79-.46,1.27-.41.04,0,.08,0,.12,0,.24.04.51.14.56.34.05.21-.16.39-.38.5-.39.19-.64.54-.9.86-.41.52-1,.88-1.31,1.48.07.07.13.03.18-.01.69-.52,1.43-.97,2.18-1.41.52-.31,1.02-.65,1.57-.93.38-.2.74-.14,1.08.07.24.14.32.32.06.54-.66.57-1.31,1.16-1.89,1.82-.39.44-.75.89-1.1,1.37.79-.41,1.6-.78,2.19-1.48.39-.45.82-.86,1.43-1,.55-.13,1.05-.04,1.5.32.09.07.2.17.14.31-.07.16-.23.11-.32.06-.48-.3-.88-.11-1.26.18-.5.38-.94.82-1.19,1.42-.04.09-.1.2,0,.26.1.06.18-.03.24-.11.34-.44.75-.81,1.2-1.14.37-.28.79-.4,1.24-.19.23.1.34.21.09.43-.33.28-.64.58-.82.98-.06.12-.17.27-.06.38.11.11.27,0,.36-.06.67-.48,1.35-.94,1.88-1.59.46-.57.9-1.15,1.43-1.65.44-.42.76-.98,1.28-1.34.16-.11.32-.19.53-.14.29.08.4.3.26.58-.15.3-.44.47-.68.69-.47.43-.95.85-1.26,1.42-.05.09-.2.2-.05.31.11.08.24,0,.33-.09.24-.25.53-.43.81-.62.47-.32.96-.3,1.25.05.32.39.28.91-.12,1.32-.3.32-.67.53-1.07.71-.14.06-.27.11-.32.29.29.18.55.06.81-.05.87-.38,1.44-1.09,2-1.81.18-.23.36-.46.56-.67.21-.22,1-.24,1.23-.04.15.13.06.23-.04.34-.42.44-.85.88-1.25,1.34-.21.24-.37.54-.53.82-.05.08-.08.19,0,.27.07.07.15,0,.22-.03.45-.19.87-.43,1.23-.77.6-.57,1.25-1.09,1.76-1.75.05-.06.11-.13.19-.16.22-.1.47-.25.67,0,.19.24.06.47-.14.64-.16.14-.33.26-.45.44.25.05.38-.08.53-.19.44-.31.85-.66,1.33-.91.38-.2,1.23-.13,1.52.16.15.15.17.31,0,.46-.55.48-.97,1.08-1.48,1.6-.07.07-.14.17-.17.27-.03.12-.07.29.07.37.15.09.2-.09.29-.15.89-.51,1.32-1.44,2-2.15.51-.53,1.44-1.19,2.35-.62.13.08.31.09.43,0,.29-.24.6-.12.89-.05.3.07.33.23.1.44-.43.39-.74.89-1.13,1.32-.03.03-.03.09-.05.19.61-.1,1.08-.42,1.54-.74.35-.25.68-.54,1.02-.82.13-.1.29-.26.42-.13.15.14-.04.29-.14.4-.72.72-1.54,1.3-2.47,1.7-.96.4-1.63,1.09-2.17,1.93-.32.49-.67.96-1.14,1.32-.41.32-.85.57-1.41.29-.5-.26-.58-.68-.19-1.08.39-.4.86-.7,1.33-.99.24-.14.5-.27.72-.53-.42,0-.73-.19-1.06-.33-.23-.09-.42-.09-.6.07-.25.21-.53.32-.87.36-.32.04-.6.07-.81-.25-.21-.32-.17-.63-.03-.95.2-.46.63-.74.93-1.13.06-.07.13-.14.16-.23.03-.07.08-.16,0-.23-.08-.06-.15.02-.21.06-.88.6-1.64,1.33-2.34,2.13-.11.12-.21.25-.34.35-.17.14-.37.17-.57.03-.18-.13-.28-.29-.18-.52.04-.08.11-.18-.01-.25-.11-.05-.17.06-.24.11-.26.19-.46.45-.77.58-.7.3-1.35.4-1.92-.25-.15-.17-.29-.09-.43.01-.43.3-.86.57-1.41.55-.36-.01-.71-.28-.78-.63-.1-.49,0-.72.46-.89.49-.19.8-.59,1.15-.95.09-.1.21-.29.08-.4-.09-.08-.29,0-.4.1-.38.31-.75.62-1.11.95-.45.41-.84.89-1.21,1.37-.17.21-.35.4-.65.24-.29-.16-.45-.39-.32-.74.03-.07.06-.15-.01-.24-.2.11-.33.3-.51.44-.48.39-.94.84-1.64.59-.21-.08-.44-.14-.47-.44-.02-.18-.15-.21-.29-.07-.03.03-.05.06-.08.09-.53.52-1.05.51-1.59,0-.22-.2-.15-.45-.21-.73-.37.29-.74.55-1.06.86-.25.25-.56.42-.84.63-.21.15-.44.25-.67.08-.27-.21-.38-.5-.23-.83.21-.46.5-.87.8-1.27.54-.73,1.19-1.34,1.89-1.89.09-.07.2-.15.26-.35-.29.16-.53.32-.79.41-.28.1-.5.27-.73.44-1.17.88-2.35,1.74-3.35,2.83-.14.16-.21.4-.43.46-.3.08-.58.03-.82-.21-.21-.22-.29-.44-.19-.74.19-.53.58-.92.93-1.36.56-.7,1.34-1.18,1.93-1.85.07-.08.21-.16.12-.26-.09-.1-.22-.03-.33.05-.89.68-1.89,1.21-2.73,1.95-.8.69-1.75,1.21-2.35,2.13-.18.27-.53.27-.82.07-.3-.21-.34-.44-.13-.75.6-.9,1.33-1.69,2.02-2.52.7-.85,1.5-1.58,2.37-2.26.05-.04.1-.09.15-.14.1-.1.18-.24.14-.36-.05-.17-.23-.1-.36-.1-.94,0-1.81.28-2.7.54-.61.19-1.22.37-1.84.5-.59.13-1.17.11-1.63-.38-.08-.08-.17-.16-.13-.28.05-.13.18-.12.28-.11.9.13,1.78-.08,2.61-.3.84-.22,1.7-.25,2.54-.44.69-.16,1.36-.15,1.94.39.43.4.5.76.08,1.17-.48.46-.98.9-1.41,1.41-.08.09-.19.16-.21.29-.02.01-.04.02-.05.03.01.01.03.02.04.03l.02-.06Zm26.04.7c.01-.31-.11-.35-.33-.25-.8.4-1.35,1.05-1.8,1.79-.04.07-.1.15-.04.22.08.1.18.03.25-.02.62-.42,1.25-.84,1.77-1.39.11-.11.15-.25.15-.36Zm-2.53,3.57s-.05-.05-.07-.08c-.41.27-.81.53-1.22.8-.1.07-.23.15-.18.29.06.17.25.11.36.08.57-.16.82-.65,1.11-1.09Z"/>
      <path class="cls-1" d="m109.93,101.01c-.42.42-.87.77-1.35,1.09-.69.46-1.65.35-2.15-.28-.12-.15-.08-.28,0-.44.24-.49.62-.85,1-1.21.07-.06.21-.12.12-.24-.09-.11-.21,0-.29.05-.27.21-.54.41-.78.66-.45.47-.98.85-1.45,1.29-.49.45-1.29.66-1.9.11-.15-.14-.27-.07-.4.01-.51.35-.98.17-1.43-.11-.18-.11-.19-.31-.19-.51,0-.09.03-.21-.08-.25-.11-.04-.17.06-.23.13-.46.51-1.05.83-1.58,1.25-.41.32-.68.26-1.01-.11-.14-.16-.15-.32-.06-.49.45-.83.97-1.61,1.66-2.26.34-.32.66-.66.96-1.01-.85.29-1.54.81-2.23,1.36-.82.66-1.64,1.32-2.33,2.12-.33.38-.63.42-1.04.14-.32-.22-.31-.52-.22-.83.17-.58.58-1,.99-1.4.61-.59,1.13-1.28,1.83-1.78.13-.09.2-.25.34-.41-.22-.02-.34.08-.46.17-1.07.76-2.16,1.49-3.2,2.3-.66.51-1.34,1-1.85,1.69-.3.41-.71.45-1.14.16-.19-.13-.13-.3-.09-.47.08-.32.33-.51.53-.75.65-.78,1.19-1.65,1.94-2.35.66-.61,1.33-1.2,2-1.8.04-.04.09-.07.12-.11.12-.14.35-.25.25-.46-.09-.19-.32-.1-.48-.1-1.17-.03-2.21.51-3.32.76-.49.11-.96.26-1.45.38-.47.11-1.23-.22-1.45-.64-.11-.21.16-.2.19-.2,1.19.27,2.27-.3,3.39-.48.96-.16,1.91-.29,2.88-.27.26,0,.51.05.75.18.69.36.78.86.23,1.4-.35.35-.72.7-1.08,1.05-.13.12-.25.25-.29.52.38-.21.71-.39,1.04-.58.84-.52,1.65-1.09,2.55-1.51.2-.09.39-.13.59-.09.25.06.56.11.61.4.05.25-.21.37-.4.51-.55.4-1.99,1.92-2.31,2.48.28,0,.41-.24.58-.36,1.02-.72,2.11-1.33,3.16-1.99.45-.28.9-.32,1.38-.07.27.14.34.31.08.52-.8.67-1.49,1.45-2.21,2.2-.28.29-.49.65-.68,1.05.31-.21.61-.44.94-.61.73-.37,1.18-1.07,1.81-1.56.5-.39,1.47-.51,2.02-.21.15.08.2.2.26.34.04.09.04.16-.03.22-.08.07-.16.03-.22-.03-.4-.42-.77-.14-1.08.09-.47.35-.85.8-1.21,1.25-.05.06-.09.14-.11.22-.03.09-.06.2.04.26.1.06.19-.02.24-.1.19-.29.45-.5.69-.74.31-.31.67-.53,1.1-.65.2-.06.38-.07.56.09.19.18.21.28.02.49-.27.3-.49.65-.72.98-.07.1-.11.24-.02.34.11.12.22.02.32-.04.83-.5,1.5-1.2,2.23-1.83.12-.11.18-.26.1-.4-.15-.24-.03-.43.12-.59.38-.42.84-.69,1.44-.63.15.01.27.09.31.22.05.15-.05.26-.17.34-.14.1-.31.16-.39.36.33.02.63.04.94.07.13.01.3.04.35.18.06.18-.14.2-.24.27-.5.39-1.02.76-1.33,1.34-.1.18-.23.4-.07.57.16.18.37.03.55-.07,1.2-.69,2.21-1.61,3.2-2.55.2-.19.86-.21,1.04,0,.16.17-.03.27-.11.37-.44.53-.9,1.04-1.34,1.56-.14.17-.24.39-.36.58-.05.07-.09.15-.03.22.07.08.15.02.22-.01.51-.24.96-.56,1.32-1,.39-.46.77-.93,1.15-1.39.38-.46.79-.6,1.37-.18.52.37.9.25,1.34-.06.48-.34,1-.3,1.52-.11.32.12.4.46.19.74-.45.6-1.04,1.01-1.76,1.22-.23.07-.42.22-.68.23-.18,0-.24.2-.23.38.01.18.1.32.29.33.26.02.52.03.76-.08,1.1-.49,2.04-1.18,2.82-2.12.7-.84,1.45-1.65,2.26-2.4.27-.25.55-.34.88-.11.22.15.28.3.05.52-.93.91-1.82,1.85-2.6,2.9-.25.34-.5.67-.68,1.06-.06.12-.16.26-.02.37.11.09.26.03.38-.04.45-.26.8-.65,1.19-.98.58-.48,1.15-.98,1.7-1.49.32-.29.6-.62.9-.92.18-.19.4-.31.67-.35.13-.02.23.02.31.14.08.13.06.25-.05.33-.64.47-.65,1.14-.63,1.84.03.86-.51,1.48-1.28,1.77-.61.23-1.24.37-1.85-.03-.23-.15-.47-.1-.7-.02-.89.34-1.29.2-1.71-.65-.13-.26-.28-.14-.42,0-.37.38-.83.59-1.34.71-.55.13-1.27-.11-1.63-.56-.23-.29-.28-.57-.07-.89.15-.24.31-.48.53-.67.22-.19.17-.3-.11-.37-.38-.1-.65-.12-.95.26-.47.58-.89,1.22-1.58,1.61-.34.19-.69.37-1.03.55-.21.1-.45.11-.63.02-.32-.16-.76.03-.97-.31-.2-.32.28-.56.19-.95Zm12.3-.82c-.3.15-1.18,1.28-1.2,1.57-.02.18.02.33.27.26.67-.19,1.17-1.16.93-1.83Zm-6.27.47c.44-.31.92-.51,1.26-.93.04-.05.05-.1.01-.14-.06-.07-.13-.03-.18,0-.3.21-.6.43-.88.66-.1.08-.27.15-.21.41Z"/>
      <path class="cls-1" d="m68.35,101.45c.35-.04.48-.32.67-.53.4-.44.8-.87,1.39-1.06.2-.06.4-.09.6-.07.16.02.28.12.34.26.07.16-.06.23-.17.33-.34.3-.55.69-.79,1.07-.07.11-.13.23-.02.33.1.08.21,0,.3-.06.42-.34.81-.73,1.27-1,.75-.45,1.07-1.28,1.7-1.83.14-.13.14-.27-.09-.31-.09-.02-.19.01-.27-.06-.01-.13.09-.17.18-.18.65-.07,1.11-.46,1.53-.91.5-.55.79-.56,1.32-.06.16.15.32.23.54.22.1,0,.23.05.23.15,0,.08-.11.14-.21.16-.29.07-.58.16-.87.21-.54.1-.85.51-1.16.89-.68.83-1.43,1.62-1.97,2.56-.07.12-.19.25-.09.36.12.15.28.02.4-.05.92-.51,1.56-1.32,2.23-2.1.52-.6,1.11-1.06,1.98-.97.3.03.59.1.7.39.12.29-.08.52-.28.71-.58.57-1.27.96-2.06,1.16-.29.08-.34.23-.33.46.02.28.24.3.45.29.61-.01,1.1-.33,1.59-.64.71-.45,1.34-1.02,1.94-1.6.35-.33.59-.76.96-1.08.22-.19.45-.29.74-.27.29.02.38.2.2.35-.74.6-.71,1.41-.76,2.24-.04.61-.39,1.07-.99,1.3-.72.27-1.43.53-2.16,0-.17-.13-.42-.05-.63.02-.48.17-.95.25-1.46.04-.24-.1-.38-.28-.57-.43-.23-.18-.43-.22-.62.04-.36.46-.88.55-1.4.6-.37.03-.76-.53-.67-.91.02-.08.06-.17-.01-.23-.1-.07-.18,0-.24.08-.16.18-.37.31-.52.51-.41.51-1.28.56-1.8.32-.15-.07-.2-.22-.22-.37-.01-.08,0-.18-.11-.19-.1-.01-.16.03-.23.13-.49.69-.94.72-1.54.1-.21-.21-.39-.24-.64-.07-1.15.77-1.7.74-2.75-.13-.19-.16-.28-.02-.41.07-.49.38-1,.7-1.66.65-.25-.02-.48-.11-.68-.24-.42-.27-.46-.61-.2-1.07.2-.35.5-.61.76-.9.08-.09.21-.16.16-.3-.05-.12-.18-.09-.29-.11-.43-.08-.54-.32-.3-.68.34-.52.82-.8,1.45-.81.18,0,.32.06.38.24.05.17-.07.28-.19.37-.05.04-.12.05-.18.08-.12.07-.29.15-.23.31.08.2.22.02.34,0,.13-.01.27-.03.41-.03.23,0,.49.04.56.24.07.21-.23.25-.37.37-.46.38-.97.71-1.26,1.25-.07.13-.19.27-.08.41.12.17.33.14.49.08.58-.2,1.07-.53,1.43-1.03.42-.58.91-1.08,1.5-1.48.49-.33.99-.42,1.54-.16.33.15.42.36.24.7-.25.45-.64.71-1.06.96-.34.2-.72.3-1.1.39-.2.05-.33.16-.39.36-.11.35.01.54.37.53.58-.02,1.05-.34,1.55-.57.51-.24.82-.69,1.16-1.11.38-.47.77-.93,1.35-1.18.59-.26,1.16-.2,1.72.09.16.08.31.25.25.36-.09.17-.28.14-.45,0-.21-.17-.44-.13-.68,0-.73.39-1.25.99-1.69,1.67-.07.11-.06.23-.03.37Zm11.01-1.3s-.08,0-.11.03c-.51.34-.71.94-1.1,1.38-.07.08-.07.24.03.34.1.11.22.06.34.01.57-.2.95-.97.85-1.76Zm-3.22.33c.4-.17.75-.41,1.04-.74.06-.07.16-.14.06-.23-.07-.06-.15,0-.21.04-.27.21-.55.43-.83.64-.11.08-.12.16-.05.29Zm-10.72-.02c.51-.23.98-.49,1.35-1.05-.63.22-1.02.6-1.35,1.05Z"/>
      <path class="cls-1" d="m57.41,101.51c-.37-.03-.6.21-.86.36-.63.36-1.29.65-1.99.8-.54.12-1-.1-1.37-.52-.31-.35-.28-.74-.14-1.14.41-1.18,1.26-2.03,2.16-2.84.98-.88,2.04-1.65,3.25-2.19.53-.24,1.39.02,1.7.49.25.38.15.93-.25,1.42-.45.57-1.02,1-1.65,1.34-.4.22-.87.2-1.32.21-.06,0-.12-.02-.12-.08,0-.11.08-.17.17-.21.39-.18.73-.46,1.09-.69.5-.31.95-.68,1.34-1.12.07-.08.14-.17.18-.27.06-.13.13-.29,0-.42-.12-.12-.29-.09-.42-.04-.25.11-.49.24-.72.38-1.71,1.06-3.16,2.4-4.33,4.04-.16.22-.28.46-.31.74-.02.28.07.39.37.36.69-.07,1.26-.39,1.82-.74.84-.53,1.68-1.06,2.46-1.67.32-.25.62-.52.93-.78.17-.14.35-.27.59-.23.19.03.38.09.48.28.1.2-.09.31-.18.45-.56.9-1.26,1.69-1.91,2.51-.8,1-1.7,1.92-2.73,2.7-.76.57-1.5,1.12-2.47,1.27-.7.11-1.4.21-2.08-.11-.34-.16-.62-.37-.62-.78,0-.43.25-.7.64-.86.14-.06.27-.11.41-.17.1-.04.21-.11.3,0,.07.09.02.21-.02.31-.02.06-.08.11-.11.17-.13.25-.25.54-.1.8.17.27.49.35.8.28.52-.11,1.02-.28,1.46-.58,1.26-.84,2.36-1.86,3.28-3.08.09-.12.19-.23.23-.41Z"/>
      <path class="cls-1" d="m100.46,90.96c-.04.45-.14.89.05,1.32.04.09.08.17.11.26.22.6.11.76-.53.77-.27,0-.54-.01-.82,0-.34.02-.42-.16-.33-.43.29-.82.24-1.68.28-2.52.02-.47-.07-.91-.25-1.35-.16-.37-.07-.46.32-.43.24.02.49.02.73,0,.38-.03.57.17.69.5.16.46.34.91.63,1.31.07.1.12.17.25.12.12-.04.18-.11.18-.24.01-.29,0-.57-.12-.84-.06-.15-.11-.31-.14-.46-.06-.29.04-.44.37-.39.19.02.38,0,.57,0,.58-.02.75.1.61.64-.26,1-.08,2-.15,3-.01.2,0,.41.01.61.04.33-.08.47-.42.48-.69,0-.71-.01-1.03-.62-.31-.59-.53-1.24-1.02-1.74Z"/>
      <path class="cls-1" d="m71.15,90.79c0,.52-.15,1.04.09,1.54.06.12.11.24.16.37.08.23-.02.47-.22.49-.44.06-.89.03-1.34.02-.11,0-.15-.11-.15-.21,0-.14,0-.28.03-.4.4-1.17.32-2.34.02-3.51-.12-.45-.03-.56.44-.56.16,0,.33,0,.49,0,.32,0,.53.12.67.42.32.66.67,1.3,1.01,1.95.18-.02.16-.15.17-.24.03-.5.02-.99-.23-1.46-.25-.48-.15-.62.4-.65.23,0,.46,0,.69,0,.5,0,.66.13.47.56-.36.86-.16,1.74-.23,2.61-.03.36-.01.73.01,1.1.02.31-.15.41-.4.44-.53.07-.81-.1-1.02-.58-.29-.65-.64-1.27-1.05-1.88Z"/>
      <path class="cls-1" d="m47.24,93.1c-.14,0-.27,0-.41,0-.51-.02-.54-.05-.39-.54.36-1.19.33-2.38,0-3.57-.1-.37,0-.44.33-.48.41-.05.81.05,1.21.1.23.03.21.21.16.38-.08.3-.14.6-.16.91-.01.25.09.36.35.37.74.03.84-.09.65-.82q-.26-1,.79-.96c.3.01.67-.08.86.13.25.27-.15.52-.21.79-.04.17-.07.34-.07.52.02.94-.11,1.9.23,2.81.09.23,0,.32-.22.35-.46.08-.92.04-1.38.04-.23,0-.24-.18-.19-.36.1-.37.22-.73.29-1.1.09-.45,0-.53-.45-.55-.7-.03-.69-.03-.68.67,0,.3.11.59.17.88.06.29-.01.45-.34.42-.19-.02-.38,0-.57,0,0,0,0,0,0,0Z"/>
      <path class="cls-1" d="m37.27,90.9c.03-.71.1-1.35-.23-1.94-.11-.21-.07-.3.17-.38.47-.17.94-.02,1.41-.06.1,0,.14.06.14.15,0,.12.04.26,0,.36-.41,1.14-.15,2.31-.23,3.47-.02.25.05.53-.32.6-.5.08-.97-.07-1.08-.39-.26-.72-.63-1.37-1.14-1.96-.03.45-.17.89.06,1.33.07.14.12.3.17.46.13.39.06.51-.34.52-.32.01-.65-.02-.98-.03-.31,0-.37-.18-.28-.43.45-1.24.24-2.48.01-3.71-.05-.29.01-.42.31-.41.27,0,.54,0,.81.03.25.02.37.19.47.39.33.64.66,1.27,1.04,2Z"/>
      <path class="cls-1" d="m114.7,88.63c.62,0,1.25-.09,1.85.17.54.23.66.37.66.97,0,.38.09.78-.35,1.04-.12.07-.08.27.02.43.36.56.4,1.22.51,1.85.02.13-.06.2-.19.22-.04,0-.08.01-.12.01-1.36-.02-1.15.2-1.18-1.06-.01-.66-.15-.83-.7-.87-.25-.02-.35.08-.36.32-.01.29.08.56.19.82.3.67.22.79-.49.79-.24,0-.49,0-.73,0-.47-.01-.69-.32-.45-.72.23-.39.3-.8.28-1.24-.04-.79.11-1.6-.3-2.35-.13-.23-.02-.39.27-.38.37,0,.73,0,1.1,0Zm.15,1.38c.03.24-.06.57.3.61.49.06.83-.2.83-.55,0-.4-.21-.55-.7-.57-.41-.02-.45.2-.42.51Z"/>
      <path class="cls-1" d="m52.77,88.52c.41,0,.82-.03,1.22,0,1.22.12,1.6,1.05,1.03,2.06-.1.18-.12.32-.05.53.2.56.22,1.17.45,1.72.08.21-.06.31-.25.32-.33.01-.65.02-.98,0-.21,0-.34-.11-.32-.36.02-.34.01-.68,0-1.02,0-.37-.2-.48-.67-.48-.43,0-.32.3-.29.51.04.29.14.58.22.87.08.3,0,.48-.34.47-.38-.01-.76-.02-1.14-.03-.28,0-.36-.16-.26-.41.22-.57.24-1.16.22-1.76-.02-.69.07-1.38-.26-2.03-.14-.27-.02-.41.28-.4.38,0,.76,0,1.14,0,0,0,0,0,0,0Zm.1,1.4c0,.5.14.62.62.61.39,0,.53-.15.53-.56,0-.41-.25-.61-.73-.64-.51-.02-.35.37-.42.59Z"/>
      <path class="cls-1" d="m23.29,88.44c.5.03,1-.04,1.5.08,1.07.25,1.4,1.29.66,2.11-.12.14-.14.23-.03.39.34.53.39,1.16.53,1.75.02.07.01.18-.08.21-.41.12-.82.18-1.23,0-.16-.06-.14-.22-.14-.35,0-.27.01-.54,0-.82-.02-.38-.47-.69-.85-.61-.17.04-.15.17-.16.29-.04.37.13.69.21,1.03.12.5.08.56-.42.55-.35-.01-.71-.06-1.06-.05-.28,0-.36-.11-.26-.33.33-.74.23-1.52.24-2.29,0-.47-.06-.94-.24-1.38-.19-.46-.11-.57.39-.57.16,0,.33,0,.49,0,.15,0,.3,0,.45,0Zm.22,1.4c0,.56.01.57.35.58.46,0,.79-.2.78-.51,0-.36-.34-.65-.78-.66-.48,0-.31.37-.35.59Z"/>
      <path class="cls-1" d="m119.94,93.33c-.54,0-1.09,0-1.63,0-.32,0-.49-.12-.31-.44.54-.98.29-2.03.34-3.06,0-.19-.11-.32-.22-.46-.13-.17-.18-.37-.09-.58.09-.21.3-.16.46-.16,1.03-.02,2.06-.03,3.09-.06.19,0,.29.06.3.24.02.16.05.33.03.49-.03.25.16.57-.15.74-.34.18-.88.04-1.13-.27-.25-.31-.58-.31-.89-.23-.33.09-.14.41-.16.63-.01.2.06.34.3.34.3,0,.6-.02.9-.01.19,0,.34.05.34.3,0,.24-.04.45-.32.47-.3.02-.6.02-.9.01-.25,0-.39.08-.38.35.01.29-.13.68.3.78.34.08.67.01.88-.34.27-.44.75-.49,1.14-.14.13.11.09.25.09.38q0,1.01-1.01,1.02c-.33,0-.65,0-.98,0Z"/>
      <path class="cls-1" d="m96.33,93.32c-.48,0-.95,0-1.43,0-.34,0-.53-.09-.41-.47.27-.84.25-1.71.26-2.58,0-.39-.07-.75-.25-1.09-.2-.39-.09-.57.34-.59,1.07-.04,2.15.05,3.22-.04.21-.02.26.13.27.28.02.33.02.65.02.98,0,.08,0,.16-.09.21-.25.15-.94,0-1.12-.26-.18-.26-.78-.4-1.03-.23-.23.17-.1.43-.1.64,0,.19.14.28.33.28.23,0,.46.01.69,0,.28,0,.49.06.49.4,0,.32-.22.36-.48.35-.15,0-.3-.01-.45-.01-.55,0-.83.44-.59.94.12.25.78.28.97.04.07-.09.13-.22.22-.28.28-.18.62-.3.93-.16.26.12.2.45.2.7.01.88,0,.89-.87.89-.38,0-.76,0-1.14,0h0Z"/>
      <path class="cls-1" d="m89.46,90.93c0,.31,0,.62,0,.94,0,.73-.35,1.18-1.08,1.31-.79.14-1.6.1-2.4.08-.35-.01-.49-.23-.33-.57.44-.93.17-1.9.2-2.85,0-.29-.22-.51-.29-.79-.06-.23-.04-.46.28-.46.85,0,1.71-.1,2.56.08.72.15,1.06.58,1.06,1.32,0,.31,0,.62,0,.94h0Zm-2.32-.07s-.02,0-.04,0c0,.34,0,.68,0,1.02,0,.12-.03.26.11.32.25.1.5.1.75-.01.22-.1.27-.29.26-.5,0-.49,0-.98,0-1.46-.01-.61-.18-.75-.79-.73-.23,0-.31.1-.3.32.01.35,0,.7,0,1.06Z"/>
      <path class="cls-1" d="m84.18,93.25q-.9-.01-.73-.9c.08-.4.04-.44-.38-.4-.2.02-.46-.08-.58.07-.14.19.15.35.19.54.12.62.14.71-.52.69-.26,0-.52,0-.77-.04-.41-.05-.49-.18-.34-.57.31-.79.56-1.59.71-2.42.08-.45.2-.89.27-1.34.03-.23.15-.31.35-.31.45,0,.9.01,1.34,0,.23,0,.34.11.39.33.17.74.36,1.47.52,2.22.1.45.2.9.43,1.31.07.11.12.25.14.38.04.27-.04.45-.37.43-.22-.01-.43,0-.65,0Zm-1.47-2.55c0,.08,0,.12,0,.16-.03.25.11.35.33.35.28,0,.22-.23.19-.39-.03-.22-.09-.45-.17-.65-.04-.11,0-.32-.18-.3-.14.02-.05.21-.08.31-.05.18-.1.36-.09.51Z"/>
      <path class="cls-1" d="m111.27,90.87c-.01-.56.05-1.12-.24-1.67-.22-.41-.03-.6.44-.6.12,0,.24,0,.37,0,.64,0,.72.01.61.6-.17.91-.12,1.81-.16,2.72-.05,1.2-.8,1.39-1.58,1.47-.3.03-.61.02-.91-.11-.6-.24-.9-.66-.92-1.31-.03-.65.02-1.3-.07-1.95-.04-.32-.07-.63-.23-.93-.19-.34-.11-.46.29-.49.41-.03.81-.03,1.22-.04.17,0,.25.09.25.25,0,.12.02.26-.02.36-.35.81-.19,1.66-.21,2.5-.01.59.25.77.83.65.22-.05.3-.22.32-.42.02-.18.02-.35.02-.53,0-.18,0-.35,0-.53Z"/>
      <path class="cls-1" d="m75.91,90.86c0,.31,0,.63,0,.94,0,.19.05.38.25.47.23.11.46.05.67-.06.14-.07.16-.22.09-.39-.06-.14-.19-.23-.26-.36-.25-.45-.12-.69.4-.69.08,0,.16,0,.24,0q.89.01.84.92c0,.11-.05.21-.03.32.11.92.11,1.04-1.01,1.27-.63.13-1.29.18-1.89-.24-.25-.17-.42-.38-.46-.67-.16-1-.17-2-.03-3,.06-.44.35-.69.77-.78.76-.15,1.51-.11,2.26.06.25.06.38.19.36.46,0,.11,0,.22,0,.33,0,.25.07.52-.32.59-.35.06-.65.07-.83-.3-.13-.29-.36-.36-.64-.29-.29.07-.42.27-.42.57,0,.29,0,.57,0,.86h0Z"/>
      <path class="cls-1" d="m124.39,93.41c-.56.01-1.07-.11-1.53-.39-.25-.15-.38-1.05-.17-1.25.16-.16.96-.07,1.09.14.09.15.19.3.33.41.24.19.57.15.76-.08.23-.28.13-.51-.12-.7-.27-.22-.61-.31-.94-.38-.25-.05-.44-.14-.64-.29-.49-.38-.65-.78-.47-1.37.16-.53.57-.81,1.08-.87.75-.09,1.5-.05,2.2.31.13.06.17.13.2.26.08.28-.05.56-.01.83,0,.04-.01.09-.04.11-.29.2-.6-.03-.91.02-.16.03-.22-.09-.27-.24-.12-.42-.58-.58-.95-.33-.12.08-.19.19-.17.34.02.18.16.3.3.36.33.13.67.25,1.02.34.71.17,1.1.57,1.11,1.19.01.81-.35,1.33-1.08,1.52-.26.07-.53.11-.79.09Z"/>
      <path class="cls-1" d="m20.46,93.08c-.81,0-.8,0-.66-.77.03-.18.2-.44-.05-.55-.26-.11-.56-.1-.83.02-.14.06-.17.21-.09.35.05.1.12.18.17.28.23.43.14.58-.34.6-.33.01-.65.05-.98.06-.35,0-.48-.14-.34-.44.52-1.16.77-2.39.99-3.63.07-.41.24-.62.69-.56.27.04.54.03.81.02.41-.02.57.22.66.58.28,1.18.46,2.39.95,3.51.14.32.11.5-.3.5-.23,0-.46.03-.69.04Zm-1.13-3.62c-.12.52-.27.91-.29,1.34,0,.15-.03.31.21.3.19-.02.41-.03.39-.29-.02-.42-.09-.84-.31-1.34Z"/>
      <path class="cls-1" d="m10.6,93.16c-.28.05-.58-.05-.88-.15-.74-.23-.88-.45-.83-1.22.02-.23.11-.35.35-.35.18,0,.35.02.53.01.21,0,.35.05.39.3.06.37.34.46.67.42.22-.02.41-.07.43-.34.03-.34-.13-.57-.46-.68-.46-.16-.94-.26-1.37-.52-.62-.38-.72-1.22-.22-1.76.3-.32.7-.46,1.11-.51.59-.08,1.16.05,1.71.24.42.15.62.86.35,1.21-.2.27-1,.13-1.16-.2-.08-.17-.12-.36-.36-.4-.31-.06-.7.12-.73.36-.04.27.29.62.66.64.59.04,1.07.28,1.46.71.42.47.3,1.49-.22,1.85-.39.27-.79.38-1.46.38Z"/>
      <path class="cls-1" d="m92.05,92.13c.32-1.03.75-1.98.37-3.05-.14-.4-.08-.47.36-.49.31-.01.62,0,.94,0,.26-.01.34.12.31.35-.02.12-.01.25-.07.36-.48.96-.58,2.03-.83,3.05-.21.9-.21.92-1.11.91-1.05,0-1.07,0-1.24-1.02-.18-1.06-.39-2.1-.84-3.09-.21-.48-.14-.56.39-.56.38,0,.76,0,1.14.01.18,0,.37.06.28.28-.41.97.08,1.89.17,2.83.01.12,0,.25.14.41Z"/>
      <path class="cls-1" d="m105.83,88.59c.56,0,1.11,0,1.67,0,.29,0,.49.09.48.44-.01.38,0,.76,0,1.14,0,.22-.04.39-.31.37-.26-.03-.61.1-.68-.33-.03-.17.02-.36-.1-.51-.07-.09-.14-.19-.26-.15-.11.04-.12.14-.11.24.07.99-.2,2,.2,2.98.15.36,0,.53-.4.54-.34,0-.68,0-1.02,0-.29.01-.4-.11-.36-.39,0-.05,0-.11.03-.16.37-.98.18-1.99.2-2.99,0-.1.04-.25-.1-.28-.14-.03-.22.1-.26.22-.05.14-.09.29-.11.43-.04.31-.21.4-.51.4-.3,0-.45-.14-.47-.44-.02-.38-.04-.76-.05-1.14,0-.28.16-.38.42-.37.57,0,1.14,0,1.71,0h0Z"/>
      <path class="cls-1" d="m15.24,88.44c.58,0,1.17.01,1.75,0,.29,0,.39.12.39.38,0,.35,0,.71,0,1.06,0,.34-.22.42-.51.43-.28.01-.49-.02-.48-.37,0-.08-.04-.16-.05-.24-.02-.16-.06-.31-.26-.29-.2.02-.17.19-.17.31.02.97-.12,1.96.2,2.91.09.27-.04.38-.28.42-.41.06-.81.03-1.22.02-.28,0-.34-.15-.26-.4.29-.94.27-1.92.26-2.89,0-.15.05-.38-.18-.39-.19,0-.18.21-.2.35-.05.28-.18.46-.47.54-.46.12-.58.04-.61-.44-.02-.32-.04-.65-.07-.97-.02-.31.09-.44.42-.43.58.02,1.17,0,1.75,0h0Z"/>
      <path class="cls-1" d="m42.93,88.52c.49,0,.98,0,1.46-.06.44-.06.86.04,1.28.15.18.05.2.2.2.35,0,.31,0,.63-.02.94-.02.27-.13.49-.46.5-.33.01-.55-.11-.59-.46,0-.04,0-.08-.02-.12-.07-.15-.03-.42-.27-.39-.19.02-.16.26-.16.41,0,.94-.15,1.9.21,2.82.12.31,0,.46-.34.45-.35,0-.71-.01-1.06,0-.36.02-.5-.17-.37-.47.4-.92.18-1.88.21-2.82,0-.04,0-.08,0-.12-.02-.13-.01-.32-.18-.32-.18,0-.16.19-.18.32-.11.58-.27.72-.73.69-.21-.01-.33-.11-.35-.32-.04-.41-.05-.81-.02-1.22.02-.24.15-.33.38-.33.34,0,.68,0,1.02,0Z"/>
      <path class="cls-1" d="m64.63,93.16c-.52,0-1.03,0-1.55,0-.27,0-.35-.07-.21-.37.46-1.02.32-2.1.25-3.16-.02-.25-.23-.4-.29-.65-.07-.32.07-.44.33-.46.39-.03.79-.03,1.18,0,.37.02.51.24.36.58-.44.98-.21,2-.22,3.01,0,.16.09.24.27.2.28-.06.63.02.7-.39.03-.15,0-.3,0-.45,0-.25.08-.45.37-.41.28.04.7-.1.73.38.03.49,0,.98-.01,1.46,0,.26-.19.27-.37.27-.52,0-1.03,0-1.55,0,0,0,0,0,0-.01Z"/>
      <path class="cls-1" d="m60.72,93.17c-.49.05-1.01-.05-1.54.07-.43.1-.65-.19-.48-.6.49-1.21.42-2.42.02-3.64-.12-.36-.04-.47.34-.46.38.01.75,0,1.13.05.35.05.36.24.28.43-.37.89-.19,1.82-.25,2.74-.03.54.25.69.75.46.25-.12.25-.32.25-.55,0-.54.08-.62.64-.62.35,0,.52.18.53.62,0,.39-.03.79-.02,1.18,0,.26-.12.34-.35.34-.42,0-.84,0-1.3,0Z"/>
      <path class="cls-1" d="m32.2,93.07c-1.08,0-1.1-.03-.68-1.05.14-.34.08-.66-.09-.97-.28-.5-.58-.98-.87-1.47-.04-.07-.09-.14-.13-.21-.4-.87-.2-.91.47-.87.01,0,.03,0,.04,0,.26,0,.54-.06.77.03.27.11.06.44.16.66.1.21.17.43.26.64.12.29.26.21.39.01.2-.29.3-.61.26-.96-.03-.28.09-.41.37-.39.26.02.52.04.77.03.34-.02.39.11.31.41-.08.3-.28.53-.43.78-.31.5-.63.98-.92,1.49-.14.25-.11.54,0,.82.42,1.04.41,1.06-.69,1.06Z"/>
      <path class="cls-1" d="m28.88,93.08c-.82-.02-1.41.01-2.01-.07-.22-.03-.3-.12-.21-.32.45-.95.23-1.95.26-2.93,0-.21-.08-.4-.19-.6-.27-.46-.11-.71.42-.71.33,0,.65.04.98.03.35-.01.43.23.32.45-.45.93-.21,1.92-.28,2.89-.02.2,0,.41.28.38.28-.04.66.12.77-.33.02-.09,0-.19,0-.28.01-.26-.05-.57.34-.61.46-.04.71.1.75.52.05.46.04.92.04,1.38,0,.23-.17.21-.32.21-.46,0-.92,0-1.17,0Z"/>
      <path class="cls-1" d="m86.32,98.96c-.21.51-.59.76-.87,1.07-.66.74-1.4,1.4-2.18,2.02-.46.36-.96.34-1.47.16-.44-.16-.52-.48-.29-.9.39-.72.8-1.41,1.25-2.09.05-.08.11-.15.18-.2.11-.08.25-.15.21-.32-.05-.16-.2-.09-.32-.1-.1-.02-.19-.07-.18-.18.01-.11.12-.1.19-.1.57,0,1-.27,1.38-.67.14-.15.28-.3.43-.43.37-.33.55-.33.9.01.14.13.29.24.48.31.16.06.32.12.48.18-.1.26-.33.22-.5.24-.8.09-1.35.56-1.85,1.14-.61.71-1.15,1.47-1.71,2.21-.03.04-.07.09-.09.13-.07.14-.17.32-.04.45.12.11.28.01.41-.08.87-.62,1.71-1.28,2.5-2.01.31-.29.58-.64,1.09-.83Z"/>
      <path class="cls-1" d="m57.01,88.52c.94,0,.9,0,.73.91-.18.98-.15,1.97,0,2.95.02.11.04.21.06.32.06.35-.09.5-.45.47-.3-.02-.6-.02-.89,0-.36.02-.49-.15-.36-.46.38-.9.25-1.83.25-2.76,0-.34-.06-.67-.21-.98-.14-.28-.06-.44.27-.44.2,0,.41,0,.61,0Z"/>
      <path class="cls-1" d="m67.41,91.08c-.01-.84.07-1.44-.32-1.97-.22-.29-.05-.47.26-.55.44-.1.89,0,1.34-.07.11-.02.18.05.18.17,0,.15.02.31-.02.44-.32.99-.19,2.01-.17,3.02,0,.25.18.46.2.72.01.24-.09.37-.32.36-.43,0-.87-.02-1.3-.05-.15,0-.33-.04-.2-.27.36-.64.38-1.35.35-1.8Z"/>
      <path class="cls-1" d="m40.37,98.55c-.32.04-.38-.12-.26-.39.12-.24.23-.49.39-.7.33-.45.95-.48,1.35-.09.13.12.13.27-.01.34-.38.17-.63.49-.96.71-.14.1-.32.15-.51.14Z"/>
      <path class="cls-2" d="m106.24,45.83c.38-.58.88-.94,1.34-1.32,1.2-1,2.41-1.98,3.62-2.97.04-.03.08-.07.13-.1.22-.11.42-.44.66-.29.23.14.09.48.07.72-.1.93-.11,1.87-.34,2.79,0,.03,0,.05,0,.08-.12,1.04-.17,1.09-1.2,1.09-1.4,0-2.8,0-4.28,0Z"/>
      <path class="cls-2" d="m48.33,99.5c0,.11-.04.25-.15.36-.52.55-1.15.97-1.77,1.39-.07.05-.17.13-.25.02-.06-.07,0-.15.04-.22.46-.74,1-1.4,1.8-1.79.22-.11.34-.06.33.25Z"/>
      <path class="cls-2" d="m45.8,103.08c-.29.44-.54.93-1.11,1.09-.11.03-.29.09-.36-.08-.05-.13.08-.22.18-.29.4-.27.81-.54,1.22-.8.02.03.05.05.07.08Z"/>
      <path class="cls-2" d="m22.3,98.8l-.02.06s-.03-.02-.04-.03c.02-.01.04-.02.05-.03,0,0,0,0,0,0Z"/>
      <path class="cls-2" d="m122.23,100.19c.24.67-.26,1.64-.93,1.83-.25.07-.29-.08-.27-.26.03-.29.9-1.42,1.2-1.57Z"/>
      <path class="cls-2" d="m115.96,100.66c-.05-.25.11-.32.21-.41.28-.23.58-.44.88-.66.05-.04.12-.07.18,0,.04.05.02.1-.01.14-.33.41-.81.62-1.26.93Z"/>
      <path class="cls-2" d="m79.36,100.15c.09.79-.28,1.56-.85,1.76-.12.04-.23.1-.34-.01-.09-.1-.1-.26-.03-.34.39-.44.59-1.04,1.1-1.38.03-.02.07-.02.11-.03Z"/>
      <path class="cls-2" d="m76.14,100.48c-.07-.13-.05-.21.05-.29.28-.21.55-.42.83-.64.07-.05.14-.11.21-.04.1.1,0,.17-.06.23-.28.34-.63.57-1.04.74Z"/>
      <path class="cls-2" d="m65.42,100.46c.33-.45.72-.83,1.35-1.05-.37.56-.84.82-1.35,1.05Z"/>
      <path class="cls-2" d="m114.84,90c-.03-.31,0-.53.42-.51.5.03.71.17.7.57,0,.35-.34.61-.83.55-.36-.04-.27-.38-.3-.61Z"/>
      <path class="cls-2" d="m52.86,89.92c.07-.22-.09-.61.42-.59.48.02.72.22.73.64,0,.4-.14.55-.53.56-.48.01-.61-.11-.62-.61Z"/>
      <path class="cls-2" d="m23.52,89.84c.04-.22-.13-.59.35-.59.44,0,.78.29.78.66,0,.3-.32.51-.78.51-.34,0-.35-.02-.35-.58Z"/>
      <path class="cls-2" d="m87.14,90.86c0-.35,0-.7,0-1.06,0-.22.07-.31.3-.32.61-.01.78.13.79.73,0,.49,0,.98,0,1.46,0,.21-.04.4-.26.5-.25.11-.5.11-.75.01-.14-.06-.11-.2-.11-.32,0-.34,0-.68,0-1.02.01,0,.02,0,.04,0Z"/>
      <path class="cls-2" d="m82.7,90.7c-.02-.15.03-.33.09-.51.03-.11-.06-.29.08-.31.18-.03.14.19.18.3.08.21.14.43.17.65.02.15.09.39-.19.39-.21,0-.36-.11-.33-.35,0-.04,0-.08,0-.16Z"/>
      <path class="cls-2" d="m19.33,89.46c.22.5.29.92.31,1.34.02.27-.2.28-.39.29-.24.02-.21-.15-.21-.3.01-.43.17-.82.29-1.34Z"/>
    </g>
  </g>
</svg>